<svg width="30" height="30" viewBox="0 0 30 30" fill="none" xmlns="http://www.w3.org/2000/svg">
<g clip-path="url(#clip0)">
<path d="M26.9443 10.065C25.4087 8.13934 23.2505 7.02185 21.2124 7.02185C18.5218 7.02185 17.3837 8.30997 15.5143 8.30997C13.5869 8.30997 12.1225 7.0256 9.79562 7.0256C7.51001 7.0256 5.07628 8.42247 3.53316 10.8112C1.3638 14.1749 1.73505 20.4993 5.25065 25.8861C6.50877 27.8136 8.18876 29.9811 10.3862 29.9998C12.3419 30.0186 12.8931 28.7455 15.5425 28.7324C18.1918 28.7174 18.6943 30.0167 20.6462 29.9961C22.8456 29.9792 24.6174 27.5774 25.8755 25.6499C26.7774 24.268 27.113 23.5724 27.8124 22.0124C22.7255 20.0755 21.9099 12.8418 26.9443 10.065Z" fill="black"/>
<path d="M20.6237 0C19.0243 0.110624 17.155 1.13437 16.0656 2.46749C15.0719 3.67685 14.2544 5.47309 14.5731 7.21871C16.3206 7.27308 18.1262 6.22496 19.1725 4.86935C20.1512 3.60748 20.8918 1.82249 20.6237 0Z" fill="black"/>
</g>
<defs>
<clipPath id="clip0">
<rect width="30" height="30" fill="white"/>
</clipPath>
</defs>
</svg>
