<svg version="1.2" baseProfile="tiny-ps" xmlns="http://www.w3.org/2000/svg" viewBox="0 0 1500 1000" width="1500" height="1000">
	<title>5133184-ai</title>
	<style>
		tspan { white-space:pre }
		.shp0 { fill: #cc006e } 
		.shp1 { fill: #221d53 } 
		.shp2 { fill: #fcb798 } 
		.shp3 { fill: #4d5681 } 
		.shp4 { fill: none;stroke: #4d5681;stroke-linecap:round;stroke-linejoin:round;stroke-width: 0.984 } 
		.shp5 { fill: #3b4263 } 
		.shp6 { fill: #4f62b8 } 
		.shp7 { fill: #eb007e } 
		.shp8 { fill: #ffffff } 
		.shp9 { fill: #44529e } 
		.shp10 { fill: #4e4d5b } 
		.shp11 { fill: #282730 } 
		.shp12 { fill: #3f3e4d } 
		.shp13 { fill: #4254a6 } 
		.shp14 { fill: #696874 } 
		.shp15 { fill: #1f1f26 } 
		.shp16 { fill: #6c79b5 } 
		.shp17 { fill: #364487 } 
		.shp18 { fill: #f0f0f0 } 
		.shp19 { fill: #20acff } 
		.shp20 { opacity: 0.161;fill: #ffffff } 
		.shp21 { fill: #00d017 } 
		.shp22 { fill: #1c99e3 } 
		.shp23 { fill: #5ec3ff } 
		.shp24 { fill: #f03d9d } 
		.shp25 { fill: #d60073 } 
		.shp26 { fill: #dedc00 } 
		.shp27 { fill: #e8e600 } 
		.shp28 { fill: #efed4a } 
		.shp29 { fill: #000000 } 
		.shp30 { fill: #8f8f8f } 
		.shp31 { fill: #696969 } 
	</style>
	<g id="BACKGROUND">
	</g>
	<g id="OBJECTS">
		<g id="&lt;Group&gt;">
			<path id="&lt;Path&gt;" class="shp0" d="M771.56 200.13C743.28 243.97 715.75 267.51 688.95 270.73L691.59 283.01C727.01 284.63 750.41 277.69 761.77 262.21C773.13 246.73 776.39 226.04 771.56 200.13Z" />
			<g id="&lt;Group&gt;">
				<path id="&lt;Path&gt;" class="shp1" d="M746.8 139.57C746.64 147.53 748.82 152.66 753.33 154.95L753.33 137.56L746.8 139.57Z" />
				<g id="&lt;Group&gt;">
					<path id="&lt;Path&gt;" class="shp2" d="M750.78 130.02C749.88 158.19 753.96 173.73 763.03 176.65C776.63 181.04 787.1 166.96 786.83 156.56C786.57 146.17 780.11 129.36 770.88 127.39C764.72 126.07 758.02 126.95 750.78 130.02Z" />
					<path id="&lt;Path&gt;" class="shp1" d="M749.49 123.09C753.44 122.48 757.58 122.27 761.16 120.73C766.87 118.28 777.9 108.88 783.71 115.5C784.95 116.91 785.66 118.7 786.34 120.44C787.97 124.61 789.6 128.88 790.15 133.35C790.67 137.55 787.1 151.41 786.24 155.47C784.64 157.64 783.27 153.59 780.07 151.89C778.51 151.06 776.73 148.76 775.88 147.23C775.59 146.71 773.81 141.33 774.68 141.17C772.14 141.63 769.82 143.04 767.38 143.85C764.47 144.82 761.46 145.55 758.44 146.1C751.81 147.31 740.64 147.83 737.14 140.55C734.61 135.27 736.32 129.23 741.12 125.93C743.57 124.25 746.47 123.56 749.49 123.09Z" />
					<g id="&lt;Group&gt;">
						<g id="&lt;Group&gt;">
							<path id="&lt;Path&gt;" class="shp3" d="M768.13 153.96C768.31 155.06 767.85 156.05 767.09 156.17C766.34 156.3 765.59 155.51 765.41 154.41C765.23 153.31 765.69 152.32 766.44 152.2C767.19 152.08 767.95 152.87 768.13 153.96Z" />
							<path id="&lt;Path&gt;" class="shp3" d="M757.22 155.75C757.4 156.85 756.94 157.84 756.19 157.96C755.44 158.08 754.68 157.29 754.5 156.2C754.32 155.1 754.78 154.11 755.54 153.99C756.29 153.86 757.04 154.65 757.22 155.75Z" />
							<path id="&lt;Path&gt;" class="shp4" d="M763.13 166.45C766.74 167.32 769.55 165.74 771.56 161.73" />
							<path id="&lt;Path&gt;" class="shp4" d="M758.32 155.97C759.72 158.61 760.12 160.36 759.52 161.23C758.62 162.53 759.22 164.16 761.33 164.15" />
						</g>
						<g id="&lt;Group&gt;">
							<path id="&lt;Path&gt;" class="shp4" d="M752.97 152.19C753.85 150.37 755.03 150.11 756.49 151.41" />
							<path id="&lt;Path&gt;" class="shp4" d="M763.82 149.78C764.71 147.96 765.88 147.7 767.35 149" />
						</g>
					</g>
				</g>
				<g id="&lt;Group&gt;">
					<g id="&lt;Group&gt;">
						<g id="&lt;Group&gt;">
							<path id="&lt;Path&gt;" class="shp2" d="M815.16 193.7C804.32 188.01 794.26 173.51 784.98 150.2L772.58 170.49C772.7 171.36 772.85 172.49 773.05 173.88C773.46 176.94 774.11 181.65 774.82 186.48C775.55 191.67 776.36 196.99 776.99 200.55C778.59 209.78 821.36 196.96 815.16 193.7Z" />
							<path id="&lt;Path&gt;" class="shp0" d="M775.52 191.32L802.21 181.53C825.87 185.76 842.09 203.22 850.87 233.93C859.65 264.64 856.62 301.95 841.76 345.85L761.32 343.23C761.81 302.07 760.3 267.99 756.81 241C754.69 224.71 760.93 208.15 775.52 191.32Z" />
						</g>
						<g id="&lt;Group&gt;">
							<g id="&lt;Group&gt;">
								<path id="&lt;Path&gt;" class="shp5" d="M733.02 312.72L789.19 297.55L716.66 278.32L666.06 291.82L733.02 312.72Z" />
							</g>
							<g id="&lt;Group&gt;">
								<path id="&lt;Path&gt;" class="shp6" d="M724.27 239.14L733.02 313.49L666.06 291.82L660.13 223.26L724.27 239.14Z" />
							</g>
						</g>
					</g>
					<g id="&lt;Group&gt;">
						<g id="&lt;Group&gt;">
							<path id="&lt;Path&gt;" class="shp7" d="M849.46 283.99C846.32 293.33 841.9 302.21 836.74 309.95C829.87 320.25 821.05 328.57 808.84 331.94C801.21 334.04 793.03 334.02 785.4 331.97C777.44 329.83 769.35 327.94 761.38 325.69C746.9 321.6 732.77 316.15 719.46 309.11C719.05 308.88 718.64 308.66 718.22 308.43C714.95 306.68 711.77 304.85 708.69 302.95L714.03 292.87C714.4 293.05 714.93 293.27 715.61 293.54C716.22 293.79 716.97 294.1 717.91 294.46C718.98 294.87 720.25 295.33 721.7 295.82C728.25 298.05 738.38 300.82 749.23 301.31C757.8 301.72 766.82 300.7 774.96 296.92C787.86 290.91 797.18 277.98 799.76 264.1C802.38 249.96 797.44 237.89 793.77 224.65C792.05 218.45 791.21 211.8 792.94 205.6C794.87 198.7 800.81 191.92 808.47 192.16C816.77 192.43 823.91 198.97 829.85 204.09C838.37 211.42 845.42 220.57 849.74 230.98C856.81 248 855.23 266.81 849.46 283.99Z" />
						</g>
					</g>
					<path id="&lt;Path&gt;" class="shp2" d="M714.03 292.87C711.77 286 709.65 282.1 707.66 281.18C704.69 279.79 699.73 274.44 699.53 276.22C699.34 278 700.92 283.2 704.89 284.37C694.37 282.77 687.58 281.18 684.51 279.59C679.9 277.21 679.8 292.08 684.51 294.86C687.65 296.71 695.71 299.4 708.69 302.95L714.03 292.87Z" />
				</g>
				<path id="&lt;Path&gt;" class="shp2" d="M775.41 151.99C776.4 154.73 779.43 156.14 782.16 155.15C784.9 154.16 786.32 151.14 785.33 148.4C784.34 145.67 781.32 144.25 778.58 145.24C775.84 146.23 774.42 149.25 775.41 151.99Z" />
			</g>
		</g>
		<g id="&lt;Group&gt;">
			<g id="&lt;Group&gt;">
				<g id="&lt;Group&gt;">
					<path id="&lt;Path&gt;" class="shp6" d="M165.66 121.72C207.41 99.25 230.82 129.84 235.9 213.49C249.89 169.69 264.35 158.99 279.27 181.37C293.09 202.13 286.21 235.21 278.94 257.47C284.84 247.89 294.09 239.34 308.09 240.82C328.14 242.94 322.02 268.79 289.7 318.38L280.65 332.87L263.59 332.62C204.4 332.91 179.35 324.05 188.44 306.05C194.77 293.49 206.98 290.34 218.22 290.57C195.58 284.63 164.04 272.48 154.09 249.61C143.36 224.95 157.73 216.4 197.22 223.97C134.67 178.72 124.15 144.63 165.66 121.72Z" />
				</g>
				<g id="&lt;Group&gt;">
					<g id="&lt;Group&gt;">
						<path id="&lt;Path&gt;" class="shp8" d="M284.6 336.78C285.17 337.14 285.92 337.14 286.51 336.72C287.27 336.17 287.45 335.1 286.9 334.33C261.08 298.39 181.89 141.15 181.1 139.56C180.67 138.73 179.64 138.38 178.79 138.8C177.95 139.23 177.61 140.26 178.03 141.1C178.83 142.69 258.14 300.18 284.11 336.33C284.25 336.52 284.41 336.66 284.6 336.78Z" />
					</g>
				</g>
				<g id="&lt;Group&gt;">
					<g id="&lt;Group&gt;">
						<path id="&lt;Path&gt;" class="shp8" d="M178.56 257C178.73 257.11 178.92 257.18 179.13 257.23L246.4 270.88C247.23 271.05 248.06 270.58 248.35 269.78L269.75 210.63C270.07 209.74 269.59 208.75 268.72 208.43C267.83 208.11 266.85 208.57 266.53 209.47L245.63 267.22L179.81 253.87C178.88 253.68 177.98 254.28 177.79 255.21C177.64 255.93 177.97 256.63 178.56 257Z" />
					</g>
				</g>
				<g id="&lt;Group&gt;">
					<g id="&lt;Group&gt;">
						<path id="&lt;Path&gt;" class="shp8" d="M211.28 307.95C211.52 308.1 211.8 308.19 212.1 308.21L269.11 311.01C269.75 311.04 270.35 310.71 270.68 310.16L298.34 262.32C298.81 261.5 298.52 260.39 297.71 259.98C296.89 259.5 295.84 259.78 295.37 260.6L268.23 307.54L212.27 304.79C211.33 304.74 210.52 305.47 210.48 306.41C210.45 307.05 210.77 307.63 211.28 307.95Z" />
					</g>
				</g>
			</g>
			<g id="&lt;Group&gt;">
				<g id="&lt;Group&gt;">
					<path id="&lt;Path&gt;" class="shp6" d="M426.08 162.51C455.99 174.48 450.25 200.02 408.85 239.14C437.79 227.34 449.67 230.21 444.5 247.74C439.71 264 419.46 274.84 404.68 280.75C412.25 279.65 420.74 280.74 426.07 288.68C433.71 300.07 417.56 308.14 377.62 312.91L366.12 314.51L358.81 305.51C332.86 274.77 326.55 257.85 339.9 254.74C349.22 252.57 356.17 257.56 360.96 263.52C354.19 249.12 346.77 227.39 354.35 212.23C362.54 195.88 373.26 199.65 386.52 223.54C382.85 171.2 396.03 150.85 426.08 162.51Z" />
				</g>
				<g id="&lt;Group&gt;">
					<path id="&lt;Path&gt;" class="shp8" d="M365.8 318.27C365.86 318.72 366.19 319.12 366.66 319.24C367.29 319.4 367.92 319.02 368.08 318.4C375.56 289.28 423.02 179.44 423.5 178.34C423.75 177.75 423.49 177.06 422.9 176.8C422.31 176.55 421.62 176.82 421.36 177.41C420.88 178.52 373.35 288.52 365.83 317.82C365.79 317.97 365.78 318.12 365.8 318.27Z" />
				</g>
				<g id="&lt;Group&gt;">
					<path id="&lt;Path&gt;" class="shp8" d="M361.17 228.21C361.19 228.34 361.23 228.48 361.3 228.6L383.51 269.63C383.78 270.13 384.39 270.36 384.93 270.16L425.1 255.54C425.7 255.32 426.01 254.64 425.79 254.04C425.57 253.44 424.91 253.13 424.3 253.35L385.08 267.63L363.35 227.49C363.04 226.93 362.34 226.72 361.77 227.02C361.33 227.26 361.11 227.74 361.17 228.21Z" />
				</g>
				<g id="&lt;Group&gt;">
					<path id="&lt;Path&gt;" class="shp8" d="M348.87 267.48C348.9 267.67 348.97 267.86 349.1 268.02L372.48 298.96C372.75 299.31 373.18 299.48 373.61 299.41L410.61 292.98C411.25 292.87 411.7 292.23 411.56 291.63C411.45 290.99 410.85 290.57 410.21 290.68L373.91 296.99L350.95 266.62C350.57 266.1 349.84 266 349.32 266.39C348.97 266.65 348.81 267.07 348.87 267.48Z" />
				</g>
			</g>
			<g id="&lt;Group&gt;">
				<g id="&lt;Group&gt;">
					<g id="&lt;Group&gt;">
						<path id="&lt;Path&gt;" class="shp9" d="M456.87 420.97C457.85 421.11 458.84 420.58 459.24 419.62C485.21 357.5 495.93 292.03 491.08 225.05C490.99 223.82 489.92 222.9 488.69 222.98C487.47 223.07 486.54 224.14 486.63 225.37C491.42 291.65 480.82 356.43 455.12 417.9C454.64 419.04 455.18 420.34 456.32 420.82C456.5 420.9 456.69 420.95 456.87 420.97Z" />
					</g>
					<g id="&lt;Group&gt;">
						<g id="&lt;Group&gt;">
							<path id="&lt;Path&gt;" class="shp9" d="M458.66 414.04C440.72 409.76 428.89 380.96 433.38 379.08C436.06 377.95 464.56 397.07 459.57 411.97L458.66 414.04Z" />
						</g>
						<g id="&lt;Group&gt;">
							<path id="&lt;Path&gt;" class="shp9" d="M468.49 385.44C450.57 382.31 439.82 354.62 443.87 352.66C446.43 351.43 472.93 369.04 469.23 383.32L468.49 385.44Z" />
						</g>
						<g id="&lt;Group&gt;">
							<path id="&lt;Path&gt;" class="shp9" d="M477.82 355.12C460.11 352.18 450.32 326.47 454.06 324.37C456.4 323.05 481.04 339.53 478.38 352.95L477.82 355.12Z" />
						</g>
						<g id="&lt;Group&gt;">
							<path id="&lt;Path&gt;" class="shp9" d="M483.49 324.83C466.13 323.09 457.45 298.07 460.75 295.96C462.95 294.56 485.44 310.12 483.87 322.63L483.49 324.83Z" />
						</g>
						<g id="&lt;Group&gt;">
							<path id="&lt;Path&gt;" class="shp9" d="M487.06 293.28C470.48 292.58 462.75 268.05 465.52 266.12C467.43 264.79 487.85 279.28 487.27 291.05L487.06 293.28Z" />
						</g>
						<g id="&lt;Group&gt;">
							<path id="&lt;Path&gt;" class="shp9" d="M488.52 261C472.79 261.54 465.97 237.22 468.3 235.39C470.02 234.05 488.3 248.19 488.55 258.76L488.52 261Z" />
						</g>
						<g id="&lt;Group&gt;">
							<path id="&lt;Path&gt;" class="shp9" d="M489.79 230.37C474.88 225.37 479.41 200.98 482.4 200.14C484.61 199.52 500.06 217.93 491.08 228.74L489.79 230.37Z" />
						</g>
						<g id="&lt;Group&gt;">
							<path id="&lt;Path&gt;" class="shp9" d="M459.3 415.38C477.69 424 506.08 405.71 503.52 401.69C502.14 399.54 467.13 398.86 460.17 413.25L459.3 415.38Z" />
						</g>
						<g id="&lt;Group&gt;">
							<path id="&lt;Path&gt;" class="shp9" d="M469.5 386.97C487.95 394.62 511.75 373.68 509.02 370.06C507.46 368 475.51 370.79 470.19 384.81L469.5 386.97Z" />
						</g>
						<g id="&lt;Group&gt;">
							<path id="&lt;Path&gt;" class="shp9" d="M479.31 356.15C497.48 363.52 516.6 339.37 513.92 336.34C512.23 334.43 483.7 340.58 479.82 353.94L479.31 356.15Z" />
						</g>
						<g id="&lt;Group&gt;">
							<path id="&lt;Path&gt;" class="shp9" d="M484.6 325.17C502.85 330.41 516.89 305.5 514.09 302.82C512.31 301.12 487.4 310.32 484.94 322.94L484.6 325.17Z" />
						</g>
						<g id="&lt;Group&gt;">
							<path id="&lt;Path&gt;" class="shp9" d="M489.06 293.04C506.83 297.17 515.98 270.76 513.24 268.5C511.3 266.9 490.43 279.25 489.21 290.78L489.06 293.04Z" />
						</g>
						<g id="&lt;Group&gt;">
							<path id="&lt;Path&gt;" class="shp9" d="M490.45 261.39C507.53 264.31 511.59 236.67 509.14 235.02C507.33 233.8 490.61 248.6 490.42 259.12L490.45 261.39Z" />
						</g>
					</g>
				</g>
			</g>
		</g>
		<g id="&lt;Group&gt;">
			<g id="&lt;Group&gt;">
				<path id="&lt;Path&gt;" class="shp10" d="M451.9 677.85L928.84 573.3L387.11 595.92L394.82 646.43L451.9 677.85Z" />
				<path id="&lt;Path&gt;" class="shp11" d="M463.49 486.81L463.49 581.03L425.25 554.44L420.79 486.81L463.49 486.81Z" />
				<path id="&lt;Path&gt;" class="shp12" d="M822.64 538.81L834.72 569.94L841.17 574.24L848.99 606.73L974.05 655.41L993.46 641.86L985.6 621.59L975 615.94L939.26 556.11L888.12 557.18L874.88 523.02L839.48 520.55L822.64 538.81Z" />
				<path id="&lt;Path&gt;" class="shp13" d="M953.46 631.98L513.16 768.1L499.63 751.81L950.39 621.69C953.17 620.88 956.09 622.43 956.99 625.19C957.91 628.04 956.33 631.1 953.46 631.98Z" />
				<path id="&lt;Path&gt;" class="shp13" d="M929.77 591.54L481.72 703.38L475.93 685.22L926.69 581.25C929.48 580.44 932.4 581.99 933.29 584.75C934.22 587.6 932.63 590.66 929.77 591.54Z" />
				<path id="&lt;Path&gt;" class="shp12" d="M419.9 500.18L419.9 605.36L510.97 646.43C516.78 606.05 513.91 572.03 502.35 544.37L438.36 528.32L438.36 500.18L419.9 500.18Z" />
				<path id="&lt;Path&gt;" class="shp11" d="M855.84 448.06L855.84 540.28L939.26 556.11C941.97 534.16 938.26 511.06 928.13 486.81L872.03 472.74L872.03 448.06L855.84 448.06Z" />
				<path id="&lt;Path&gt;" class="shp14" d="M502.35 544.37L928.13 486.81C943.05 490.13 946.76 513.23 939.26 556.11L510.97 646.43C516.34 602.83 513.47 568.81 502.35 544.37Z" />
				<path id="&lt;Path&gt;" class="shp12" d="M513.16 764.06L513.16 794.07L481.43 801.82L354.32 677.86L350.99 631.11L344.84 622.36L344.84 566.63L375.61 561.19L419.9 582.03L419.9 632.59L477.74 668.39L502.35 751.52L513.16 764.06Z" />
				<path id="&lt;Path&gt;" class="shp12" d="M512.17 587.98L942.2 520.55L940.81 501.5C939.97 490.12 929.7 481.82 918.4 483.38L493.68 542.2L512.17 587.98Z" />
				<path id="&lt;Path&gt;" class="shp15" d="M284.66 521.27L251.2 521.05C220.14 523.8 193.34 500.27 193.34 470.25L193.34 352.79C193.34 323.33 226.82 297.91 257.37 299.8L883.17 341.09C910.97 342.81 932.64 364.94 932.78 391.74L932.89 414.01C933.03 440.48 312.05 518.85 284.66 521.27Z" />
				<path id="&lt;Path&gt;" class="shp13" d="M943.24 414.01C943.37 440.48 923.25 462.64 896.9 465.06L328.68 517.24L287.3 521.05C257.42 523.8 231.62 500.27 231.62 470.25L231.62 352.79C231.62 323.33 256.51 299.99 285.92 301.89L327.32 304.55L470.43 313.76L895.4 341.09C901.99 341.51 908.21 343.18 913.86 345.85C931.17 353.99 943.02 371.54 943.13 391.73L943.24 414.01Z" />
				<path id="&lt;Path&gt;" class="shp12" d="M924.85 394.61L909.73 429.75L478.61 448.06C482.55 406.94 479.68 373.68 475.75 350.58C474.03 340.38 472.1 332.16 470.47 326.13C469.04 320.88 467.79 316.87 466.71 314.09L470.43 313.76L895.4 341.09C901.99 341.51 908.21 343.18 913.86 345.85L917.87 353.77L924.85 394.61Z" />
				<path id="&lt;Path&gt;" class="shp16" d="M886.31 361.91L475.75 350.58C474.03 340.38 472.1 332.16 470.47 326.13L887.03 345.62C888.49 345.69 889.89 346.09 891.11 346.77C892.33 347.45 893.38 348.4 894.13 349.57C897.71 355.09 893.27 362.1 886.31 361.91Z" />
				<path id="&lt;Path&gt;" class="shp16" d="M890.43 398.55L479.75 404.63C477.6 394.51 475.32 386.38 473.44 380.42L890.45 382.25C891.91 382.25 893.33 382.6 894.58 383.22C895.83 383.85 896.91 384.75 897.71 385.89C901.53 391.25 897.39 398.45 890.43 398.55Z" />
				<path id="&lt;Path&gt;" class="shp12" d="M475.93 503.73L513.16 500.18L523.38 460.31L511.36 449.51L483.8 444.56L469.66 454.1L475.93 503.73Z" />
				<path id="&lt;Path&gt;" class="shp13" d="M972.06 422.75L972.06 433.65L961.48 444.55L961.48 460.31L912.42 463.79L900.02 464.67L896.72 422.73C896.72 406.01 892.5 389.59 884.46 374.95L877.42 362.11L868.82 339.03L881.58 339.81L946.26 343.77L959.32 369.53C967.7 386.01 972.06 404.25 972.06 422.75Z" />
				<path id="&lt;Path&gt;" class="shp12" d="M972.06 422.75L972.06 433.65L961.48 444.55L961.48 460.31L912.42 463.79L909.18 422.71C909.18 406.03 904.96 389.59 896.92 374.93L889.86 362.11L881.58 339.81L946.26 343.77L959.32 369.53C967.7 386.01 972.06 404.25 972.06 422.75Z" />
				<path id="&lt;Path&gt;" class="shp12" d="M483.8 444.56L896.72 422.72C920.51 432.89 932.57 446.1 932.89 462.34L513.16 500.18C510.42 467.19 500.64 448.65 483.8 444.56Z" />
				<path id="&lt;Path&gt;" class="shp13" d="M466.53 313.5L466.72 314.09C484.37 369.18 486.91 428 474.06 484.41L469.66 503.73" />
				<path id="&lt;Path&gt;" class="shp12" d="M328.68 517.24L287.3 521.05C257.42 523.8 231.62 500.27 231.62 470.25L231.62 352.79C231.62 323.33 256.51 299.99 285.92 301.89L327.32 304.55L328.68 306.66C348.15 382.61 348.15 452.81 328.68 517.24Z" />
				<g id="&lt;Group&gt;">
					<path id="&lt;Path&gt;" class="shp17" d="M420.93 422.72L379.15 422.72C368.11 422.72 358.91 414.25 358.01 403.25L354.4 359.26C353.35 346.52 363.74 335.75 376.51 336.34L417 338.2C427.38 338.68 435.89 346.61 437.09 356.93L442 399.06C443.46 411.66 433.61 422.72 420.93 422.72Z" />
					<path id="&lt;Path&gt;" class="shp15" d="M430.69 422.72L388.91 422.72C377.87 422.72 368.67 414.25 367.77 403.25L364.16 359.26C363.11 346.52 373.5 335.75 386.27 336.34L426.76 338.2C437.14 338.68 445.65 346.61 446.85 356.93L451.76 399.06C453.22 411.66 443.37 422.72 430.69 422.72Z" />
				</g>
				<g id="&lt;Group&gt;">
					<path id="&lt;Path&gt;" class="shp18" d="M430.31 374.45L388.93 373.48C384.16 373.37 380.14 369.91 379.32 365.21L378.19 358.73C377.1 352.45 382.09 346.77 388.45 347.04L429.51 348.79C433.9 348.97 437.66 352.02 438.76 356.28L440.22 361.99C441.87 368.4 436.93 374.61 430.31 374.45Z" />
					<path id="&lt;Path&gt;" class="shp18" d="M407.01 416.43L392.07 416.08C391.14 416.06 390.42 415.27 390.34 414.19L389.97 409.23C389.87 407.78 390.94 406.47 392.17 406.53L406.82 407.2C407.67 407.24 408.35 407.94 408.49 408.92L409.15 413.56C409.37 415.03 408.3 416.46 407.01 416.43Z" />
					<g id="&lt;Group&gt;">
						<path id="&lt;Path&gt;" class="shp18" d="M394.82 385.44C394.82 387.57 393.1 389.29 390.97 389.29C388.84 389.29 387.11 387.57 387.11 385.44C387.11 383.31 388.84 381.58 390.97 381.58C393.1 381.58 394.82 383.31 394.82 385.44Z" />
						<path id="&lt;Path&gt;" class="shp18" d="M410.06 385.44C410.06 387.57 408.34 389.29 406.21 389.29C404.08 389.29 402.35 387.57 402.35 385.44C402.35 383.31 404.08 381.58 406.21 381.58C408.34 381.58 410.06 383.31 410.06 385.44Z" />
						<path id="&lt;Path&gt;" class="shp18" d="M425.3 385.44C425.3 387.57 423.57 389.29 421.45 389.29C419.32 389.29 417.59 387.57 417.59 385.44C417.59 383.31 419.32 381.58 421.45 381.58C423.57 381.58 425.3 383.31 425.3 385.44Z" />
						<path id="&lt;Path&gt;" class="shp18" d="M440.54 385.44C440.54 387.57 438.81 389.29 436.68 389.29C434.55 389.29 432.83 387.57 432.83 385.44C432.83 383.31 434.55 381.58 436.68 381.58C438.81 381.58 440.54 383.31 440.54 385.44Z" />
					</g>
					<g id="&lt;Group&gt;">
						<path id="&lt;Path&gt;" class="shp18" d="M394.82 398.47C394.82 400.6 393.1 402.32 390.97 402.32C388.84 402.32 387.11 400.6 387.11 398.47C387.11 396.34 388.84 394.61 390.97 394.61C393.1 394.61 394.82 396.34 394.82 398.47Z" />
						<path id="&lt;Path&gt;" class="shp18" d="M410.06 398.47C410.06 400.6 408.34 402.32 406.21 402.32C404.08 402.32 402.35 400.6 402.35 398.47C402.35 396.34 404.08 394.61 406.21 394.61C408.34 394.61 410.06 396.34 410.06 398.47Z" />
						<path id="&lt;Path&gt;" class="shp18" d="M425.3 398.47C425.3 400.6 423.57 402.32 421.45 402.32C419.32 402.32 417.59 400.6 417.59 398.47C417.59 396.34 419.32 394.61 421.45 394.61C423.57 394.61 425.3 396.34 425.3 398.47Z" />
						<path id="&lt;Path&gt;" class="shp18" d="M440.54 398.47C440.54 400.6 438.81 402.32 436.68 402.32C434.55 402.32 432.83 400.6 432.83 398.47C432.83 396.34 434.55 394.61 436.68 394.61C438.81 394.61 440.54 396.34 440.54 398.47Z" />
					</g>
				</g>
				<g id="&lt;Group&gt;">
					<path id="&lt;Path&gt;" class="shp18" d="M409.62 459.89C409.62 466.18 404.52 471.27 398.23 471.27C391.95 471.27 386.85 466.18 386.85 459.89C386.85 453.61 391.95 448.51 398.23 448.51C404.52 448.51 409.62 453.61 409.62 459.89Z" />
					<path id="&lt;Path&gt;" class="shp18" d="M443.02 459.89C443.02 464.2 439.53 467.7 435.22 467.7C430.9 467.7 427.41 464.2 427.41 459.89C427.41 455.58 430.9 452.09 435.22 452.09C439.53 452.09 443.02 455.58 443.02 459.89Z" />
				</g>
			</g>
			<g id="&lt;Group&gt;">
				<g id="&lt;Group&gt;">
					<path id="&lt;Path&gt;" class="shp19" d="M1298.84 732.87L945.04 874.41C944.06 871.43 942.96 868.13 941.7 864.55C941.5 863.97 941.3 863.37 941.06 862.77C940.2 860.33 939.28 857.81 938.28 855.21C938.04 854.55 937.78 853.89 937.52 853.23C937.28 852.57 937.02 851.89 936.76 851.23C936.46 850.49 936.16 849.71 935.84 848.93L935.12 847.07C934.62 845.89 934.14 844.71 933.64 843.51C933.56 843.33 933.5 843.17 933.42 842.99C932.92 841.79 932.4 840.57 931.88 839.35C927.66 829.57 922.76 819.35 917.18 809.61C916.92 809.15 916.64 808.69 916.38 808.23C914.5 805.01 912.56 801.83 910.52 798.75C910.22 798.31 909.92 797.87 909.64 797.43C907.9 794.81 906.08 792.27 904.22 789.81C903.6 789.01 902.96 788.19 902.34 787.41C901.4 786.21 900.42 785.03 899.44 783.89C899.12 783.51 898.8 783.13 898.46 782.75C898.06 782.29 897.64 781.81 897.2 781.35C896.76 780.85 896.32 780.37 895.86 779.89C895.48 779.49 895.1 779.07 894.7 778.67C894.06 778.01 893.42 777.37 892.76 776.73C892.24 776.21 891.7 775.71 891.18 775.23C890.2 774.31 889.2 773.43 888.2 772.59C887.48 771.97 886.76 771.39 886.02 770.81C885.58 770.45 885.1 770.09 884.64 769.77C884.24 769.45 883.82 769.15 883.42 768.87C883.2 768.71 882.98 768.55 882.76 768.41C882.22 768.03 881.7 767.67 881.16 767.33C880.62 766.97 880.08 766.63 879.54 766.31C879.12 766.05 878.68 765.79 878.24 765.55C878.08 765.45 877.9 765.37 877.74 765.27C877.18 764.95 876.62 764.65 876.06 764.37C875.58 764.13 875.12 763.89 874.66 763.69C874.42 763.55 874.18 763.45 873.92 763.33C872.8 762.83 871.68 762.35 870.54 761.95C869.96 761.73 869.4 761.53 868.84 761.35C855.96 757.19 844.54 754.99 834.32 754.35C821.6 753.57 810.72 755.23 801.2 758.67C749.78 777.15 737.62 847.03 686.3 860.69C660.12 867.65 630.58 860.83 603.9 839.17C585.88 824.57 569.16 803.21 555.7 774.75C551.8 766.55 548.18 757.77 544.88 748.37C540.64 736.33 536.92 723.29 533.82 709.27C530.94 696.25 528.58 682.37 526.86 667.61C525.68 657.89 524.8 647.79 524.22 637.31C523.78 629.73 523.5 621.97 523.38 613.99C523 589.85 521.94 568.87 520.38 550.65C520.16 547.99 519.92 545.37 519.66 542.83C511.38 458.31 492.06 437.21 483.8 435.09L724.34 428.05L899.08 422.93C907.99 418.24 915.23 430.96 920.8 461.09C921.24 463.47 921.66 465.99 922.06 468.65C923.7 479.27 925.06 492.31 926 508.29C926.18 511.11 926.32 513.99 926.46 516.99C926.84 525.13 927.12 533.99 927.26 543.61C927.44 554.75 928.04 565.91 929.2 577.01C929.9 583.83 930.82 590.61 931.96 597.37C932.14 598.45 932.34 599.53 932.54 600.61C932.98 603.05 933.44 605.51 933.96 607.97C938.16 628.47 944.86 649.77 955.3 668.49C964.42 684.85 976.38 699.27 992.08 709.45C994.68 711.13 997.3 712.59 999.96 713.85C1037.06 731.47 1079.3 709.29 1118.2 699.91C1118.22 699.91 1118.22 699.89 1118.24 699.89C1124.5 698.39 1130.66 697.19 1136.72 696.57C1182.12 691.85 1221.58 712.07 1264.28 723.57C1265.52 723.91 1266.8 724.27 1268.08 724.65C1272.02 725.81 1276.06 727.11 1280.18 728.37C1280.98 728.61 1281.8 728.85 1282.62 729.09C1283.08 729.23 1283.52 729.37 1283.98 729.49C1284.5 729.65 1285.04 729.79 1285.56 729.93C1287.12 730.39 1288.7 730.81 1290.28 731.19C1290.68 731.27 1291.06 731.37 1291.44 731.45C1292 731.59 1292.56 731.71 1293.1 731.83C1294.16 732.05 1295.22 732.27 1296.3 732.45C1296.66 732.53 1297 732.59 1297.36 732.63C1297.86 732.73 1298.34 732.79 1298.84 732.87Z" />
					<g id="&lt;Group&gt;">
						<path id="&lt;Path&gt;" class="shp13" d="M1297.36 732.64C1297.86 732.72 1298.34 732.79 1298.84 732.87L945.05 874.42C944.07 871.43 942.96 868.12 941.7 864.56C941.5 863.97 941.28 863.38 941.07 862.76C940.2 860.33 939.27 857.81 938.28 855.21C938.04 854.56 937.78 853.9 937.53 853.23C937.27 852.57 937.02 851.9 936.75 851.24C936.46 850.49 936.15 849.71 935.85 848.93C935.59 848.31 935.35 847.7 935.11 847.08C934.63 845.91 934.13 844.71 933.63 843.5C933.56 843.33 933.49 843.17 933.42 842.99C932.92 841.78 932.4 840.57 931.88 839.35C927.67 829.57 922.77 819.35 917.18 809.62C916.91 809.16 916.65 808.69 916.38 808.23C914.51 805.01 912.55 801.83 910.51 798.75C910.23 798.3 909.94 797.87 909.64 797.43C907.89 794.82 906.07 792.27 904.22 789.82C903.59 789 902.97 788.19 902.33 787.4C901.39 786.2 900.42 785.03 899.44 783.89C899.13 783.51 898.8 783.12 898.46 782.76C898.06 782.28 897.64 781.81 897.21 781.34C896.77 780.85 896.31 780.36 895.87 779.89C895.49 779.47 895.09 779.07 894.7 778.67C894.06 778.01 893.41 777.36 892.76 776.72C892.24 776.22 891.71 775.71 891.17 775.22C890.21 774.31 889.21 773.43 888.21 772.59C887.48 771.98 886.76 771.38 886.02 770.81C885.56 770.45 885.1 770.11 884.65 769.76C884.24 769.46 883.83 769.15 883.41 768.87C883.2 768.71 882.98 768.56 882.75 768.4C882.23 768.03 881.69 767.68 881.16 767.32C880.63 766.98 880.09 766.65 879.54 766.32C879.11 766.06 878.68 765.81 878.25 765.55C878.08 765.45 877.9 765.36 877.74 765.27C877.18 764.95 876.62 764.65 876.06 764.37C875.59 764.13 875.13 763.9 874.66 763.68C874.42 763.56 874.16 763.44 873.92 763.34C872.8 762.83 871.68 762.36 870.54 761.95C869.98 761.74 869.4 761.54 868.83 761.35C855.95 757.19 844.54 754.99 834.31 754.36C905.51 744.8 1059.18 709.86 1118.21 699.91C1118.22 699.91 1118.22 699.9 1118.23 699.9C1124.49 698.38 1130.67 697.2 1136.72 696.58C1182.12 691.86 1221.58 712.07 1264.28 723.56C1265.53 723.91 1266.8 724.26 1268.09 724.65C1272.02 725.8 1276.06 727.11 1280.19 728.36C1281 728.62 1281.81 728.86 1282.63 729.1C1283.07 729.24 1283.52 729.37 1283.98 729.49C1284.5 729.65 1285.03 729.8 1285.56 729.94C1287.12 730.38 1288.7 730.8 1290.28 731.19C1290.67 731.27 1291.06 731.38 1291.45 731.45C1292.01 731.59 1292.55 731.71 1293.1 731.82C1294.16 732.05 1295.23 732.27 1296.29 732.46C1296.65 732.52 1297.01 732.58 1297.36 732.64Z" />
					</g>
				</g>
				<g id="&lt;Group&gt;">
					<path id="&lt;Path&gt;" class="shp20" d="M999.96 713.85C946.34 730.51 888.66 735.41 833.42 747.67C785.14 758.41 738.18 774.97 693.86 796.91C664.14 811.63 635.26 828.89 603.9 839.17C585.88 824.57 569.16 803.21 555.7 774.75C591.46 775.03 627.54 768.25 662.42 759.43C761.54 734.39 856.16 693.13 955.3 668.49C964.42 684.85 976.38 699.27 992.08 709.45C994.68 711.13 997.3 712.59 999.96 713.85Z" />
					<path id="&lt;Path&gt;" class="shp20" d="M922.06 468.65C917.18 470.43 912.26 472.09 907.34 473.73C808.28 506.47 704.96 527.75 610.36 571.75C577.22 587.15 543.68 607.09 524.22 637.31C523.78 629.73 523.5 621.97 523.38 613.99C523 589.85 521.94 568.87 520.38 550.65C520.16 547.99 519.92 545.37 519.66 542.83C553.62 515.27 592.02 492.49 630.82 472.09C661.24 456.09 692.46 441.19 724.34 428.05L899.08 422.93C907.99 418.24 915.23 430.96 920.8 461.09C921.24 463.47 921.66 465.99 922.06 468.65Z" />
					<path id="&lt;Path&gt;" class="shp20" d="M932.54 600.61C858.36 651.43 776 689.93 691.56 721.23C645.38 738.35 596.74 753.63 547.74 748.71C546.78 748.61 545.84 748.51 544.88 748.37C540.64 736.33 536.92 723.29 533.82 709.27C530.94 696.25 528.58 682.37 526.86 667.61C542.32 674.15 560.88 670.81 577.46 666.25C700.68 632.39 804.54 547.25 926 508.29C926.18 511.11 926.32 513.99 926.46 516.99C926.84 525.13 927.12 533.99 927.26 543.61C927.44 554.75 928.04 565.91 929.2 577.01C929.9 583.83 930.82 590.61 931.96 597.37C932.14 598.45 932.34 599.53 932.54 600.61Z" />
				</g>
			</g>
		</g>
		<g id="&lt;Group&gt;">
			<g id="&lt;Group&gt;">
				<g id="&lt;Group&gt;">
					<path id="&lt;Path&gt;" class="shp21" d="M998.63 677.24C1005.03 628.01 1032.82 603.24 1081.99 602.94C1086.75 662 1058.97 686.76 998.63 677.24Z" />
				</g>
				<g id="&lt;Group&gt;">
					<path id="&lt;Path&gt;" class="shp8" d="M998.65 678.57C998.39 678.58 998.12 678.5 997.88 678.34C997.27 677.93 997.12 677.1 997.52 676.5C999.06 674.23 1035.59 620.85 1074.93 610.07C1075.65 609.88 1076.37 610.29 1076.56 611C1076.76 611.71 1076.34 612.44 1075.64 612.63C1037.24 623.16 1000.1 677.44 999.73 677.99C999.47 678.36 999.07 678.56 998.65 678.57Z" />
				</g>
				<g id="&lt;Group&gt;">
					<path id="&lt;Path&gt;" class="shp8" d="M1071.09 633.17C1071.03 633.17 1070.96 633.16 1070.9 633.16L1043.67 629.7C1043.29 629.65 1042.94 629.44 1042.73 629.11C1042.52 628.78 1042.46 628.38 1042.57 628L1046.72 613.94C1046.93 613.24 1047.68 612.84 1048.37 613.05C1049.08 613.25 1049.48 613.99 1049.27 614.7L1045.56 627.26L1071.24 630.52C1071.96 630.61 1072.48 631.28 1072.39 632.01C1072.3 632.67 1071.74 633.16 1071.09 633.17Z" />
				</g>
				<g id="&lt;Group&gt;">
					<path id="&lt;Path&gt;" class="shp8" d="M1053.76 656.23C1053.73 656.23 1053.69 656.24 1053.65 656.23L1018.32 653.8C1017.92 653.77 1017.57 653.57 1017.33 653.25C1017.1 652.93 1017.02 652.54 1017.12 652.16L1021.97 632.38C1022.14 631.67 1022.85 631.22 1023.58 631.41C1024.29 631.58 1024.72 632.3 1024.55 633.01L1020.08 651.25L1053.83 653.58C1054.56 653.63 1055.12 654.26 1055.06 655C1055.02 655.69 1054.44 656.22 1053.76 656.23Z" />
				</g>
			</g>
			<g id="&lt;Group&gt;">
				<g id="&lt;Group&gt;">
					<path id="&lt;Path&gt;" class="shp21" d="M1419.08 758.3C1407.06 721.83 1382.34 707.05 1344.94 713.97C1349.91 759.53 1374.62 774.31 1419.08 758.3Z" />
				</g>
				<g id="&lt;Group&gt;">
					<path id="&lt;Path&gt;" class="shp8" d="M1419.26 759.32C1419.46 759.28 1419.65 759.19 1419.81 759.03C1420.21 758.63 1420.21 757.98 1419.81 757.58C1418.31 756.08 1382.8 720.83 1351.34 718.36C1350.77 718.32 1350.28 718.74 1350.24 719.3C1350.19 719.87 1350.61 720.36 1351.18 720.41C1381.88 722.82 1417.99 758.67 1418.35 759.03C1418.6 759.28 1418.94 759.37 1419.26 759.32Z" />
				</g>
				<g id="&lt;Group&gt;">
					<path id="&lt;Path&gt;" class="shp8" d="M1357.62 735.35C1357.66 735.34 1357.71 735.33 1357.76 735.31L1377.94 728.73C1378.23 728.64 1378.46 728.42 1378.58 728.14C1378.69 727.87 1378.68 727.55 1378.54 727.28L1373.34 717.2C1373.08 716.7 1372.45 716.51 1371.95 716.76C1371.45 717.02 1371.25 717.64 1371.51 718.14L1376.16 727.15L1357.12 733.36C1356.58 733.54 1356.29 734.12 1356.46 734.66C1356.62 735.15 1357.12 735.44 1357.62 735.35Z" />
				</g>
				<g id="&lt;Group&gt;">
					<path id="&lt;Path&gt;" class="shp8" d="M1374.13 750.36C1374.16 750.35 1374.19 750.35 1374.22 750.34L1400.71 743.35C1401.01 743.27 1401.25 743.07 1401.38 742.8C1401.51 742.52 1401.51 742.21 1401.39 741.93L1394.83 727.61C1394.59 727.09 1393.99 726.86 1393.46 727.11C1392.95 727.34 1392.72 727.95 1392.96 728.47L1399.01 741.67L1373.7 748.35C1373.15 748.49 1372.82 749.06 1372.97 749.61C1373.1 750.12 1373.62 750.45 1374.13 750.36Z" />
				</g>
			</g>
		</g>
		<g id="&lt;Group&gt;">
			<g id="&lt;Group&gt;">
				<path id="&lt;Path&gt;" class="shp22" d="M1344.94 609.39L1140.43 631.75L1110.51 610.68L1300.57 593.59L1344.94 609.39Z" />
				<path id="&lt;Path&gt;" class="shp19" d="M1110.51 610.68L1110.51 622.98L1140.43 644.05L1140.43 631.75L1110.51 610.68Z" />
				<path id="&lt;Path&gt;" class="shp23" d="M1344.94 609.39L1344.94 621.68L1140.43 644.05L1140.43 631.75L1344.94 609.39Z" />
			</g>
			<g id="&lt;Group&gt;">
				<path id="&lt;Path&gt;" class="shp13" d="M1344.94 611L1140.43 633.37L1110.51 612.29L1300.57 595.21L1344.94 611Z" />
				<path id="&lt;Path&gt;" class="shp24" d="M1344.94 598.7L1140.43 621.07L1110.51 599.99L1300.57 582.91L1344.94 598.7Z" />
				<path id="&lt;Path&gt;" class="shp7" d="M1110.51 599.99L1110.51 612.29L1140.43 633.37L1140.43 621.07L1110.51 599.99Z" />
				<path id="&lt;Path&gt;" class="shp25" d="M1344.94 598.7L1344.94 611L1140.43 633.37L1140.43 621.07L1344.94 598.7Z" />
			</g>
			<g id="&lt;Group&gt;">
				<path id="&lt;Path&gt;" class="shp13" d="M1344.94 598.07L1140.43 620.44L1110.51 599.36L1300.57 582.28L1344.94 598.07Z" />
				<path id="&lt;Path&gt;" class="shp26" d="M1344.94 585.77L1140.43 608.14L1110.51 587.06L1300.57 569.98L1344.94 585.77Z" />
				<path id="&lt;Path&gt;" class="shp27" d="M1110.51 587.06L1110.51 599.36L1140.43 620.44L1140.43 608.14L1110.51 587.06Z" />
				<path id="&lt;Path&gt;" class="shp28" d="M1344.94 585.77L1344.94 598.07L1140.43 620.44L1140.43 608.14L1344.94 585.77Z" />
			</g>
			<g id="&lt;Group&gt;">
				<path id="&lt;Path&gt;" class="shp13" d="M1344.94 585.77L1140.43 608.14L1110.51 587.06L1300.57 569.98L1344.94 585.77Z" />
				<path id="&lt;Path&gt;" class="shp29" d="M1344.94 573.47L1140.43 595.84L1110.51 574.76L1300.57 557.68L1344.94 573.47Z" />
				<path id="&lt;Path&gt;" class="shp30" d="M1110.51 574.76L1110.51 587.06L1140.43 608.14L1140.43 595.84L1110.51 574.76Z" />
				<path id="&lt;Path&gt;" class="shp31" d="M1344.94 573.47L1344.94 585.77L1140.43 608.14L1140.43 595.84L1344.94 573.47Z" />
			</g>
		</g>
	</g>
</svg>