<svg width="393" height="226" viewBox="0 0 393 226" fill="none" xmlns="http://www.w3.org/2000/svg">
<g clip-path="url(#clip0)">
<path d="M341.233 193.487C341.233 193.487 316.221 198.895 314.373 199.115C312.525 199.336 309.226 200.117 306.086 200.968C302.947 201.819 279.216 206.916 277.802 206.876C276.388 206.836 273.013 205.674 270.892 205.154C268.77 204.633 263.792 199.536 264 202.25C264.207 204.963 268.082 208.719 268.761 209.94C269.44 211.162 269.081 213.725 272.136 213.665C275.191 213.605 277.142 212.314 280.169 213.245C280.169 213.245 298.657 215.097 301.796 214.366C304.936 213.635 314.722 211.973 319.106 212.714C323.49 213.455 355.63 217.02 362.116 213.595C368.603 210.171 341.233 193.487 341.233 193.487Z" fill="#EDBE00"/>
<g style="mix-blend-mode:multiply" opacity="0.27">
<g style="mix-blend-mode:multiply" opacity="0.27">
<path d="M280.178 213.245C280.009 213.185 279.848 213.145 279.688 213.105C279.86 213.11 280.028 213.158 280.178 213.245Z" fill="#EDBE00"/>
</g>
<g style="mix-blend-mode:multiply" opacity="0.27">
<path d="M284.44 213.635C290.824 213.253 297.166 212.298 303.399 210.781C309.122 209.369 321.312 206.475 329.694 206.626C344.071 206.886 352.736 198.675 352.736 198.675C352.736 198.675 357.337 210.05 359.401 214.436C349.389 216.319 323.047 213.375 319.116 212.714C314.732 211.973 304.974 213.635 301.806 214.366C299.628 214.867 290.097 214.136 284.44 213.635Z" fill="#EDBE00"/>
</g>
</g>
<g style="mix-blend-mode:multiply" opacity="0.27">
<path d="M341.234 193.487L334.889 194.569C334.889 194.569 340.602 211.072 349.153 215.278L356.969 214.767L341.234 193.487Z" fill="#EDBE00"/>
</g>
<path d="M359.298 185.026C359.298 185.026 340.159 173.079 335.473 173.329C330.787 173.58 325.989 178.416 323.311 183.914C320.634 189.412 312.328 207.767 310.527 209.57C308.726 211.372 300.703 212.994 300.458 214.847C300.213 216.7 306.473 215.027 307.651 215.067C311.3 215.187 314.138 216.519 315.043 214.216C316.551 210.411 319.917 207.867 323 205.594C327.092 202.59 334.889 196.762 335.718 187.279C336.548 177.796 342.846 181.02 342.846 181.02L359.298 185.026Z" fill="#FFD647"/>
<path d="M355.357 150.858C352.783 149.857 349.983 151.599 347.937 153.862C346.059 155.964 344.352 158.232 342.836 160.642C341.969 162.024 341.13 163.436 340.31 164.848C340.008 165.358 337.811 168.383 337.99 168.853C336.926 166.574 335.533 164.486 333.861 162.665C331.109 159.212 328.559 155.583 326.224 151.8C325.295 150.309 324.523 148.714 323.924 147.043C323.49 145.301 321.897 140.794 319.37 141.035C316.844 141.275 316.966 144.039 317.965 146.202C318.965 148.365 319.936 148.585 320.502 150.798C322.193 157.942 324.305 164.966 326.828 171.827C329.713 179.298 335.728 185.096 343.789 182.092C350.501 179.598 354.291 172.769 357.223 166.5C358.342 164.34 359.092 161.987 359.439 159.55C359.608 158.329 359.538 157.083 359.235 155.891C358.932 154.699 358.401 153.586 357.676 152.621C357.064 151.825 356.263 151.217 355.357 150.858Z" fill="#D46F40"/>
<path d="M326.828 171.867C326.026 169.795 325.272 167.682 324.556 165.559C327.601 164.936 330.354 163.221 332.353 160.702C332.852 161.353 333.352 161.984 333.861 162.615C335.398 164.487 337.104 166.18 338.019 168.503C337.849 168.072 340.008 165.338 340.31 164.828C341.13 163.416 341.969 162.004 342.836 160.622C344.343 158.214 346.04 155.946 347.909 153.842C349.954 151.599 352.792 149.597 355.366 150.558C356.266 150.914 357.065 151.511 357.685 152.29C359.213 154.143 359.665 157.067 359.411 159.52C359.063 161.957 358.313 164.31 357.195 166.47C354.291 172.739 350.501 179.568 343.789 182.092C335.728 185.096 329.713 179.298 326.828 171.867Z" fill="#99152A"/>
<g opacity="0.4">
<path opacity="0.4" d="M325.979 169.284C328.977 176.664 335.087 182.302 343.091 179.188C349.766 176.584 353.462 169.684 356.29 163.366C357.376 161.179 358.091 158.806 358.402 156.356C358.487 155.39 358.449 154.417 358.289 153.462C359.292 155.273 359.697 157.387 359.439 159.47C359.092 161.907 358.342 164.26 357.223 166.42C354.291 172.739 350.501 179.568 343.789 182.092C335.728 185.096 329.713 179.328 326.818 171.897C326.19 170.235 325.59 168.566 325.018 166.891C325.329 167.652 325.649 168.473 325.979 169.284Z" fill="#99152A"/>
</g>
<path d="M339.103 170.996C338.841 170.089 338.46 169.226 337.972 168.433L338.292 167.762C338.843 168.738 339.124 169.859 339.103 170.996Z" fill="#99152A"/>
<path d="M328.43 187.099C329.6 185.887 340.479 202.77 341.413 204.052C343.811 207.59 346.841 210.591 350.332 212.884C353.979 214.936 358.079 215.908 362.201 215.698H362.588C373.751 216.049 380.501 204.393 380.803 200.778C381.104 197.163 374.599 191.935 374.599 191.935L354.687 182.252L342.582 178.647L338.867 175.913L328.43 187.099Z" fill="#FFD647"/>
<path d="M314.647 145.221L329.552 150.388C329.762 150.468 329.992 150.467 330.2 150.384C330.409 150.302 330.584 150.143 330.693 149.937L331.117 149.166C331.834 147.885 332.23 146.43 332.268 144.94C332.269 144.72 332.205 144.505 332.085 144.325C331.965 144.145 331.795 144.01 331.598 143.939L316.646 138.742L314.647 145.221Z" fill="#72BDB9"/>
<path opacity="0.24" d="M328.713 148.936C328.924 149.015 329.154 149.012 329.363 148.928C329.572 148.843 329.746 148.683 329.854 148.475L330.288 147.704C330.939 146.536 331.323 145.223 331.41 143.869L331.598 143.929C331.795 144 331.965 144.135 332.085 144.315C332.205 144.495 332.269 144.71 332.268 144.93C332.23 146.42 331.834 147.875 331.117 149.156L330.693 149.927C330.584 150.133 330.409 150.292 330.2 150.374C329.992 150.457 329.762 150.458 329.552 150.378L314.647 145.221L314.977 144.159L328.713 148.936Z" fill="#008982"/>
<path d="M316.919 139.162C316.694 141.019 316.154 142.817 315.326 144.469C315.072 144.97 314.671 145.367 314.184 145.601C313.696 145.834 313.15 145.891 312.629 145.761L292.397 140.754L296.385 128.738L315.373 136.438C315.879 136.646 316.305 137.026 316.585 137.519C316.865 138.012 316.983 138.59 316.919 139.162Z" fill="#279593"/>
<g style="mix-blend-mode:multiply" opacity="0.38">
<path d="M311.545 143.638C312.067 143.768 312.615 143.712 313.104 143.479C313.593 143.245 313.996 142.847 314.251 142.346C315.083 140.691 315.626 138.89 315.854 137.029C315.863 136.909 315.863 136.789 315.854 136.669C316.23 136.937 316.528 137.312 316.715 137.75C316.901 138.189 316.969 138.675 316.91 139.152C316.684 141.009 316.144 142.807 315.316 144.459C315.063 144.96 314.662 145.357 314.174 145.591C313.687 145.824 313.14 145.881 312.62 145.751L292.388 140.744L292.953 139.022L311.545 143.638Z" fill="#279593"/>
</g>
<path d="M300.939 132.563C300.621 135.13 299.873 137.615 298.733 139.903C298.382 140.605 297.82 141.162 297.136 141.485C296.453 141.808 295.687 141.879 294.961 141.686L267.601 134.796L272.551 118.113L298.789 128.758C299.498 129.044 300.095 129.574 300.485 130.265C300.875 130.955 301.035 131.764 300.939 132.563Z" fill="#72BDB9"/>
<path opacity="0.24" d="M294.32 138.952C295.135 139.166 295.994 139.085 296.761 138.722C297.527 138.36 298.158 137.736 298.553 136.949C299.528 134.987 300.251 132.896 300.703 130.73C300.933 131.312 301.014 131.947 300.939 132.573C300.621 135.14 299.873 137.625 298.733 139.913C298.382 140.615 297.82 141.172 297.136 141.495C296.453 141.818 295.687 141.889 294.961 141.696L267.601 134.796L268.309 132.413L294.32 138.952Z" fill="#008982"/>
<path d="M268.167 136.518C268.456 136.614 268.76 136.649 269.062 136.62C269.364 136.591 269.657 136.499 269.925 136.349C270.193 136.199 270.43 135.994 270.624 135.747C270.817 135.499 270.963 135.214 271.052 134.906L275.643 119.174C275.734 118.867 275.766 118.544 275.739 118.224C275.711 117.904 275.625 117.592 275.484 117.307C275.343 117.023 275.15 116.77 274.917 116.565C274.684 116.359 274.415 116.205 274.126 116.11C273.837 116.014 273.532 115.98 273.231 116.009C272.929 116.038 272.636 116.13 272.368 116.28C272.1 116.43 271.862 116.634 271.669 116.882C271.475 117.129 271.33 117.415 271.241 117.722L266.649 133.464C266.47 134.083 266.528 134.752 266.813 135.325C267.098 135.898 267.585 136.327 268.167 136.518Z" fill="#72BDB9"/>
<path opacity="0.24" d="M270.402 134.696L274.993 119.004C275.175 118.435 275.153 117.814 274.932 117.26C274.712 116.706 274.307 116.258 273.796 116C273.907 116.018 274.018 116.045 274.126 116.08C274.415 116.175 274.684 116.329 274.917 116.535C275.15 116.74 275.343 116.993 275.484 117.277C275.625 117.562 275.712 117.874 275.739 118.194C275.766 118.514 275.734 118.837 275.643 119.144L271.052 134.906C270.963 135.214 270.817 135.499 270.624 135.747C270.43 135.994 270.193 136.199 269.925 136.349C269.657 136.499 269.364 136.591 269.062 136.62C268.76 136.649 268.456 136.614 268.167 136.518C268.057 136.485 267.949 136.442 267.847 136.388C268.393 136.477 268.951 136.356 269.419 136.045C269.888 135.735 270.237 135.256 270.402 134.696Z" fill="#008982"/>
<path d="M302.004 143.929L301.91 147.283L294.283 147.043L294.631 134.536" stroke="#292929" stroke-width="4.04" stroke-miterlimit="10" stroke-linecap="round"/>
<path d="M295.19 190.378L298.281 190.474L299.468 147.212L296.377 147.116L295.19 190.378Z" fill="#292929"/>
<path d="M291.872 191.815L301.55 192.115L301.592 190.573L291.914 190.274L291.872 191.815Z" fill="#292929"/>
<path d="M292.963 191.545L289.484 214.376" stroke="#292929" stroke-width="4.04" stroke-miterlimit="10" stroke-linecap="square"/>
<path d="M296.592 191.655L296.083 214.577" stroke="#292929" stroke-width="4.04" stroke-miterlimit="10" stroke-linecap="square"/>
<path d="M300.514 191.775L302.73 214.787" stroke="#292929" stroke-width="4.04" stroke-miterlimit="10" stroke-linecap="square"/>
<path d="M352.472 142.647C352.832 144.592 353.743 146.374 355.083 147.754C357.11 149.527 362.786 153.422 366.642 157.568C370.498 161.713 377.72 171.587 380.284 181.521C382.849 191.455 382.792 203.121 378.248 203.892C376.305 204.173 374.326 203.849 372.553 202.96C370.779 202.072 369.286 200.656 368.254 198.885C366.444 195.881 362.918 189.953 360.938 189.542C358.958 189.131 350.567 185.056 350.445 178.527C350.405 174.876 350.188 171.229 349.794 167.602L347.437 156.767L349.445 156.226C349.445 156.226 347.381 151.84 345.344 150.368C343.308 148.896 346.966 144.409 346.966 144.409L348.635 141.035L350.313 138.772L351.953 141.035L352.472 142.647Z" fill="#EA9977"/>
<path d="M348.164 151.039C352.765 148.498 354.164 141.677 351.289 135.803C348.414 129.929 342.354 127.228 337.752 129.768C333.151 132.309 331.751 139.131 334.626 145.004C337.501 150.878 343.562 153.58 348.164 151.039Z" fill="#EA9977"/>
<path d="M336.463 142.967L334.257 144.179C334.257 144.179 336.058 148.185 335.756 149.376C335.454 150.568 338.462 149.276 338.462 149.276L336.463 142.967Z" fill="#EA9977"/>
<g style="mix-blend-mode:multiply" opacity="0.36">
<path d="M343.798 132.423C345.457 133.614 350.256 133.725 351.34 135.857C352.536 138.245 353.029 140.96 352.755 143.648C353.163 145.243 353.986 146.684 355.13 147.804C356.007 148.575 355.771 148.325 357.582 149.747C353.678 152.561 350.294 154.183 348.455 154.123C347.928 153.279 347.345 152.476 346.711 151.719C345.123 152.175 343.447 152.144 341.875 151.629C348.936 148.595 347.173 138.661 343.798 132.423Z" fill="#EA9977"/>
</g>
<path opacity="0.49" d="M334.106 193.327L334.163 193.267C334.723 192.537 335.081 191.657 335.2 190.724C335.352 189.884 335.447 189.034 335.483 188.18C336.491 190.273 335.671 191.685 335.699 193.017C362.842 218.442 374.109 201.298 374.109 201.298L378.314 199.546C378.784 198.812 379.21 198.046 379.586 197.253C380.344 198.243 380.772 199.472 380.803 200.747C380.51 204.362 373.751 216.019 362.588 215.668H362.201C358.079 215.878 353.979 214.906 350.332 212.854C346.841 210.561 343.811 207.56 341.413 204.022C341.064 203.541 339.273 200.808 337.132 197.673C336.765 197.122 336.378 196.572 335.992 196.011C335.369 195.11 334.709 194.198 334.106 193.327Z" fill="#EDBE00"/>
<path d="M310.527 209.57C311.345 208.505 312.053 207.351 312.639 206.125C314.254 207.61 316.052 208.853 317.984 209.82C316.735 211.071 315.735 212.577 315.043 214.246C314.1 216.549 311.272 215.248 307.651 215.097C306.473 215.097 300.213 216.73 300.458 214.877C300.703 213.024 308.726 211.382 310.527 209.57Z" fill="#EA9977"/>
<path d="M348.484 154.704L348.408 154.123C349.935 153.731 351.359 152.982 352.578 151.931C353.796 150.879 354.778 149.551 355.451 148.044C357.723 149.927 362.993 153.642 366.68 157.578C370.545 161.723 377.757 171.597 380.322 181.531C382.886 191.465 382.792 203.121 378.248 203.892C376.305 204.173 374.326 203.849 372.553 202.96C370.779 202.072 369.286 200.656 368.254 198.885C366.444 195.881 360.844 190.573 359.109 189.492C351.359 184.605 348.635 179.398 348.531 172.859C348.427 166.32 349.794 167.602 349.794 167.602L347.437 156.767L349.445 156.226C349.092 155.743 348.771 155.234 348.484 154.704Z" fill="#C61E36"/>
<path d="M359.109 189.462C351.359 184.575 348.635 179.368 348.531 172.829C348.427 166.29 349.794 167.602 349.794 167.602L349.511 166.32C351.397 165.539 352.924 164.938 352.924 164.938L356.394 162.294C356.394 162.294 359.316 170.185 356.865 174.661C354.282 179.408 356.007 180.67 359.382 180.78C362.758 180.89 362.38 185.216 362.88 188.48C363.38 191.745 366.02 195.991 366.02 195.991C363.931 193.571 361.615 191.383 359.109 189.462Z" fill="#99152A"/>
<path d="M353.999 153.582C351.538 152.34 348.587 153.722 346.325 155.735C344.246 157.611 342.325 159.675 340.583 161.904C339.584 163.185 338.613 164.487 337.651 165.799C337.302 166.27 334.823 169.044 334.945 169.494C334.121 167.108 332.943 164.877 331.457 162.885C329.053 159.159 326.868 155.28 324.914 151.269C324.144 149.675 323.543 147.996 323.123 146.262C322.859 144.479 321.718 139.823 319.182 139.813C316.646 139.803 316.495 142.517 317.296 144.82C318.097 147.123 319.031 147.404 319.37 149.667C320.345 156.963 321.749 164.187 323.575 171.297C325.715 179.007 331.117 185.406 339.442 183.313C346.353 181.581 350.803 175.212 354.338 169.294C355.67 167.272 356.65 165.013 357.233 162.625C357.519 161.429 357.572 160.184 357.387 158.966C357.202 157.748 356.784 156.584 356.158 155.545C355.613 154.7 354.869 154.023 353.999 153.582Z" fill="#EA9977"/>
<path d="M323.547 171.297C322.953 169.144 322.415 166.961 321.906 164.768C325.007 164.477 327.92 163.063 330.156 160.762C330.577 161.463 331.011 162.154 331.457 162.835C332.805 164.838 334.285 166.74 335.011 169.154C334.889 168.703 337.302 166.22 337.651 165.749C338.594 164.437 339.537 163.135 340.583 161.854C342.325 159.625 344.246 157.561 346.325 155.685C348.587 153.682 351.604 152 354.065 153.242C354.928 153.7 355.662 154.391 356.196 155.244C356.814 156.343 357.222 157.561 357.395 158.827C357.568 160.094 357.503 161.385 357.205 162.625C356.622 165.013 355.641 167.272 354.31 169.294C350.775 175.202 346.325 181.571 339.414 183.313C331.099 185.406 325.687 179.007 323.547 171.297Z" fill="#C61E36"/>
<g opacity="0.4">
<path opacity="0.4" d="M322.962 168.633C325.216 176.314 330.731 182.652 338.99 180.389C345.891 178.547 350.247 172.078 353.688 166.14C354.998 164.092 355.955 161.813 356.516 159.41C356.698 158.462 356.759 157.492 356.695 156.526C357.516 158.447 357.709 160.604 357.242 162.655C356.659 165.043 355.679 167.302 354.348 169.324C350.812 175.232 346.362 181.601 339.452 183.343C331.136 185.416 325.725 179.017 323.585 171.327C323.113 169.604 322.642 167.862 322.293 166.12C322.453 166.941 322.717 167.792 322.962 168.633Z" fill="#99152A"/>
</g>
<path d="M335.85 171.807C335.674 170.875 335.379 169.972 334.973 169.124L335.36 168.503C335.815 169.533 335.985 170.679 335.85 171.807Z" fill="#99152A"/>
<path opacity="0.4" d="M377.767 184.695C375.947 174.171 369.282 163.256 365.671 158.589C362.446 154.483 357.761 150.448 355.357 148.155L355.451 148.044C357.723 149.927 362.993 153.642 366.68 157.578C370.545 161.723 377.757 171.597 380.322 181.531C382.886 191.465 382.792 203.121 378.248 203.892C377.927 203.892 377.616 203.972 377.305 203.992C378.926 199.546 379.021 191.775 377.767 184.695Z" fill="#99152A"/>
<path d="M270.883 205.184C273.004 205.704 276.38 206.866 277.794 206.906C278.389 206.858 278.981 206.771 279.566 206.646C279.689 208.87 279.96 211.082 280.377 213.265H280.179C277.153 212.333 275.201 213.635 272.146 213.685C269.092 213.735 269.441 211.132 268.771 209.94C268.102 208.749 264.218 204.933 264.057 202.25C263.897 199.566 268.771 204.663 270.883 205.184Z" fill="#D46F40"/>
<path d="M330.278 129.799C330.517 129.742 330.76 129.708 331.004 129.699C331.36 129.686 331.708 129.589 332.024 129.416C332.341 129.243 332.617 128.997 332.833 128.698L332.975 128.517C333.339 128.058 333.566 127.493 333.625 126.895C333.649 126.612 333.702 126.334 333.786 126.064C333.999 125.378 334.392 124.77 334.917 124.311C335.443 123.852 336.08 123.561 336.755 123.47C337.069 123.431 337.385 123.431 337.698 123.47C338.055 123.527 338.42 123.505 338.769 123.405C339.118 123.305 339.443 123.13 339.725 122.89C340.723 122.041 341.973 121.597 343.251 121.638C344.221 121.673 345.164 121.981 345.985 122.529C346.434 122.835 346.962 122.982 347.494 122.95H347.833C348.364 122.966 348.884 123.108 349.357 123.364C349.83 123.62 350.243 123.985 350.567 124.432C350.857 124.821 351.25 125.109 351.695 125.259C352.14 125.409 352.618 125.414 353.066 125.273C353.497 125.138 353.948 125.094 354.395 125.143C355.069 125.225 355.707 125.506 356.239 125.954C356.77 126.402 357.173 126.998 357.403 127.676C357.476 127.905 357.532 128.139 357.572 128.377C357.635 128.815 357.785 129.234 358.01 129.607C358.236 129.98 358.533 130.298 358.883 130.54C359.675 131.071 360.325 131.812 360.768 132.69C361.211 133.567 361.432 134.552 361.409 135.547C361.393 136.312 361.229 137.065 360.929 137.76C360.701 138.276 360.591 138.841 360.608 139.409C360.624 139.978 360.766 140.535 361.023 141.035C361.603 142.137 361.821 143.412 361.645 144.66C361.45 146.122 360.735 147.449 359.647 148.367C358.559 149.286 357.181 149.727 355.796 149.598C354.411 149.47 353.126 148.782 352.204 147.677C351.282 146.572 350.794 145.134 350.841 143.658C350.863 142.588 351.17 141.546 351.727 140.654C351.899 140.397 351.992 140.089 351.992 139.773C351.992 139.457 351.899 139.149 351.727 138.892C351.578 138.683 351.381 138.519 351.155 138.415C350.928 138.312 350.68 138.272 350.435 138.301C350.216 138.316 349.995 138.316 349.775 138.301C348.623 138.267 347.511 137.844 346.601 137.093C345.69 136.342 345.029 135.302 344.713 134.125C344.636 133.827 344.466 133.566 344.232 133.384C343.997 133.202 343.711 133.111 343.421 133.124H342.987C342.073 133.131 341.171 132.893 340.366 132.433C340.23 132.353 340.081 132.304 339.926 132.286C339.772 132.268 339.616 132.283 339.467 132.329C339.318 132.376 339.179 132.453 339.058 132.557C338.938 132.661 338.838 132.789 338.764 132.933C338.477 133.449 338.08 133.885 337.605 134.207C337.13 134.529 336.59 134.727 336.029 134.786V134.956C335.997 136.311 335.459 137.596 334.534 138.529C333.61 139.463 332.374 139.968 331.099 139.933C329.823 139.899 328.613 139.327 327.735 138.345C326.856 137.363 326.38 136.05 326.413 134.696C326.447 133.538 326.846 132.425 327.548 131.537C328.249 130.649 329.21 130.037 330.278 129.799Z" fill="#292929"/>
<g style="mix-blend-mode:multiply" opacity="0.38">
<path d="M355.244 137.41C355.064 135.777 354.225 133.594 357.535 132.253C357.867 132.098 358.16 131.861 358.388 131.561C358.616 131.261 358.773 130.908 358.845 130.53H358.892C359.685 131.061 360.334 131.802 360.777 132.68C361.22 133.557 361.441 134.542 361.419 135.537C361.402 136.302 361.239 137.055 360.938 137.75C360.711 138.266 360.601 138.831 360.617 139.399C360.633 139.968 360.776 140.525 361.032 141.025C361.612 142.126 361.831 143.402 361.655 144.65C361.46 146.112 360.745 147.439 359.657 148.357C358.569 149.276 357.19 149.717 355.805 149.588C354.421 149.46 353.135 148.772 352.213 147.667C351.291 146.562 350.803 145.124 350.85 143.648C350.857 143.25 350.908 142.853 351.001 142.467C355.319 142.687 355.451 138.952 355.244 137.41Z" fill="#292929"/>
</g>
<g style="mix-blend-mode:multiply" opacity="0.38">
<path d="M334.229 134.245V134.025C334.867 133.98 335.486 133.775 336.035 133.427C336.584 133.079 337.047 132.598 337.387 132.022C337.478 131.856 337.6 131.711 337.745 131.595C337.89 131.48 338.056 131.397 338.232 131.351C338.408 131.306 338.591 131.298 338.769 131.329C338.948 131.36 339.119 131.429 339.273 131.532C340.125 132.105 341.095 132.449 342.101 132.533H342.591C342.823 132.531 343.051 132.589 343.257 132.702C343.462 132.816 343.638 132.981 343.77 133.184C343.639 133.158 343.505 133.158 343.374 133.184H342.94C342.037 133.164 341.152 132.906 340.366 132.433C340.23 132.354 340.081 132.304 339.926 132.286C339.772 132.268 339.616 132.283 339.467 132.329C339.318 132.376 339.179 132.453 339.058 132.557C338.938 132.661 338.838 132.789 338.763 132.934C338.477 133.449 338.08 133.885 337.605 134.207C337.13 134.529 336.59 134.727 336.029 134.786V134.956C336.011 135.627 335.869 136.287 335.61 136.9C335.351 137.512 334.981 138.064 334.522 138.524C334.062 138.985 333.521 139.344 332.931 139.583C332.34 139.821 331.711 139.933 331.08 139.913C330.551 139.892 330.029 139.781 329.534 139.583C330.776 139.405 331.922 138.777 332.778 137.804C333.634 136.831 334.146 135.574 334.229 134.245Z" fill="#292929"/>
</g>
</g>
<g clip-path="url(#clip1)">
<path d="M330.81 77.9277C330.806 77.471 330.938 77.0233 331.19 76.6415C331.442 76.2597 331.802 75.961 332.225 75.7835C332.648 75.606 333.114 75.5576 333.565 75.6445C334.016 75.7315 334.43 75.9497 334.756 76.2716C335.081 76.5935 335.303 77.0045 335.394 77.4523C335.484 77.9 335.438 78.3644 335.263 78.7864C335.087 79.2084 334.789 79.5688 334.407 79.8219C334.025 80.0751 333.576 80.2095 333.117 80.208C332.815 80.209 332.516 80.1508 332.237 80.0367C331.957 79.9226 331.703 79.755 331.489 79.5432C331.275 79.3315 331.105 79.0798 330.988 78.8026C330.872 78.5254 330.811 78.2281 330.81 77.9277Z" fill="#FFE794"/>
<path d="M230.499 145.074C230.499 144.619 230.635 144.174 230.889 143.795C231.144 143.416 231.505 143.121 231.928 142.947C232.351 142.772 232.816 142.727 233.265 142.816C233.714 142.905 234.127 143.124 234.45 143.446C234.774 143.768 234.994 144.178 235.084 144.625C235.173 145.072 235.127 145.535 234.952 145.955C234.777 146.376 234.48 146.736 234.1 146.989C233.719 147.242 233.272 147.377 232.814 147.377C232.51 147.378 232.208 147.319 231.927 147.204C231.646 147.088 231.39 146.919 231.175 146.705C230.96 146.491 230.789 146.236 230.673 145.957C230.557 145.677 230.498 145.377 230.499 145.074Z" fill="#D6D6D6"/>
<path d="M166.664 157.837C166.664 157.381 166.8 156.935 167.054 156.556C167.309 156.178 167.671 155.883 168.094 155.708C168.518 155.534 168.983 155.489 169.432 155.579C169.882 155.668 170.294 155.888 170.617 156.211C170.941 156.534 171.161 156.945 171.249 157.392C171.338 157.839 171.291 158.302 171.114 158.723C170.938 159.144 170.64 159.503 170.259 159.755C169.877 160.007 169.429 160.141 168.971 160.139C168.667 160.139 168.366 160.08 168.086 159.964C167.806 159.848 167.551 159.678 167.337 159.464C167.122 159.251 166.953 158.997 166.837 158.717C166.722 158.438 166.663 158.139 166.664 157.837Z" fill="#D6D6D6"/>
<path d="M205.544 42.0554C204.265 42.0554 203.229 43.0863 203.229 44.3581C203.229 45.6299 204.265 46.6609 205.544 46.6609C206.822 46.6609 207.858 45.6299 207.858 44.3581C207.858 43.0863 206.822 42.0554 205.544 42.0554Z" fill="#D6D6D6"/>
<path d="M384.283 23.8201C384.283 23.3647 384.419 22.9195 384.673 22.5408C384.928 22.1621 385.289 21.8669 385.712 21.6926C386.135 21.5184 386.6 21.4728 387.049 21.5616C387.498 21.6505 387.911 21.8698 388.234 22.1918C388.558 22.5139 388.778 22.9242 388.868 23.3709C388.957 23.8176 388.911 24.2806 388.736 24.7014C388.561 25.1222 388.264 25.4818 387.884 25.7348C387.503 25.9879 387.055 26.1229 386.598 26.1229C386.293 26.1239 385.992 26.065 385.711 25.9496C385.43 25.8343 385.174 25.6647 384.959 25.4506C384.744 25.2366 384.573 24.9824 384.457 24.7025C384.341 24.4227 384.282 24.1228 384.283 23.8201Z" fill="#D6D6D6"/>
<path d="M347.462 43.7451C347.461 43.289 347.595 42.8428 347.849 42.4629C348.103 42.0831 348.464 41.7868 348.888 41.6116C349.311 41.4364 349.777 41.3901 350.226 41.4787C350.676 41.5674 351.089 41.7868 351.413 42.1093C351.737 42.4318 351.958 42.8428 352.047 43.2902C352.136 43.7376 352.09 44.2012 351.914 44.6223C351.737 45.0434 351.44 45.403 351.058 45.6554C350.676 45.9079 350.228 46.0419 349.769 46.0404C349.158 46.0384 348.572 45.796 348.14 45.3659C347.708 44.9359 347.464 44.3532 347.462 43.7451Z" fill="#D6D6D6"/>
<path d="M259.062 182.487C259.062 182.031 259.198 181.586 259.452 181.207C259.706 180.829 260.068 180.533 260.491 180.359C260.914 180.185 261.379 180.139 261.828 180.228C262.277 180.317 262.689 180.536 263.013 180.858C263.337 181.18 263.557 181.591 263.646 182.037C263.736 182.484 263.69 182.947 263.515 183.368C263.339 183.789 263.043 184.148 262.662 184.401C262.282 184.654 261.834 184.789 261.376 184.789C261.072 184.79 260.771 184.732 260.489 184.616C260.208 184.501 259.953 184.331 259.738 184.117C259.522 183.903 259.352 183.649 259.236 183.369C259.12 183.089 259.061 182.789 259.062 182.487Z" fill="#D6D6D6"/>
<path d="M282.184 18.4371C282.184 17.9816 282.32 17.5364 282.574 17.1577C282.828 16.7791 283.19 16.4839 283.613 16.3096C284.036 16.1353 284.501 16.0897 284.95 16.1786C285.399 16.2674 285.811 16.4867 286.135 16.8088C286.459 17.1308 286.679 17.5411 286.768 17.9878C286.858 18.4345 286.812 18.8975 286.637 19.3183C286.461 19.7391 286.165 20.0987 285.784 20.3518C285.404 20.6048 284.956 20.7399 284.498 20.7399C284.194 20.7408 283.893 20.682 283.612 20.5666C283.33 20.4512 283.075 20.2816 282.86 20.0676C282.644 19.8536 282.474 19.5993 282.358 19.3195C282.242 19.0396 282.183 18.7398 282.184 18.4371Z" fill="#D6D6D6"/>
<path d="M261.008 94.0246C259.73 94.0246 258.694 95.0556 258.694 96.3274C258.694 97.5991 259.73 98.6301 261.008 98.6301C262.286 98.6301 263.323 97.5991 263.323 96.3274C263.323 95.0556 262.286 94.0246 261.008 94.0246Z" fill="#FFE794"/>
<path d="M196.293 174.741C196.296 174.514 196.367 174.293 196.496 174.105C196.625 173.918 196.806 173.773 197.018 173.688C197.23 173.603 197.462 173.582 197.685 173.629C197.909 173.675 198.114 173.785 198.274 173.947C198.434 174.109 198.543 174.314 198.587 174.537C198.63 174.76 198.606 174.99 198.518 175.2C198.43 175.409 198.282 175.588 198.092 175.714C197.902 175.84 197.679 175.907 197.451 175.907C197.297 175.907 197.146 175.877 197.004 175.818C196.863 175.76 196.735 175.673 196.627 175.565C196.519 175.456 196.434 175.328 196.377 175.186C196.32 175.045 196.291 174.893 196.293 174.741Z" fill="#D6D6D6"/>
<path d="M229.808 189.455C229.808 189.227 229.876 189.004 230.003 188.815C230.13 188.626 230.311 188.478 230.522 188.391C230.734 188.304 230.966 188.281 231.191 188.326C231.415 188.37 231.622 188.48 231.783 188.641C231.945 188.802 232.056 189.007 232.1 189.23C232.145 189.454 232.122 189.685 232.034 189.895C231.947 190.106 231.798 190.286 231.608 190.412C231.418 190.539 231.194 190.606 230.965 190.606C230.658 190.606 230.364 190.485 230.147 190.269C229.93 190.053 229.808 189.76 229.808 189.455Z" fill="#FFE794"/>
<path d="M300.301 86.4359C300.301 86.2082 300.369 85.9856 300.496 85.7962C300.624 85.6069 300.804 85.4593 301.016 85.3722C301.227 85.285 301.46 85.2622 301.684 85.3067C301.909 85.3511 302.115 85.4607 302.277 85.6218C302.439 85.7828 302.549 85.9879 302.594 86.2113C302.638 86.4346 302.615 86.6661 302.528 86.8765C302.44 87.0869 302.292 87.2667 302.101 87.3932C301.911 87.5198 301.687 87.5873 301.459 87.5873C301.152 87.5873 300.857 87.466 300.64 87.2501C300.423 87.0341 300.301 86.7413 300.301 86.4359Z" fill="#D6D6D6"/>
<path d="M210.165 110.114C210.165 109.886 210.233 109.664 210.36 109.474C210.487 109.285 210.668 109.137 210.879 109.05C211.091 108.963 211.324 108.94 211.548 108.985C211.773 109.029 211.979 109.139 212.141 109.3C212.302 109.461 212.413 109.666 212.457 109.889C212.502 110.113 212.479 110.344 212.391 110.555C212.304 110.765 212.156 110.945 211.965 111.071C211.775 111.198 211.551 111.265 211.322 111.265C211.015 111.265 210.721 111.144 210.504 110.928C210.287 110.712 210.165 110.419 210.165 110.114Z" fill="#D6D6D6"/>
<path d="M209.474 17.1736C209.474 16.9458 209.542 16.7232 209.669 16.5339C209.796 16.3445 209.977 16.197 210.188 16.1098C210.4 16.0227 210.632 15.9999 210.857 16.0443C211.081 16.0887 211.287 16.1984 211.449 16.3594C211.611 16.5204 211.721 16.7256 211.766 16.9489C211.811 17.1723 211.788 17.4038 211.7 17.6142C211.613 17.8246 211.464 18.0044 211.274 18.1309C211.084 18.2574 210.86 18.325 210.631 18.325C210.324 18.325 210.03 18.2036 209.813 17.9877C209.596 17.7718 209.474 17.4789 209.474 17.1736Z" fill="#FFE794"/>
<path d="M180.648 144.11C180.648 143.882 180.716 143.659 180.843 143.47C180.97 143.281 181.151 143.133 181.363 143.046C181.574 142.959 181.807 142.936 182.031 142.98C182.256 143.025 182.462 143.135 182.624 143.296C182.786 143.457 182.896 143.662 182.94 143.885C182.985 144.108 182.962 144.34 182.875 144.55C182.787 144.761 182.639 144.941 182.448 145.067C182.258 145.194 182.034 145.261 181.805 145.261C181.653 145.262 181.502 145.233 181.361 145.175C181.221 145.118 181.093 145.033 180.985 144.926C180.877 144.819 180.792 144.692 180.734 144.551C180.676 144.411 180.647 144.261 180.648 144.11Z" fill="#FFE794"/>
<path d="M85.5599 207.952C85.5584 207.496 85.6929 207.05 85.9463 206.67C86.1997 206.291 86.5607 205.994 86.9834 205.819C87.4062 205.643 87.8718 205.597 88.3213 205.685C88.7707 205.773 89.1838 205.991 89.5083 206.313C89.8327 206.635 90.0539 207.045 90.1438 207.492C90.2337 207.939 90.1883 208.402 90.0133 208.824C89.8384 209.245 89.5418 209.605 89.161 209.858C88.7802 210.112 88.3324 210.247 87.8744 210.247C87.2618 210.247 86.6743 210.005 86.2404 209.575C85.8066 209.145 85.5619 208.561 85.5599 207.952Z" fill="#D6D6D6"/>
<path d="M115.197 224.849C115.197 224.621 115.265 224.398 115.392 224.209C115.519 224.02 115.7 223.872 115.911 223.785C116.123 223.698 116.356 223.675 116.58 223.719C116.805 223.764 117.011 223.873 117.173 224.034C117.334 224.195 117.445 224.401 117.489 224.624C117.534 224.847 117.511 225.079 117.423 225.289C117.336 225.5 117.187 225.679 116.997 225.806C116.807 225.932 116.583 226 116.354 226C116.047 226 115.753 225.879 115.536 225.663C115.319 225.447 115.197 225.154 115.197 224.849Z" fill="#D6D6D6"/>
<path d="M99.5518 194.225C99.5459 193.995 99.6092 193.769 99.7337 193.575C99.8582 193.381 100.038 193.229 100.25 193.138C100.463 193.047 100.697 193.021 100.924 193.064C101.151 193.107 101.36 193.216 101.524 193.378C101.688 193.54 101.8 193.747 101.844 193.973C101.889 194.199 101.864 194.432 101.774 194.644C101.684 194.856 101.532 195.036 101.339 195.161C101.145 195.286 100.918 195.351 100.687 195.346C100.389 195.341 100.104 195.221 99.8931 195.012C99.6817 194.803 99.5595 194.521 99.5518 194.225Z" fill="#FFE794"/>
<path d="M197.668 186.292C198.113 186.402 198.515 186.641 198.823 186.978C199.131 187.315 199.332 187.735 199.399 188.186C199.467 188.637 199.399 189.097 199.204 189.509C199.009 189.921 198.695 190.267 198.302 190.501C197.909 190.736 197.456 190.849 196.998 190.827C196.541 190.805 196.1 190.648 195.732 190.377C195.364 190.106 195.086 189.732 194.931 189.303C194.777 188.874 194.754 188.409 194.866 187.967C195.015 187.375 195.393 186.867 195.919 186.553C196.444 186.239 197.074 186.145 197.668 186.292Z" fill="#D6D6D6"/>
<path d="M174.028 210.823C174.251 210.877 174.452 210.996 174.607 211.164C174.761 211.332 174.862 211.542 174.897 211.768C174.931 211.993 174.897 212.224 174.8 212.43C174.703 212.637 174.546 212.81 174.349 212.927C174.153 213.045 173.926 213.102 173.697 213.091C173.468 213.08 173.248 213.002 173.064 212.866C172.879 212.73 172.74 212.543 172.663 212.328C172.586 212.114 172.574 211.881 172.63 211.66C172.666 211.513 172.731 211.375 172.821 211.254C172.911 211.132 173.024 211.03 173.154 210.952C173.284 210.874 173.428 210.823 173.578 210.8C173.728 210.778 173.881 210.786 174.028 210.823Z" fill="#D6D6D6"/>
<path d="M207.678 203.114C207.9 203.169 208.102 203.287 208.256 203.456C208.411 203.624 208.512 203.834 208.546 204.06C208.581 204.285 208.547 204.516 208.45 204.722C208.352 204.928 208.196 205.101 207.999 205.219C207.803 205.337 207.576 205.394 207.347 205.383C207.118 205.372 206.898 205.294 206.713 205.158C206.529 205.022 206.39 204.835 206.313 204.62C206.236 204.406 206.224 204.173 206.28 203.952C206.316 203.805 206.381 203.667 206.471 203.546C206.561 203.424 206.674 203.321 206.804 203.244C206.934 203.166 207.078 203.114 207.228 203.092C207.378 203.07 207.531 203.077 207.678 203.114Z" fill="#FFE794"/>
<path d="M172.788 55.9691C172.788 55.7414 172.856 55.5188 172.983 55.3294C173.11 55.1401 173.291 54.9925 173.502 54.9054C173.714 54.8182 173.947 54.7954 174.171 54.8399C174.396 54.8843 174.602 54.9939 174.764 55.155C174.925 55.316 175.036 55.5211 175.08 55.7445C175.125 55.9678 175.102 56.1993 175.014 56.4097C174.927 56.6201 174.779 56.7999 174.588 56.9264C174.398 57.053 174.174 57.1205 173.945 57.1205C173.638 57.1205 173.344 56.9992 173.127 56.7833C172.91 56.5673 172.788 56.2745 172.788 55.9691Z" fill="#FFE794"/>
<path d="M258.235 35.6181C257.596 35.6181 257.078 36.1336 257.078 36.7695C257.078 37.4054 257.596 37.9209 258.235 37.9209C258.874 37.9209 259.392 37.4054 259.392 36.7695C259.392 36.1336 258.874 35.6181 258.235 35.6181Z" fill="#FFE794"/>
<path d="M306.959 22.28C306.959 22.0522 307.027 21.8296 307.154 21.6403C307.281 21.451 307.462 21.3034 307.674 21.2162C307.885 21.1291 308.118 21.1063 308.342 21.1507C308.567 21.1951 308.773 21.3048 308.935 21.4658C309.097 21.6268 309.207 21.832 309.251 22.0554C309.296 22.2787 309.273 22.5102 309.186 22.7206C309.098 22.931 308.95 23.1108 308.759 23.2373C308.569 23.3638 308.345 23.4313 308.116 23.4313C307.964 23.4313 307.814 23.4016 307.674 23.3437C307.533 23.2858 307.406 23.201 307.298 23.0941C307.191 22.9872 307.105 22.8603 307.047 22.7206C306.989 22.5809 306.959 22.4312 306.959 22.28Z" fill="#FFE794"/>
<path d="M331.126 1.15136C331.124 0.923004 331.191 0.699351 331.318 0.508865C331.444 0.31838 331.625 0.169651 331.837 0.08158C332.048 -0.00649059 332.282 -0.0299164 332.507 0.0142714C332.732 0.0584592 332.939 0.168283 333.101 0.329756C333.264 0.491229 333.374 0.697051 333.418 0.921092C333.463 1.14513 333.439 1.37726 333.351 1.58795C333.262 1.79864 333.113 1.97839 332.921 2.10434C332.73 2.23028 332.505 2.29674 332.275 2.29526C331.971 2.29526 331.678 2.17475 331.462 1.96023C331.247 1.7457 331.126 1.45474 331.126 1.15136Z" fill="#FFE794"/>
<path d="M328.729 41.5993C328.727 41.371 328.794 41.1474 328.921 40.9569C329.047 40.7664 329.228 40.6176 329.44 40.5296C329.651 40.4415 329.885 40.4181 330.11 40.4623C330.335 40.5065 330.542 40.6163 330.704 40.7777C330.866 40.9392 330.977 41.1451 331.021 41.3691C331.066 41.5931 331.042 41.8253 330.954 42.036C330.865 42.2466 330.716 42.4264 330.524 42.5523C330.333 42.6783 330.108 42.7447 329.878 42.7433C329.574 42.7413 329.283 42.6202 329.068 42.4061C328.852 42.192 328.731 41.9021 328.729 41.5993Z" fill="#D6D6D6"/>
<path d="M304.231 62.0625C304.231 61.8348 304.299 61.6121 304.426 61.4228C304.554 61.2335 304.734 61.0859 304.946 60.9987C305.157 60.9116 305.39 60.8888 305.614 60.9332C305.839 60.9776 306.045 61.0873 306.207 61.2483C306.369 61.4093 306.479 61.6145 306.524 61.8379C306.568 62.0612 306.545 62.2927 306.458 62.5031C306.37 62.7135 306.222 62.8933 306.032 63.0198C305.841 63.1463 305.618 63.2139 305.389 63.2139C305.237 63.2139 305.086 63.1841 304.946 63.1262C304.805 63.0684 304.678 62.9835 304.57 62.8766C304.463 62.7697 304.378 62.6428 304.319 62.5031C304.261 62.3634 304.231 62.2137 304.231 62.0625Z" fill="#D6D6D6"/>
<path d="M246.678 167.377C246.039 167.377 245.521 167.892 245.521 168.528C245.521 169.164 246.039 169.679 246.678 169.679C247.317 169.679 247.835 169.164 247.835 168.528C247.835 167.892 247.317 167.377 246.678 167.377Z" fill="#D6D6D6"/>
<path d="M245.295 61.599C244.656 61.599 244.138 62.1145 244.138 62.7503C244.138 63.3862 244.656 63.9017 245.295 63.9017C245.934 63.9017 246.453 63.3862 246.453 62.7503C246.453 62.1145 245.934 61.599 245.295 61.599Z" fill="#D6D6D6"/>
<path d="M388.379 67.939C388.379 67.4833 388.515 67.0378 388.769 66.6589C389.024 66.2801 389.386 65.9849 389.809 65.8108C390.232 65.6368 390.698 65.5916 391.147 65.6811C391.597 65.7705 392.009 65.9906 392.332 66.3134C392.656 66.6362 392.876 67.0472 392.964 67.4944C393.052 67.9416 393.006 68.4048 392.829 68.8255C392.653 69.2461 392.355 69.6052 391.973 69.8574C391.592 70.1095 391.144 70.2433 390.686 70.2418C390.382 70.2418 390.081 70.1822 389.801 70.0664C389.521 69.9506 389.266 69.7808 389.052 69.5669C388.837 69.353 388.668 69.099 388.552 68.8197C388.437 68.5404 388.378 68.2411 388.379 67.939Z" fill="#D6D6D6"/>
<path d="M364.43 85.1201C363.791 85.1201 363.273 85.6356 363.273 86.2715C363.273 86.9074 363.791 87.4229 364.43 87.4229C365.069 87.4229 365.587 86.9074 365.587 86.2715C365.587 85.6356 365.069 85.1201 364.43 85.1201Z" fill="#FFE794"/>
<path d="M350.333 112.252C350.356 111.964 350.488 111.695 350.702 111.499C350.915 111.303 351.195 111.194 351.486 111.194C351.777 111.194 352.057 111.303 352.271 111.499C352.485 111.695 352.616 111.964 352.64 112.252C352.653 112.411 352.632 112.57 352.58 112.721C352.528 112.871 352.445 113.009 352.337 113.126C352.228 113.243 352.097 113.336 351.951 113.4C351.804 113.464 351.646 113.496 351.486 113.496C351.326 113.496 351.168 113.464 351.022 113.4C350.876 113.336 350.744 113.243 350.636 113.126C350.527 113.009 350.444 112.871 350.392 112.721C350.34 112.57 350.32 112.411 350.333 112.252Z" fill="#D6D6D6"/>
<path d="M191.552 81.3892C190.913 81.3892 190.395 81.9047 190.395 82.5406C190.395 83.1765 190.913 83.692 191.552 83.692C192.191 83.692 192.709 83.1765 192.709 82.5406C192.709 81.9047 192.191 81.3892 191.552 81.3892Z" fill="#D6D6D6"/>
<path d="M91.9247 31.9322C91.483 32.0522 91.0155 32.0393 90.5812 31.895C90.147 31.7506 89.7655 31.4813 89.485 31.1212C89.2046 30.7611 89.0378 30.3264 89.0058 29.872C88.9738 29.4175 89.0779 28.9639 89.3051 28.5683C89.5322 28.1728 89.8722 27.8532 90.2819 27.65C90.6917 27.4467 91.1528 27.369 91.607 27.4265C92.0612 27.4841 92.4881 27.6744 92.8335 27.9733C93.179 28.2723 93.4276 28.6665 93.5478 29.106C93.7069 29.6949 93.6255 30.3224 93.3214 30.8518C93.0174 31.3812 92.5153 31.7695 91.9247 31.9322Z" fill="#D6D6D6"/>
<path d="M153.897 8.04473C153.676 8.10477 153.442 8.09829 153.225 8.02611C153.008 7.95394 152.817 7.81931 152.677 7.63926C152.537 7.45921 152.453 7.24182 152.437 7.01461C152.421 6.7874 152.473 6.56057 152.587 6.36281C152.7 6.16505 152.87 6.00525 153.075 5.90363C153.28 5.80201 153.511 5.76312 153.738 5.7919C153.965 5.82068 154.178 5.91583 154.351 6.06531C154.524 6.21479 154.648 6.41188 154.708 6.63166C154.749 6.77747 154.761 6.92991 154.742 7.08014C154.723 7.23038 154.675 7.37542 154.599 7.50686C154.524 7.63829 154.423 7.75351 154.302 7.84584C154.181 7.93817 154.044 8.00578 153.897 8.04473Z" fill="#D6D6D6"/>
<path d="M63.9182 33.0536C63.6974 33.1137 63.4636 33.1072 63.2465 33.035C63.0293 32.9629 62.8386 32.8282 62.6984 32.6482C62.5581 32.4681 62.4748 32.2507 62.4587 32.0235C62.4427 31.7963 62.4948 31.5695 62.6084 31.3717C62.722 31.174 62.8919 31.0142 63.0968 30.9125C63.3017 30.8109 63.5323 30.772 63.7594 30.8008C63.9865 30.8296 64.1999 30.9247 64.3726 31.0742C64.5453 31.2237 64.6696 31.4208 64.7298 31.6406C64.7707 31.7864 64.7821 31.9388 64.7634 32.0891C64.7446 32.2393 64.6961 32.3843 64.6206 32.5158C64.5452 32.6472 64.4442 32.7624 64.3236 32.8548C64.203 32.9471 64.0652 33.0147 63.9182 33.0536Z" fill="#FFE794"/>
<path d="M111.162 58.1149C110.941 58.175 110.707 58.1685 110.49 58.0963C110.273 58.0241 110.082 57.8895 109.942 57.7095C109.802 57.5294 109.718 57.312 109.702 57.0848C109.686 56.8576 109.738 56.6308 109.852 56.433C109.966 56.2352 110.135 56.0754 110.34 55.9738C110.545 55.8722 110.776 55.8333 111.003 55.8621C111.23 55.8909 111.443 55.986 111.616 56.1355C111.789 56.285 111.913 56.4821 111.973 56.7019C112.014 56.8477 112.026 57.0001 112.007 57.1503C111.988 57.3006 111.94 57.4456 111.864 57.5771C111.789 57.7085 111.688 57.8237 111.567 57.916C111.447 58.0084 111.309 58.076 111.162 58.1149Z" fill="#FFE794"/>
<path d="M132.323 34.2498C132.026 34.3277 131.71 34.2857 131.444 34.1331C131.178 33.9805 130.983 33.7296 130.902 33.4349C130.843 33.215 130.851 32.9827 130.925 32.7673C130.999 32.5519 131.135 32.3631 131.316 32.2246C131.498 32.0862 131.717 32.0043 131.945 31.9895C132.173 31.9746 132.4 32.0273 132.599 32.141C132.797 32.2547 132.957 32.4242 133.058 32.6282C133.159 32.8322 133.198 33.0615 133.168 33.2871C133.138 33.5127 133.042 33.7246 132.892 33.896C132.741 34.0673 132.543 34.1905 132.323 34.2498Z" fill="#D6D6D6"/>
<path d="M78.2107 42.5338C77.7543 42.5174 77.313 42.3671 76.9423 42.1016C76.5716 41.8362 76.2881 41.4677 76.1275 41.0423C75.9669 40.6169 75.9363 40.1538 76.0397 39.7112C76.1431 39.2686 76.3758 38.8663 76.7085 38.555C77.0412 38.2437 77.459 38.0373 77.9094 37.9618C78.3597 37.8863 78.8225 37.945 79.2393 38.1305C79.6562 38.3161 80.0086 38.6203 80.2521 39.0047C80.4956 39.3891 80.6194 39.8366 80.6078 40.2908C80.6001 40.5952 80.5318 40.895 80.4068 41.173C80.2818 41.4509 80.1026 41.7014 79.8797 41.91C79.6568 42.1186 79.3945 42.2811 79.108 42.3882C78.8215 42.4953 78.5165 42.5448 78.2107 42.5338Z" fill="#FFE794"/>
<path d="M141.686 144.902C141.229 144.886 140.788 144.736 140.417 144.47C140.046 144.205 139.763 143.836 139.602 143.411C139.442 142.985 139.411 142.522 139.515 142.08C139.618 141.637 139.851 141.235 140.183 140.924C140.516 140.612 140.934 140.406 141.384 140.33C141.835 140.255 142.297 140.313 142.714 140.499C143.131 140.685 143.483 140.989 143.727 141.373C143.971 141.758 144.094 142.205 144.083 142.659C144.076 142.964 144.008 143.264 143.884 143.543C143.759 143.821 143.58 144.072 143.357 144.281C143.134 144.49 142.871 144.652 142.584 144.759C142.297 144.865 141.992 144.914 141.686 144.902Z" fill="#D6D6D6"/>
<path d="M151.98 208.871C151.525 208.852 151.086 208.698 150.718 208.431C150.35 208.163 150.07 207.793 149.913 207.367C149.757 206.941 149.73 206.479 149.838 206.038C149.945 205.597 150.181 205.198 150.516 204.891C150.851 204.583 151.27 204.381 151.721 204.311C152.171 204.24 152.632 204.304 153.046 204.494C153.46 204.684 153.808 204.991 154.046 205.378C154.285 205.764 154.402 206.213 154.385 206.666C154.373 206.968 154.302 207.265 154.175 207.539C154.047 207.814 153.867 208.061 153.643 208.266C153.42 208.471 153.158 208.63 152.873 208.734C152.587 208.838 152.284 208.884 151.98 208.871Z" fill="#D6D6D6"/>
<path d="M38.2306 163.82C37.1755 164.538 36.9052 165.971 37.6268 167.021C38.3484 168.07 39.7887 168.339 40.8438 167.621C41.8989 166.903 42.1692 165.47 41.4476 164.421C40.726 163.371 39.2857 163.102 38.2306 163.82Z" fill="#D6D6D6"/>
<path d="M44.5308 24.6276C44.0748 24.6098 43.6343 24.4582 43.2646 24.192C42.8949 23.9257 42.6126 23.5567 42.4531 23.1312C42.2937 22.7058 42.2642 22.2429 42.3684 21.8009C42.4726 21.3588 42.7058 20.9572 43.0388 20.6467C43.3717 20.3361 43.7895 20.1304 44.2396 20.0555C44.6897 19.9805 45.1521 20.0396 45.5685 20.2253C45.9849 20.4111 46.3369 20.7152 46.5801 21.0994C46.8233 21.4836 46.947 21.9307 46.9355 22.3847C46.9278 22.6897 46.8592 22.9902 46.7337 23.2686C46.6083 23.547 46.4285 23.7979 46.2047 24.0066C45.981 24.2153 45.7178 24.3776 45.4304 24.4843C45.1431 24.5909 44.8373 24.6396 44.5308 24.6276Z" fill="#D6D6D6"/>
<path d="M180.385 117.987C179.929 117.969 179.489 117.817 179.119 117.551C178.749 117.285 178.467 116.916 178.308 116.49C178.148 116.065 178.119 115.602 178.223 115.16C178.327 114.718 178.56 114.316 178.893 114.006C179.226 113.695 179.644 113.49 180.094 113.415C180.544 113.34 181.006 113.399 181.423 113.585C181.839 113.77 182.191 114.074 182.434 114.459C182.678 114.843 182.801 115.29 182.79 115.744C182.782 116.049 182.713 116.349 182.588 116.628C182.463 116.906 182.283 117.157 182.059 117.366C181.835 117.575 181.572 117.737 181.285 117.844C180.997 117.95 180.692 117.999 180.385 117.987Z" fill="#D6D6D6"/>
<path d="M16.5243 88.5218C16.0701 88.504 15.6313 88.3531 15.263 88.0881C14.8947 87.823 14.6133 87.4556 14.4541 87.0319C14.295 86.6083 14.2652 86.1473 14.3684 85.7068C14.4717 85.2664 14.7035 84.8661 15.0346 84.5563C15.3657 84.2464 15.7815 84.0408 16.2297 83.9653C16.6779 83.8897 17.1385 83.9476 17.5538 84.1316C17.969 84.3157 18.3203 84.6176 18.5637 84.9997C18.807 85.3817 18.9315 85.8267 18.9215 86.2789C18.9127 86.5829 18.8437 86.8823 18.7184 87.1598C18.5931 87.4373 18.4139 87.6874 18.1912 87.8958C17.9685 88.1042 17.7066 88.2668 17.4205 88.3742C17.1345 88.4816 16.8299 88.5318 16.5243 88.5218Z" fill="#D6D6D6"/>
<path d="M93.8408 114.944C93.3866 114.926 92.9478 114.775 92.5795 114.51C92.2112 114.245 91.9298 113.878 91.7706 113.454C91.6115 113.03 91.5817 112.569 91.6849 112.129C91.7882 111.688 92.02 111.288 92.3511 110.978C92.6823 110.668 93.098 110.463 93.5462 110.387C93.9944 110.312 94.455 110.37 94.8703 110.554C95.2855 110.738 95.6369 111.04 95.8802 111.422C96.1235 111.804 96.248 112.249 96.238 112.701C96.2302 113.005 96.1619 113.305 96.0369 113.583C95.9119 113.861 95.7328 114.111 95.5098 114.32C95.2869 114.529 95.0246 114.691 94.7381 114.798C94.4516 114.905 94.1467 114.955 93.8408 114.944Z" fill="#FFE794"/>
<path d="M170.128 180.079C169.899 180.072 169.677 179.996 169.491 179.863C169.304 179.73 169.162 179.544 169.082 179.33C169.002 179.116 168.988 178.883 169.041 178.661C169.094 178.439 169.213 178.238 169.381 178.083C169.55 177.928 169.761 177.826 169.987 177.791C170.214 177.756 170.446 177.788 170.654 177.884C170.862 177.98 171.037 178.136 171.156 178.331C171.275 178.526 171.333 178.752 171.323 178.98C171.318 179.131 171.283 179.279 171.22 179.416C171.157 179.553 171.068 179.676 170.957 179.778C170.845 179.881 170.715 179.96 170.573 180.012C170.43 180.063 170.279 180.086 170.128 180.079Z" fill="#D6D6D6"/>
<path d="M186.231 147.347C186.002 147.34 185.781 147.265 185.595 147.132C185.409 146.998 185.266 146.814 185.186 146.6C185.106 146.387 185.091 146.154 185.144 145.932C185.196 145.71 185.314 145.509 185.481 145.354C185.649 145.198 185.859 145.096 186.086 145.06C186.312 145.023 186.544 145.055 186.752 145.15C186.96 145.245 187.136 145.399 187.256 145.593C187.376 145.787 187.435 146.013 187.426 146.241C187.413 146.544 187.28 146.83 187.056 147.037C186.833 147.244 186.537 147.355 186.231 147.347Z" fill="#FFE794"/>
<path d="M85.5524 73.195C85.3231 73.1874 85.1012 73.1121 84.915 72.9787C84.7288 72.8454 84.5866 72.6599 84.5066 72.446C84.4265 72.232 84.4122 71.9992 84.4655 71.7772C84.5187 71.5551 84.6371 71.3538 84.8055 71.1989C84.974 71.0439 85.185 70.9423 85.4116 70.9068C85.6383 70.8714 85.8704 70.9039 86.0785 71C86.2866 71.0962 86.4613 71.2517 86.5804 71.4468C86.6994 71.642 86.7575 71.8679 86.7472 72.096C86.7335 72.3988 86.6004 72.684 86.3767 72.8897C86.153 73.0955 85.8568 73.2052 85.5524 73.195Z" fill="#D6D6D6"/>
<path d="M105.781 163.743C105.552 163.735 105.33 163.66 105.144 163.527C104.958 163.393 104.816 163.208 104.736 162.994C104.656 162.78 104.641 162.547 104.694 162.325C104.748 162.103 104.866 161.902 105.035 161.747C105.203 161.592 105.414 161.49 105.641 161.455C105.867 161.419 106.099 161.452 106.308 161.548C106.516 161.644 106.69 161.8 106.809 161.995C106.928 162.19 106.986 162.416 106.976 162.644C106.963 162.947 106.829 163.232 106.606 163.438C106.382 163.643 106.086 163.753 105.781 163.743Z" fill="#D6D6D6"/>
<path d="M12.4064 160.76C12.1771 160.752 11.9552 160.677 11.769 160.544C11.5828 160.41 11.4406 160.225 11.3606 160.011C11.2806 159.797 11.2663 159.564 11.3195 159.342C11.3727 159.12 11.4911 158.919 11.6595 158.764C11.828 158.609 12.039 158.507 12.2657 158.472C12.4923 158.436 12.7245 158.469 12.9326 158.565C13.1407 158.661 13.3153 158.817 13.4344 159.012C13.5535 159.207 13.6115 159.433 13.6012 159.661C13.5875 159.964 13.4544 160.249 13.2308 160.455C13.0071 160.66 12.7109 160.77 12.4064 160.76Z" fill="#FFE794"/>
<path d="M138.747 194.427C138.519 194.418 138.298 194.341 138.113 194.207C137.928 194.074 137.787 193.888 137.708 193.675C137.628 193.461 137.615 193.229 137.668 193.008C137.721 192.786 137.84 192.586 138.008 192.431C138.176 192.276 138.386 192.175 138.612 192.139C138.838 192.103 139.069 192.135 139.277 192.23C139.485 192.325 139.66 192.48 139.78 192.674C139.899 192.868 139.958 193.093 139.95 193.32C139.945 193.472 139.91 193.621 139.847 193.759C139.783 193.897 139.693 194.021 139.581 194.124C139.469 194.227 139.338 194.306 139.195 194.358C139.052 194.41 138.9 194.434 138.747 194.427Z" fill="#FFE794"/>
<path d="M49.9187 198.763C49.6883 198.76 49.4641 198.688 49.2748 198.558C49.0856 198.427 48.9398 198.243 48.8563 198.029C48.7728 197.815 48.7553 197.582 48.8061 197.358C48.8568 197.135 48.9736 196.931 49.1413 196.774C49.309 196.617 49.52 196.513 49.7474 196.476C49.9748 196.438 50.2081 196.47 50.4175 196.565C50.627 196.661 50.8029 196.817 50.9229 197.012C51.0429 197.208 51.1014 197.435 51.0909 197.664C51.0792 197.963 50.9498 198.246 50.7306 198.452C50.5114 198.657 50.2198 198.769 49.9187 198.763Z" fill="#FFE794"/>
<path d="M33.9579 114.204C33.729 114.195 33.5079 114.118 33.3228 113.984C33.1376 113.85 32.9966 113.664 32.9177 113.45C32.8388 113.236 32.8256 113.003 32.8796 112.782C32.9336 112.56 33.0525 112.36 33.2212 112.205C33.39 112.051 33.6009 111.95 33.8273 111.915C34.0537 111.881 34.2854 111.913 34.4931 112.01C34.7008 112.106 34.875 112.261 34.9938 112.456C35.1126 112.651 35.1705 112.877 35.1603 113.105C35.1545 113.256 35.1187 113.404 35.055 113.541C34.9913 113.678 34.901 113.801 34.7892 113.903C34.6775 114.006 34.5465 114.085 34.4038 114.136C34.2611 114.188 34.1096 114.211 33.9579 114.204Z" fill="#FFE794"/>
<path d="M1.11213 39.1918C0.883123 39.1843 0.661538 39.1092 0.475439 38.9762C0.289341 38.8432 0.147116 38.6582 0.0667866 38.4447C-0.0135421 38.2312 -0.0283505 37.9988 0.0242244 37.7769C0.0767995 37.555 0.194389 37.3536 0.362108 37.1983C0.529828 37.043 0.740116 36.9407 0.966327 36.9044C1.19254 36.8681 1.42449 36.8994 1.63278 36.9944C1.84108 37.0894 2.01632 37.2438 2.13633 37.438C2.25635 37.6322 2.31575 37.8575 2.30695 38.0853C2.29327 38.3888 2.16041 38.6747 1.93696 38.8817C1.7135 39.0886 1.4173 39.2 1.11213 39.1918Z" fill="#FFE794"/>
<path d="M41.6377 43.1693C41.4077 43.163 41.1848 43.0887 40.9975 42.9558C40.8102 42.8229 40.6669 42.6375 40.586 42.4232C40.5051 42.2089 40.4902 41.9755 40.5433 41.7527C40.5964 41.53 40.715 41.328 40.8839 41.1727C41.0529 41.0173 41.2646 40.9156 41.492 40.8805C41.7193 40.8455 41.952 40.8786 42.1604 40.9757C42.3687 41.0729 42.5432 41.2296 42.6616 41.4259C42.78 41.6222 42.8369 41.8491 42.825 42.0777C42.8076 42.3772 42.6741 42.6582 42.4527 42.8618C42.2313 43.0654 41.9392 43.1756 41.6377 43.1693Z" fill="#D6D6D6"/>
<path d="M61.228 68.3278C60.9987 68.3202 60.7768 68.2449 60.5906 68.1115C60.4044 67.9782 60.2622 67.7927 60.1822 67.5788C60.1021 67.3648 60.0878 67.1321 60.1411 66.91C60.1943 66.688 60.3127 66.4867 60.4811 66.3317C60.6496 66.1767 60.8606 66.0751 61.0873 66.0397C61.3139 66.0043 61.5461 66.0367 61.7542 66.1328C61.9623 66.229 62.1369 66.3845 62.256 66.5797C62.3751 66.7748 62.4331 67.0008 62.4228 67.2288C62.4091 67.5316 62.276 67.8168 62.0523 68.0225C61.8287 68.2283 61.5325 68.338 61.228 68.3278Z" fill="#D6D6D6"/>
<path d="M165.83 130.891C165.601 130.882 165.38 130.806 165.194 130.671C165.009 130.537 164.868 130.351 164.789 130.137C164.711 129.923 164.697 129.691 164.751 129.469C164.805 129.248 164.924 129.047 165.093 128.893C165.262 128.739 165.473 128.638 165.699 128.603C165.925 128.568 166.157 128.601 166.365 128.697C166.572 128.794 166.747 128.949 166.865 129.144C166.984 129.339 167.042 129.565 167.032 129.792C167.018 130.096 166.884 130.383 166.659 130.589C166.433 130.795 166.135 130.903 165.83 130.891Z" fill="#D6D6D6"/>
<path d="M59.5448 128.058C59.2537 128.026 58.9856 127.885 58.7945 127.665C58.6034 127.444 58.5035 127.159 58.515 126.868C58.5264 126.577 58.6483 126.301 58.8562 126.096C59.064 125.891 59.3423 125.772 59.6349 125.762C59.7937 125.757 59.9518 125.785 60.0994 125.843C60.247 125.902 60.3809 125.99 60.4927 126.102C60.6046 126.214 60.6921 126.348 60.7498 126.495C60.8074 126.643 60.8339 126.8 60.8277 126.958C60.8215 127.116 60.7827 127.271 60.7137 127.413C60.6447 127.556 60.547 127.682 60.4266 127.786C60.3063 127.889 60.1659 127.966 60.0142 128.013C59.8624 128.06 59.7027 128.075 59.5448 128.058Z" fill="#D6D6D6"/>
<path d="M77.3015 182.307C77.0725 182.3 76.8509 182.225 76.6648 182.092C76.4787 181.959 76.3364 181.774 76.2561 181.56C76.1758 181.347 76.161 181.114 76.2136 180.892C76.2661 180.67 76.3837 180.469 76.5515 180.314C76.7192 180.158 76.9295 180.056 77.1557 180.02C77.3819 179.983 77.6138 180.015 77.8221 180.11C78.0304 180.205 78.2057 180.359 78.3257 180.553C78.4457 180.748 78.5051 180.973 78.4963 181.201C78.4826 181.504 78.3497 181.79 78.1263 181.997C77.9028 182.204 77.6067 182.315 77.3015 182.307Z" fill="#D6D6D6"/>
<g clip-path="url(#clip2)">
<path d="M291.37 55.8546C291.37 55.8546 265.994 59.5197 242.926 80.8692C242.619 81.1407 242.376 81.4857 242.215 81.8767C242.055 82.2677 241.981 82.6938 242.001 83.1209C242.062 83.9646 242.509 84.8466 244.13 84.9945C248.196 85.367 257.064 67.1512 291.37 55.8546Z" fill="#D6D6D6"/>
<path d="M293.676 55.4489C293.676 55.5365 293.315 55.6514 292.858 55.7116C292.401 55.7719 292.009 55.7554 292.004 55.6733C291.999 55.5912 292.36 55.4708 292.822 55.4106C293.285 55.3504 293.666 55.3668 293.676 55.4489Z" fill="#D6D6D6"/>
<path d="M295.694 55.2078C295.694 55.2679 295.44 55.3554 295.109 55.3992C294.779 55.4429 294.5 55.4265 294.494 55.3664C294.489 55.3062 294.754 55.2242 295.084 55.1804C295.414 55.1367 295.689 55.1531 295.694 55.2078Z" fill="#D6D6D6"/>
<path d="M297 55.0438C297 55.093 296.792 55.1642 296.522 55.1971C296.253 55.2299 296.014 55.1971 296.014 55.1971C296.014 55.1971 296.222 55.0766 296.497 55.0438C296.771 55.0109 296.995 55 297 55.0438Z" fill="#D6D6D6"/>
<path d="M244.236 84.392C245.106 84.392 245.812 83.6316 245.812 82.6937C245.812 81.7557 245.106 80.9954 244.236 80.9954C243.366 80.9954 242.661 81.7557 242.661 82.6937C242.661 83.6316 243.366 84.392 244.236 84.392Z" fill="white" stroke="#263238" stroke-linecap="round" stroke-linejoin="round"/>
</g>
<g clip-path="url(#clip3)">
<path d="M199.802 57.7971C199.802 57.7971 180.886 61.2179 163.69 81.1441C163.461 81.3974 163.28 81.7195 163.16 82.0844C163.04 82.4493 162.985 82.847 163 83.2456C163.045 84.0331 163.379 84.8563 164.587 84.9943C167.618 85.342 174.229 68.3406 199.802 57.7971Z" fill="#D6D6D6"/>
<path d="M201.522 57.4186C201.522 57.5002 201.253 57.6074 200.912 57.6636C200.571 57.7197 200.28 57.7044 200.276 57.6278C200.272 57.5513 200.541 57.439 200.886 57.3829C201.231 57.3267 201.515 57.342 201.522 57.4186Z" fill="#D6D6D6"/>
<path d="M203.026 57.1937C203.026 57.2499 202.837 57.3317 202.591 57.3725C202.344 57.4134 202.136 57.3981 202.132 57.3419C202.128 57.2857 202.325 57.209 202.572 57.1682C202.818 57.1273 203.023 57.1426 203.026 57.1937Z" fill="#D6D6D6"/>
<path d="M204 57.0415C204 57.0875 203.845 57.154 203.644 57.1847C203.443 57.2154 203.265 57.1847 203.265 57.1847C203.265 57.1847 203.42 57.0722 203.625 57.0415C203.83 57.0108 203.996 57.0006 204 57.0415Z" fill="#D6D6D6"/>
<path d="M164.667 84.4325C165.316 84.4325 165.841 83.7229 165.841 82.8474C165.841 81.972 165.316 81.2623 164.667 81.2623C164.018 81.2623 163.493 81.972 163.493 82.8474C163.493 83.7229 164.018 84.4325 164.667 84.4325Z" fill="white" stroke="#263238" stroke-linecap="round" stroke-linejoin="round"/>
</g>
</g>
<g clip-path="url(#clip4)">
<path d="M58.9969 105.687C78.708 105.687 94.687 89.7081 94.687 69.997C94.687 50.2859 78.708 34.3069 58.9969 34.3069C39.2858 34.3069 23.3068 50.2859 23.3068 69.997C23.3068 89.7081 39.2858 105.687 58.9969 105.687Z" fill="#FFD647" stroke="#263238" stroke-linecap="round" stroke-linejoin="round"/>
<path d="M25.921 75.5383C26.6705 80.0309 28.3275 84.3237 30.7911 88.1546C33.2547 91.9855 36.4731 95.2743 40.2498 97.8201" fill="#FFD647"/>
<path d="M25.921 75.5383C26.6705 80.0309 28.3275 84.3237 30.7911 88.1546C33.2547 91.9855 36.4731 95.2743 40.2498 97.8201" stroke="#263238" stroke-linecap="round" stroke-linejoin="round"/>
<path d="M26.2646 62.6823C25.7264 65.0833 25.4547 67.5364 25.4546 69.997L26.2646 62.6823Z" fill="#FFD647"/>
<path d="M26.2646 62.6823C25.7264 65.0833 25.4547 67.5364 25.4546 69.997" stroke="#263238" stroke-linecap="round" stroke-linejoin="round"/>
<path d="M28.2774 56.5211C27.7941 57.629 27.3701 58.7617 27.0072 59.9146L28.2774 56.5211Z" fill="#FFD647"/>
<path d="M28.2774 56.5211C27.7941 57.629 27.3701 58.7617 27.0072 59.9146" stroke="#263238" stroke-linecap="round" stroke-linejoin="round"/>
<path d="M36.7029 75.3357C37.3165 77.9806 36.261 80.4659 34.4017 80.8586C32.5423 81.2514 30.5725 79.4534 29.9895 76.8024C29.4065 74.1514 30.4313 71.6722 32.2846 71.2795C34.1378 70.8867 36.1199 72.6602 36.7029 75.3357Z" fill="#FFD647" stroke="#263238" stroke-linecap="round" stroke-linejoin="round"/>
<path d="M84.9892 85.4849C86.9345 81.6949 86.1137 77.3917 83.1558 75.8736C80.198 74.3554 76.2232 76.1971 74.2778 79.9871C72.3325 83.7772 73.1534 88.0803 76.1112 89.5985C79.0691 91.1167 83.0439 89.275 84.9892 85.4849Z" fill="#FFD647" stroke="#263238" stroke-linecap="round" stroke-linejoin="round"/>
<path d="M35.8008 59.2457C35.8008 60.3994 35.1442 61.3321 34.3281 61.3321C33.5119 61.3321 32.8553 60.3994 32.8553 59.2457C32.8553 58.0921 33.5119 57.1593 34.3281 57.1593C35.1442 57.1593 35.8008 58.0921 35.8008 59.2457Z" fill="#FFD647" stroke="#263238" stroke-linecap="round" stroke-linejoin="round"/>
<path d="M46.2575 91.4933C47.0859 92.5671 47.1411 93.911 46.3864 94.4879C45.6316 95.0647 44.3552 94.6597 43.5267 93.5797C42.6983 92.4996 42.6431 91.1619 43.3979 90.585C44.1527 90.0082 45.4352 90.4132 46.2575 91.4933Z" fill="#FFD647" stroke="#263238" stroke-linecap="round" stroke-linejoin="round"/>
<path d="M54.1245 99.7531C53.9097 100.465 52.6824 100.729 51.3876 100.367C50.0928 100.005 49.203 99.0842 49.4178 98.3662C49.6326 97.6482 50.8599 97.3905 52.1608 97.7526C53.4618 98.1146 54.3393 99.0474 54.1245 99.7531Z" fill="#FFD647" stroke="#263238" stroke-linecap="round" stroke-linejoin="round"/>
<path d="M73.9333 94.1381C74.2831 94.8008 73.5896 95.8502 72.3869 96.4761C71.1841 97.102 69.9323 97.0897 69.5825 96.4209C69.2327 95.752 69.9261 94.7149 71.1289 94.0828C72.3316 93.4508 73.5835 93.4508 73.9333 94.1381Z" fill="#FFD647" stroke="#263238" stroke-linecap="round" stroke-linejoin="round"/>
<path d="M63.0716 40.7503C63.0716 41.4928 61.9363 42.0696 60.5802 42.0267C59.224 41.9837 58.1255 41.3517 58.1624 40.603C58.1992 39.8544 59.3038 39.2837 60.6599 39.3266C62.0161 39.3696 63.0961 40.02 63.0716 40.7503Z" fill="#FFD647" stroke="#263238" stroke-linecap="round" stroke-linejoin="round"/>
<path d="M62.3475 94.4327C61.6847 96.8873 58.236 98.0226 54.6339 97.0469C51.0317 96.0712 48.6507 93.3097 49.3073 90.9103C49.964 88.5109 53.4188 87.3205 57.021 88.2962C60.6231 89.2719 63.0041 92.0088 62.3475 94.4327Z" fill="#FFD647" stroke="#263238" stroke-linecap="round" stroke-linejoin="round"/>
<path d="M60.7458 92.426C60.9516 92.9329 60.9861 93.4932 60.844 94.0215C60.439 95.525 58.6349 96.4025 56.5055 96.292" fill="#FFD647"/>
<path d="M60.7458 92.426C60.9516 92.9329 60.9861 93.4932 60.844 94.0215C60.439 95.525 58.6349 96.4025 56.5055 96.292" stroke="#263238" stroke-linecap="round" stroke-linejoin="round"/>
<path d="M58.6287 90.0819C59.0252 90.3201 59.3937 90.6021 59.7272 90.9226L58.6287 90.0819Z" fill="#FFD647"/>
<path d="M58.6287 90.0819C59.0252 90.3201 59.3937 90.6021 59.7272 90.9226" stroke="#263238" stroke-linecap="round" stroke-linejoin="round"/>
<path d="M49.4362 78.5329C53.8455 78.5329 57.4198 74.9036 57.4198 70.4266C57.4198 65.9495 53.8455 62.3202 49.4362 62.3202C45.027 62.3202 41.4526 65.9495 41.4526 70.4266C41.4526 74.9036 45.027 78.5329 49.4362 78.5329Z" fill="#FFD647" stroke="#263238" stroke-linecap="round" stroke-linejoin="round"/>
<path d="M54.0325 76.0476C53.2707 76.6881 52.3849 77.1644 51.4306 77.4467L54.0325 76.0476Z" fill="#FFD647"/>
<path d="M54.0325 76.0476C53.2707 76.6881 52.3849 77.1644 51.4306 77.4467" stroke="#263238" stroke-linecap="round" stroke-linejoin="round"/>
<path d="M50.4426 63.1854C52.1727 63.4465 53.7509 64.3222 54.888 65.652C56.0251 66.9819 56.6451 68.6769 56.6344 70.4265C56.6365 71.9007 56.1961 73.3415 55.3702 74.5626" fill="#FFD647"/>
<path d="M50.4426 63.1854C52.1727 63.4465 53.7509 64.3222 54.888 65.652C56.0251 66.9819 56.6451 68.6769 56.6344 70.4265C56.6365 71.9007 56.1961 73.3415 55.3702 74.5626" stroke="#263238" stroke-linecap="round" stroke-linejoin="round"/>
<path d="M88.1332 61.2095C88.0855 61.8035 87.8659 62.3709 87.5011 62.8421C87.1363 63.3134 86.6421 63.6682 86.079 63.8633C85.5158 64.0583 84.9081 64.0852 84.3299 63.9405C83.7518 63.7958 83.2283 63.4859 82.8234 63.0486C82.4185 62.6113 82.1497 62.0656 82.0499 61.478C81.95 60.8905 82.0235 60.2866 82.2612 59.7401C82.4989 59.1936 82.8907 58.7281 83.3886 58.4006C83.8865 58.0731 84.469 57.8977 85.0649 57.8958C85.9103 57.9309 86.7075 58.2991 87.2824 58.9199C87.8572 59.5408 88.1631 60.3639 88.1332 61.2095Z" fill="#FFD647" stroke="#263238" stroke-linecap="round" stroke-linejoin="round"/>
<path d="M79.8673 49.679C79.3396 50.3847 78.1613 50.4031 77.2347 49.7158C76.3081 49.0285 76.0074 47.8748 76.5045 47.1937C77.0015 46.5125 78.2043 46.4634 79.1371 47.1507C80.0698 47.838 80.3889 48.9671 79.8673 49.679Z" fill="#FFD647" stroke="#263238" stroke-linecap="round" stroke-linejoin="round"/>
<path d="M51.0071 60.9947L51.1483 59.6201" stroke="#263238" stroke-linecap="round" stroke-linejoin="round"/>
<path d="M45.7911 59.6201L46.3434 60.9947" stroke="#263238" stroke-linecap="round" stroke-linejoin="round"/>
<path d="M42.3608 76.7841L41.3973 78.0175" stroke="#263238" stroke-linecap="round" stroke-linejoin="round"/>
<path d="M53.7563 78.8397L54.7136 80.9016" stroke="#263238" stroke-linecap="round" stroke-linejoin="round"/>
<path d="M58.8312 71.0156L61.1693 71.4268" stroke="#263238" stroke-linecap="round" stroke-linejoin="round"/>
<path d="M57.0516 64.29L57.8739 63.1915" stroke="#263238" stroke-linecap="round" stroke-linejoin="round"/>
<path d="M40.4401 69.3711H39.2005" stroke="#263238" stroke-linecap="round" stroke-linejoin="round"/>
<path d="M43.0481 65.2473L41.8085 64.8362" stroke="#263238" stroke-linecap="round" stroke-linejoin="round"/>
</g>
<defs>
<clipPath id="clip0">
<rect width="118" height="101" fill="white" transform="translate(264 116)"/>
</clipPath>
<clipPath id="clip1">
<rect width="393" height="226" fill="white" transform="translate(393 226) rotate(-180)"/>
</clipPath>
<clipPath id="clip2">
<rect width="55" height="30" fill="white" transform="translate(242 55)"/>
</clipPath>
<clipPath id="clip3">
<rect width="41" height="28" fill="white" transform="translate(163 57)"/>
</clipPath>
<clipPath id="clip4">
<rect width="72" height="72" fill="white" transform="translate(23 34.0001)"/>
</clipPath>
</defs>
</svg>
