<svg width="371" height="314" viewBox="0 0 371 314" fill="none" xmlns="http://www.w3.org/2000/svg">
<g clip-path="url(#clip0)">
<path d="M306 65.64C250.22 66.18 232 58.52 225.93 50.47C219.86 42.42 216.48 32.26 217.37 22.25C218.14 13.63 222.99 4.58996 231.31 2.24996C237.92 0.36996 245.36 3.34996 249.69 8.68996C254.4 14.5 255.92 22.69 261.69 27.53C260.49 17.6 269.42 7.68996 279.42 7.83996C289.42 7.98996 298 18.13 296.56 28C300.24 22.31 307.31 18.57 313.92 20C320.53 21.43 325.55 29 323.32 35.35C328.173 32.6501 333.763 31.575 339.271 32.2822C344.779 32.9894 349.916 35.4417 353.93 39.28C355.566 40.7918 356.803 42.6846 357.53 44.79C358.85 49.16 356.65 54.01 353.19 56.99C349.73 59.97 345.19 61.43 340.8 62.54C329.434 65.3692 317.692 66.3817 306.01 65.54" fill="#F4F3FF"/>
<path d="M67.79 70.9999C63.5507 70.8858 59.3799 69.9031 55.5356 68.1125C51.6913 66.3219 48.2552 63.7616 45.44 60.5899C42.56 57.2999 40.36 53.2299 40.12 48.8599C39.88 44.4899 41.93 39.8599 45.8 37.8599C51.37 34.8599 58.12 37.9599 63.65 40.9999C63.91 37.3299 62.43 33.7799 61.12 30.3299C59.5687 26.7146 58.6358 22.8644 58.36 18.9399C58.2696 16.334 58.7166 13.7373 59.6732 11.3115C60.6297 8.88578 62.0753 6.68287 63.92 4.83995C65.7828 3.01179 68.0458 1.64253 70.5296 0.840633C73.0134 0.0387333 75.6498 -0.173773 78.23 0.219948C84.03 1.21995 88.89 5.55995 91.63 10.7699C94.37 15.9799 95.19 21.9999 95.19 27.8999C96.3 25.3646 97.9742 23.1161 100.085 21.3259C102.196 19.5357 104.687 18.2511 107.37 17.5699C112.76 16.3899 118.89 18.4699 121.95 23.0699C125.01 27.6699 124.32 34.5599 120.04 38.0699C123.66 36.9564 127.479 36.6492 131.23 37.1699C134.94 37.8399 138.54 39.9299 140.31 43.2699C142.08 46.6099 141.56 51.1999 138.63 53.5799C141.614 53.0178 144.684 53.1064 147.63 53.8399C149.58 54.3299 151.63 55.2399 152.54 57.0299C152.921 57.9085 153.07 58.8705 152.972 59.8233C152.874 60.776 152.532 61.6875 151.98 62.4699C150.853 64.0257 149.39 65.3075 147.7 66.2199C141.13 70.1799 124 72.9999 67.79 70.9999Z" fill="#F4F3FF"/>
<path d="M326.67 123.31C324.685 123.253 322.732 122.79 320.933 121.949C319.134 121.108 317.527 119.907 316.21 118.42C314.8 116.914 313.928 114.984 313.73 112.93C313.647 111.907 313.852 110.881 314.32 109.968C314.788 109.055 315.501 108.29 316.38 107.76C318.99 106.37 322.15 107.76 324.74 109.23C324.712 107.497 324.306 105.79 323.55 104.23C322.827 102.537 322.391 100.736 322.26 98.9C322.224 97.6811 322.435 96.4676 322.882 95.333C323.329 94.1985 324.002 93.1666 324.86 92.3C325.733 91.4468 326.794 90.8091 327.957 90.4376C329.12 90.0661 330.354 89.971 331.56 90.16C332.909 90.4589 334.174 91.0584 335.259 91.9137C336.345 92.769 337.224 93.8581 337.83 95.1C339.021 97.5939 339.594 100.338 339.5 103.1C340.017 101.911 340.8 100.857 341.788 100.018C342.776 99.1787 343.943 98.5774 345.2 98.26C346.464 97.9754 347.783 98.0671 348.995 98.5238C350.207 98.9805 351.259 99.7823 352.02 100.83C352.726 101.913 353.024 103.211 352.861 104.493C352.698 105.776 352.084 106.958 351.13 107.83C352.822 107.313 354.607 107.17 356.36 107.41C357.236 107.537 358.073 107.859 358.809 108.352C359.544 108.845 360.16 109.497 360.61 110.26C361.033 111.038 361.186 111.934 361.045 112.808C360.903 113.682 360.476 114.485 359.83 115.09C361.222 114.83 362.655 114.871 364.03 115.21C364.495 115.283 364.94 115.453 365.334 115.71C365.729 115.967 366.065 116.304 366.32 116.7C366.501 117.111 366.572 117.562 366.526 118.009C366.48 118.456 366.32 118.884 366.06 119.25C365.534 119.979 364.85 120.581 364.06 121.01C361 122.87 352.96 124.18 326.67 123.27" fill="#F4F3FF"/>
<path d="M22.07 313.34H285.7C289.26 313.34 292.82 313.41 296.38 313.34H296.85C297.93 313.34 297.94 311.34 296.85 311.34H33.23C29.67 311.34 26.1 311.27 22.54 311.34H22.07C20.99 311.34 20.99 313.34 22.07 313.34Z" fill="#13084A"/>
<path d="M313.14 313.34H334.68C335.61 313.34 335.61 311.34 334.68 311.34H313.14C312.2 311.34 312.2 313.34 313.14 313.34Z" fill="#13084A"/>
<g opacity="0.46">
<path opacity="0.46" d="M198.46 54.4299C198.725 54.4299 198.98 54.3246 199.167 54.137C199.355 53.9495 199.46 53.6951 199.46 53.4299C199.46 53.1647 199.355 52.9104 199.167 52.7228C198.98 52.5353 198.725 52.4299 198.46 52.4299C198.195 52.4299 197.94 52.5353 197.753 52.7228C197.565 52.9104 197.46 53.1647 197.46 53.4299C197.46 53.6951 197.565 53.9495 197.753 54.137C197.94 54.3246 198.195 54.4299 198.46 54.4299Z" fill="white"/>
</g>
<path d="M126.25 184.72C121.712 182.248 117.393 179.395 113.34 176.19C109.328 173.018 105.582 169.523 102.14 165.74C95.1867 158.119 89.5072 149.428 85.32 140C83.2451 135.307 81.5725 130.446 80.32 125.47C80.16 124.85 80.01 124.23 79.87 123.61C79.8 123.32 79.37 123.47 79.44 123.75C80.6038 128.803 82.1963 133.747 84.2 138.53C86.1908 143.284 88.5688 147.866 91.31 152.23C96.8026 161.012 103.678 168.85 111.67 175.44C115.651 178.713 119.899 181.647 124.37 184.21L126.05 185.14C126.3 185.28 126.5 184.88 126.25 184.74V184.72Z" fill="#E4E4F9"/>
<path d="M80.77 127.24C77.6 125.8 74.32 121.53 73.64 117.35C73.4102 116.168 73.4102 114.952 73.64 113.77C73.8403 112.579 74.4832 111.507 75.44 110.77C75.8723 110.5 76.3664 110.344 76.8756 110.318C77.3847 110.292 77.8922 110.396 78.35 110.62C80.65 111.62 81.94 114.62 82.14 117.76C82.1887 120.964 81.7193 124.155 80.75 127.21" fill="#E4E4F9"/>
<path d="M84.74 138.23C81.68 139.89 76.29 139.94 72.55 137.96C71.4701 137.425 70.5026 136.689 69.7 135.79C68.8906 134.911 68.4346 133.765 68.42 132.57C68.4633 132.061 68.6357 131.572 68.921 131.148C69.2062 130.725 69.5948 130.381 70.05 130.15C72.25 128.93 75.43 129.71 78.05 131.43C80.6392 133.319 82.9052 135.616 84.76 138.23" fill="#E4E4F9"/>
<path d="M84.43 138.72C83.34 135.41 84.24 130.1 86.85 126.72C87.5639 125.755 88.4568 124.937 89.48 124.31C90.4892 123.668 91.6992 123.419 92.88 123.61C93.3687 123.74 93.8166 123.992 94.182 124.341C94.5474 124.691 94.8184 125.127 94.97 125.61C95.78 127.99 94.46 130.98 92.31 133.24C89.9875 135.448 87.3274 137.271 84.43 138.64" fill="#E4E4F9"/>
<path d="M92.77 153.3C90 155.4 84.68 156.3 80.68 154.89C79.5333 154.527 78.4672 153.946 77.54 153.18C76.6011 152.433 75.9737 151.364 75.78 150.18C75.7445 149.674 75.8378 149.168 76.0512 148.708C76.2645 148.248 76.591 147.849 77 147.55C79 146.01 82.25 146.3 85.08 147.55C87.929 149.021 90.5195 150.946 92.75 153.25" fill="#E4E4F9"/>
<path d="M92.53 153.83C90.95 150.73 91.03 145.34 93.1 141.64C93.6654 140.578 94.4253 139.632 95.34 138.85C96.2386 138.064 97.3959 137.636 98.59 137.65C99.0978 137.706 99.5829 137.89 99.9994 138.186C100.416 138.482 100.75 138.879 100.97 139.34C102.13 141.57 101.28 144.73 99.5 147.29C97.5346 149.833 95.1708 152.042 92.5 153.83" fill="#E4E4F9"/>
<path d="M103.63 167.3C101.18 169.78 96.04 171.38 91.88 170.58C90.695 170.376 89.5586 169.952 88.53 169.33C87.5008 168.723 86.7317 167.758 86.37 166.62C86.2621 166.119 86.2845 165.598 86.435 165.108C86.5856 164.618 86.8593 164.174 87.23 163.82C88.99 162.02 92.23 161.82 95.23 162.74C98.2559 163.794 101.09 165.334 103.62 167.3" fill="#E4E4F9"/>
<path d="M103.47 167.86C101.47 165.01 100.79 159.67 102.32 155.72C102.728 154.588 103.345 153.543 104.14 152.64C104.924 151.736 106.013 151.152 107.2 151C107.71 150.985 108.216 151.1 108.669 151.334C109.122 151.569 109.508 151.915 109.79 152.34C111.25 154.34 110.85 157.63 109.45 160.42C107.867 163.212 105.84 165.728 103.45 167.87" fill="#E4E4F9"/>
<path d="M115.77 178C114.747 179.338 113.441 180.434 111.946 181.21C110.451 181.986 108.803 182.423 107.12 182.49C106.158 182.533 105.198 182.39 104.29 182.07C103.387 181.76 102.63 181.131 102.16 180.3C101.993 179.925 101.925 179.514 101.964 179.106C102.002 178.698 102.146 178.306 102.38 177.97C103.45 176.28 105.98 175.6 108.46 175.81C110.999 176.142 113.467 176.882 115.77 178Z" fill="#E4E4F9"/>
<path d="M115.74 178.49C114.605 177.245 113.757 175.766 113.258 174.157C112.758 172.548 112.619 170.849 112.85 169.18C112.982 168.226 113.294 167.307 113.77 166.47C114.231 165.632 114.986 164.994 115.89 164.68C116.288 164.584 116.703 164.591 117.097 164.701C117.491 164.812 117.85 165.021 118.14 165.31C119.61 166.67 119.83 169.31 119.14 171.68C118.366 174.122 117.201 176.422 115.69 178.49" fill="#E4E4F9"/>
<path d="M118 277.09C114.332 280.817 109.635 283.362 104.51 284.4C99.4048 285.42 94.1576 285.511 89.02 284.67C73.2143 282.328 58.8325 274.225 48.64 261.92C50.5104 260.094 52.8115 258.77 55.33 258.07C64.706 254.844 74.7699 254.162 84.4953 256.095C94.2207 258.027 103.26 262.504 110.69 269.07C112.77 270.91 116.69 274.64 118 277.07" fill="#90AEE4"/>
<path d="M53.3 262.35C61.4957 263.842 69.6043 265.778 77.59 268.15C85.59 270.41 93.59 272.8 101.7 274.7C106.23 275.76 110.8 276.7 115.42 277.29C115.83 277.35 115.96 276.71 115.54 276.65C107.314 275.418 99.1799 273.641 91.19 271.33C83.19 269.12 75.19 266.68 67.09 264.64C62.58 263.5 58.03 262.49 53.43 261.71C53.02 261.64 52.89 262.28 53.3 262.35Z" fill="white"/>
<path d="M104.84 274.93C100.005 277.446 94.8468 279.284 89.51 280.39C87.9967 280.703 86.4767 280.953 84.95 281.14C84.54 281.19 84.59 281.84 84.95 281.79C87.694 281.447 90.4106 280.912 93.08 280.19C95.7474 279.476 98.3606 278.574 100.9 277.49C102.34 276.87 103.757 276.203 105.15 275.49C105.22 275.441 105.269 275.367 105.286 275.283C105.303 275.199 105.286 275.112 105.24 275.04C105.191 274.969 105.117 274.921 105.033 274.904C104.949 274.887 104.862 274.904 104.79 274.95L104.84 274.93Z" fill="white"/>
<path d="M96.22 272.57C94.8451 270.338 93.1351 268.332 91.15 266.62C89.1353 264.892 86.9888 263.324 84.73 261.93C83.46 261.13 82.17 260.35 80.88 259.58C80.52 259.37 80.23 259.95 80.59 260.16C82.83 261.5 85.08 262.85 87.22 264.36C89.3564 265.834 91.3248 267.537 93.09 269.44C94.066 270.515 94.9336 271.684 95.68 272.93C95.9 273.29 96.44 272.93 96.22 272.57Z" fill="white"/>
<path d="M81.88 268.8C78.4621 270.09 74.8871 270.917 71.25 271.26C70.25 271.36 69.25 271.41 68.19 271.43C67.77 271.43 67.82 272.09 68.19 272.08C71.8716 272.011 75.5274 271.449 79.06 270.41C80.06 270.12 81.06 269.79 82.06 269.41C82.45 269.26 82.24 268.65 81.85 268.79L81.88 268.8Z" fill="white"/>
<path d="M72 265.82C69.6052 263.099 66.6784 260.897 63.4 259.35C62.4782 258.919 61.5334 258.538 60.57 258.21C60.4925 258.198 60.4134 258.214 60.3468 258.256C60.2801 258.297 60.2303 258.36 60.2063 258.435C60.1822 258.509 60.1855 258.59 60.2155 258.663C60.2455 258.735 60.3002 258.794 60.37 258.83C63.6982 259.954 66.761 261.748 69.37 264.1C70.1164 264.776 70.8242 265.494 71.49 266.25C71.547 266.314 71.627 266.352 71.7123 266.357C71.7976 266.361 71.8813 266.332 71.945 266.275C72.0086 266.218 72.047 266.138 72.0517 266.053C72.0564 265.967 72.027 265.884 71.97 265.82H72Z" fill="white"/>
<path d="M234.28 296.75C232.82 287.75 234.64 278.44 238.48 270.19C242.32 261.94 248.09 254.7 254.6 248.34C274.691 228.828 301.285 217.431 329.27 216.34C330.1 220.83 328.95 225.43 327.51 229.76C322.008 246.245 312.232 260.977 299.179 272.452C286.127 283.927 270.264 291.735 253.21 295.08C248.45 296.01 239.07 297.5 234.28 296.72" fill="#E3E1FF"/>
<path d="M323.71 222.41C313 232.35 301.46 241.29 289.77 250C278.08 258.71 266.25 267.31 254.97 276.58C248.67 281.76 242.55 287.17 236.76 292.91C236.24 293.43 236.99 294.28 237.51 293.77C247.87 283.5 259.25 274.34 270.86 265.54C282.47 256.74 294.38 248.2 305.86 239.13C312.26 234.05 318.51 228.8 324.49 223.23C325.03 222.73 324.28 221.88 323.74 222.38L323.71 222.41Z" fill="#A4A4ED"/>
<path d="M251.31 280.73C252.124 276.029 253.266 271.391 254.73 266.85C256.188 262.31 257.959 257.876 260.03 253.58C261.21 251.147 262.483 248.767 263.85 246.44C264.21 245.81 263.26 245.18 262.85 245.82C257.951 254.189 254.248 263.203 251.85 272.6C251.183 275.267 250.61 277.953 250.13 280.66C250.122 280.81 250.173 280.956 250.272 281.069C250.371 281.181 250.511 281.25 250.66 281.26C250.81 281.266 250.957 281.214 251.07 281.116C251.183 281.017 251.255 280.879 251.27 280.73H251.31Z" fill="#A4A4ED"/>
<path d="M263.77 271.26C268.341 271.718 272.954 271.472 277.45 270.53C282.003 269.569 286.474 268.252 290.82 266.59C293.29 265.68 295.74 264.71 298.19 263.73C298.87 263.46 298.37 262.44 297.69 262.73C293.43 264.43 289.16 266.11 284.78 267.48C280.456 268.891 275.988 269.82 271.46 270.25C268.923 270.463 266.37 270.426 263.84 270.14C263.12 270.06 263.05 271.19 263.77 271.28V271.26Z" fill="#A4A4ED"/>
<path d="M284.29 255.3C286.138 249.171 288.794 243.316 292.19 237.89C293.143 236.37 294.143 234.89 295.19 233.45C295.63 232.86 294.67 232.24 294.24 232.82C290.424 238.026 287.317 243.716 285 249.74C284.33 251.45 283.74 253.19 283.21 254.94C283 255.64 284.08 256 284.29 255.3Z" fill="#A4A4ED"/>
<path d="M299 244.75C307.142 244.198 314.994 241.504 321.76 236.94C321.822 236.897 321.874 236.843 321.915 236.78C321.956 236.717 321.984 236.646 321.997 236.573C322.011 236.499 322.009 236.423 321.994 236.35C321.978 236.276 321.948 236.207 321.905 236.145C321.862 236.083 321.808 236.031 321.745 235.99C321.682 235.949 321.611 235.921 321.538 235.908C321.464 235.894 321.388 235.896 321.315 235.911C321.241 235.927 321.172 235.957 321.11 236C315.997 239.465 310.228 241.847 304.16 243C302.428 243.32 300.678 243.538 298.92 243.65C298.769 243.661 298.628 243.731 298.529 243.845C298.429 243.96 298.379 244.109 298.39 244.26C298.401 244.411 298.471 244.552 298.585 244.651C298.7 244.751 298.849 244.801 299 244.79V244.75Z" fill="#A4A4ED"/>
<path d="M121.41 171.3C120.018 166.324 119.051 161.239 118.52 156.1C117.992 151.014 117.878 145.894 118.18 140.79C118.793 130.495 121.059 120.365 124.89 110.79C126.804 106.007 129.119 101.393 131.81 96.9999C132.137 96.4599 132.47 95.9199 132.81 95.3799C132.97 95.1299 132.57 94.9299 132.41 95.1699C129.601 99.5301 127.172 104.124 125.15 108.9C123.134 113.643 121.508 118.542 120.29 123.55C117.84 133.614 117.026 144.007 117.88 154.33C118.319 159.466 119.182 164.556 120.46 169.55C120.62 170.17 120.79 170.78 120.96 171.4C121.04 171.68 121.47 171.54 121.39 171.26L121.41 171.3Z" fill="#FC6681"/>
<path d="M130.84 98.62C129.67 95.34 130.43 90.01 132.95 86.62C133.648 85.6429 134.519 84.8023 135.52 84.14C136.511 83.4704 137.716 83.1925 138.9 83.36C139.4 83.4811 139.86 83.7287 140.236 84.079C140.613 84.4292 140.893 84.8703 141.05 85.36C141.92 87.72 140.67 90.74 138.58 93.05C136.324 95.3301 133.709 97.2252 130.84 98.66" fill="#FC6681"/>
<path d="M125.74 109.13C122.42 108.13 118.62 104.27 117.42 100.21C117.06 99.063 116.914 97.8596 116.99 96.6599C117.056 95.4642 117.562 94.335 118.41 93.4899C118.805 93.1662 119.275 92.9486 119.778 92.8576C120.28 92.7666 120.797 92.8053 121.28 92.9699C123.69 93.6999 125.35 96.5099 125.93 99.5799C126.391 102.752 126.327 105.979 125.74 109.13Z" fill="#FC6681"/>
<path d="M125.17 109.24C126.78 106.15 131.17 103.09 135.42 102.63C136.612 102.477 137.822 102.545 138.99 102.83C140.163 103.115 141.186 103.829 141.86 104.83C142.11 105.278 142.242 105.782 142.242 106.295C142.242 106.808 142.11 107.312 141.86 107.76C140.71 109.99 137.65 111.13 134.53 111.17C131.326 111.053 128.161 110.418 125.16 109.29" fill="#FC6681"/>
<path d="M120.55 125.39C117.11 124.88 112.78 121.68 110.97 117.84C110.426 116.766 110.086 115.599 109.97 114.4C109.857 113.212 110.184 112.023 110.89 111.06C111.226 110.671 111.656 110.374 112.139 110.199C112.623 110.024 113.143 109.976 113.65 110.06C116.14 110.42 118.21 112.95 119.25 115.88C120.19 118.946 120.619 122.145 120.52 125.35" fill="#FC6681"/>
<path d="M120 125.59C121.12 122.3 125 118.59 129.12 117.5C130.274 117.162 131.482 117.043 132.68 117.15C133.87 117.248 134.984 117.778 135.81 118.64C136.125 119.043 136.332 119.52 136.411 120.026C136.49 120.532 136.438 121.05 136.26 121.53C135.48 123.92 132.62 125.53 129.54 126.02C126.358 126.399 123.135 126.254 120 125.59Z" fill="#FC6681"/>
<path d="M118.1 143C114.62 143 109.88 140.41 107.56 136.87C106.877 135.88 106.385 134.771 106.11 133.6C105.83 132.435 105.986 131.208 106.55 130.15C106.834 129.725 107.222 129.38 107.677 129.147C108.132 128.914 108.639 128.802 109.15 128.82C111.66 128.82 114.07 131.04 115.52 133.82C116.871 136.727 117.742 139.834 118.1 143.02" fill="#FC6681"/>
<path d="M117.59 143.22C118.24 139.8 121.59 135.59 125.49 133.92C126.584 133.426 127.761 133.141 128.96 133.08C130.149 132.994 131.327 133.35 132.27 134.08C132.642 134.431 132.916 134.873 133.065 135.362C133.214 135.851 133.233 136.371 133.12 136.87C132.68 139.34 130.12 141.32 127.12 142.26C124.021 143.082 120.809 143.393 117.61 143.18" fill="#FC6681"/>
<path d="M118.9 159.12C117.226 159.322 115.529 159.152 113.929 158.623C112.328 158.094 110.864 157.219 109.64 156.06C108.946 155.398 108.382 154.611 107.98 153.74C107.567 152.876 107.485 151.89 107.75 150.97C107.905 150.592 108.153 150.26 108.472 150.005C108.79 149.75 109.168 149.579 109.57 149.51C111.57 149.1 113.78 150.43 115.36 152.36C116.9 154.406 118.095 156.689 118.9 159.12Z" fill="#FC6681"/>
<path d="M118.54 159.42C118.639 157.739 119.107 156.101 119.911 154.622C120.715 153.142 121.834 151.858 123.19 150.86C123.963 150.288 124.839 149.871 125.77 149.63C126.692 149.379 127.674 149.475 128.53 149.9C128.872 150.11 129.154 150.404 129.35 150.754C129.546 151.104 129.65 151.499 129.65 151.9C129.71 153.9 128 155.9 125.83 157.1C123.54 158.251 121.078 159.021 118.54 159.38" fill="#FC6681"/>
<path d="M248.6 242C250.157 237.071 252.131 232.284 254.5 227.69C261.62 213.94 271.97 202.122 284.66 193.25C288.873 190.315 293.326 187.739 297.97 185.55L299.71 184.75C299.97 184.63 299.71 184.24 299.49 184.36C294.752 186.473 290.202 188.985 285.89 191.87C281.609 194.736 277.569 197.946 273.81 201.47C266.24 208.545 259.864 216.799 254.93 225.91C252.485 230.444 250.421 235.174 248.76 240.05C248.56 240.66 248.36 241.26 248.17 241.87C248.08 242.15 248.51 242.27 248.6 242Z" fill="#BDD4EC"/>
<path d="M296.3 186.34C297.11 182.96 300.67 178.91 304.64 177.45C305.755 176.999 306.947 176.771 308.15 176.78C309.346 176.76 310.508 177.184 311.41 177.97C311.761 178.343 312.011 178.8 312.135 179.297C312.259 179.795 312.254 180.315 312.12 180.81C311.55 183.25 308.86 185.1 305.84 185.89C302.706 186.557 299.483 186.709 296.3 186.34Z" fill="#BDD4EC"/>
<path d="M286.27 192.34C284.06 189.66 282.98 184.34 284.2 180.34C284.519 179.183 285.056 178.097 285.78 177.14C286.487 176.174 287.528 175.504 288.7 175.26C289.208 175.205 289.722 175.281 290.193 175.48C290.664 175.68 291.076 175.996 291.39 176.4C293 178.33 292.85 181.59 291.66 184.47C290.305 187.376 288.485 190.041 286.27 192.36" fill="#BDD4EC"/>
<path d="M285.73 192.13C288.73 190.42 294.16 190.29 297.93 192.21C299.015 192.729 299.992 193.448 300.81 194.33C301.634 195.199 302.107 196.343 302.14 197.54C302.103 198.049 301.937 198.541 301.657 198.968C301.377 199.395 300.992 199.743 300.54 199.98C298.36 201.23 295.17 200.5 292.54 198.83C289.919 196.98 287.616 194.717 285.72 192.13" fill="#BDD4EC"/>
<path d="M273 203.11C270.41 200.79 268.53 195.74 269.12 191.55C269.26 190.356 269.623 189.2 270.19 188.14C270.743 187.079 271.669 186.26 272.79 185.84C273.284 185.703 273.804 185.698 274.301 185.824C274.797 185.95 275.252 186.204 275.62 186.56C277.51 188.21 277.86 191.46 277.13 194.49C276.232 197.569 274.837 200.481 273 203.11Z" fill="#BDD4EC"/>
<path d="M272.46 203C275.2 200.85 280.46 199.9 284.53 201.22C285.678 201.571 286.75 202.134 287.69 202.88C288.643 203.622 289.288 204.691 289.5 205.88C289.542 206.39 289.453 206.902 289.241 207.367C289.029 207.833 288.702 208.237 288.29 208.54C286.29 210.1 283.07 209.87 280.21 208.61C277.341 207.182 274.724 205.298 272.46 203.03" fill="#BDD4EC"/>
<path d="M261.36 216.46C258.46 214.53 255.9 209.79 255.89 205.55C255.86 204.35 256.06 203.155 256.48 202.03C256.877 200.899 257.678 199.955 258.73 199.38C259.201 199.182 259.714 199.108 260.222 199.164C260.729 199.22 261.214 199.404 261.63 199.7C263.73 201.07 264.53 204.24 264.23 207.34C263.773 210.515 262.803 213.595 261.36 216.46Z" fill="#BDD4EC"/>
<path d="M260.78 216.41C263.19 213.9 268.31 212.21 272.48 212.95C273.67 213.129 274.814 213.537 275.85 214.15C276.887 214.743 277.67 215.697 278.05 216.83C278.163 217.328 278.147 217.846 278.003 218.336C277.86 218.826 277.594 219.272 277.23 219.63C275.51 221.46 272.23 221.69 269.23 220.84C266.188 219.834 263.33 218.337 260.77 216.41" fill="#BDD4EC"/>
<path d="M253.16 230.43C251.653 229.68 250.328 228.608 249.281 227.289C248.234 225.971 247.489 224.438 247.1 222.8C246.88 221.863 246.839 220.892 246.98 219.94C247.11 218.997 247.579 218.133 248.3 217.51C248.636 217.275 249.026 217.13 249.434 217.088C249.842 217.046 250.253 217.109 250.63 217.27C252.5 218.01 253.63 220.35 253.92 222.83C254.082 225.388 253.826 227.955 253.16 230.43Z" fill="#BDD4EC"/>
<path d="M252.7 230.48C253.706 229.128 254.997 228.013 256.481 227.215C257.966 226.417 259.607 225.954 261.29 225.86C262.249 225.812 263.209 225.944 264.12 226.25C265.029 226.541 265.798 227.157 266.28 227.98C266.451 228.351 266.524 228.761 266.493 229.168C266.461 229.576 266.326 229.969 266.1 230.31C265.05 232.02 262.53 232.73 260.05 232.57C257.503 232.276 255.021 231.57 252.7 230.48Z" fill="#BDD4EC"/>
<path d="M97.82 242.37C92.7626 243.431 87.6241 244.06 82.46 244.25C77.35 244.434 72.2336 244.206 67.16 243.57C56.9198 242.28 46.955 239.346 37.65 234.88C33.029 232.652 28.6034 230.039 24.42 227.07C23.89 226.7 23.42 226.32 22.86 225.94C22.63 225.77 22.4 226.15 22.63 226.33C26.7964 229.418 31.2191 232.145 35.85 234.48C40.4463 236.807 45.2257 238.754 50.14 240.3C55.0408 241.845 60.0566 242.999 65.14 243.75C70.2744 244.503 75.4614 244.837 80.65 244.75C85.8016 244.658 90.9364 244.132 96 243.18L97.88 242.81C98.16 242.75 98.06 242.31 97.77 242.37H97.82Z" fill="#BDD4EC"/>
<path d="M25.92 228.13C22.58 229.13 17.31 227.97 14.08 225.23C13.1403 224.478 12.3557 223.551 11.77 222.5C11.1685 221.468 10.9691 220.25 11.21 219.08C11.3642 218.594 11.6399 218.155 12.0108 217.805C12.3817 217.455 12.8358 217.206 13.33 217.08C15.74 216.37 18.68 217.81 20.85 220.08C22.9634 222.487 24.6753 225.219 25.92 228.17" fill="#BDD4EC"/>
<path d="M36.07 233.92C34.82 237.17 30.75 240.7 26.62 241.63C25.4528 241.919 24.2413 241.983 23.05 241.82C21.8678 241.676 20.7811 241.099 20 240.2C19.7027 239.785 19.5163 239.3 19.4585 238.793C19.4008 238.285 19.4736 237.772 19.67 237.3C20.56 234.95 23.48 233.48 26.57 233.1C29.7668 232.857 32.9818 233.134 36.09 233.92" fill="#BDD4EC"/>
<path d="M36.15 234.5C33.15 232.69 30.42 228.06 30.23 223.83C30.1537 222.63 30.3029 221.425 30.67 220.28C31.0224 219.137 31.7845 218.165 32.81 217.55C33.2712 217.332 33.7804 217.234 34.2896 217.268C34.7988 217.301 35.2911 217.463 35.72 217.74C37.88 219.03 38.81 222.16 38.64 225.27C38.3166 228.461 37.4756 231.579 36.15 234.5Z" fill="#BDD4EC"/>
<path d="M52 240.18C51.25 243.58 47.77 247.69 43.83 249.24C42.7199 249.702 41.5323 249.95 40.33 249.97C39.1179 250.022 37.93 249.619 37 248.84C36.6436 248.474 36.3867 248.022 36.2536 247.529C36.1206 247.035 36.1159 246.516 36.24 246.02C36.75 243.56 39.41 241.66 42.42 240.82C45.5404 240.088 48.7597 239.872 51.95 240.18" fill="#BDD4EC"/>
<path d="M52.12 240.73C48.91 239.4 45.47 235.25 44.65 231.09C44.3877 229.918 44.3504 228.706 44.54 227.52C44.7191 226.345 45.3242 225.277 46.24 224.52C46.6636 224.234 47.1532 224.061 47.6625 224.017C48.1718 223.973 48.6838 224.06 49.15 224.27C51.48 225.21 52.87 228.16 53.15 231.27C53.311 234.47 52.953 237.674 52.09 240.76" fill="#BDD4EC"/>
<path d="M69.31 243.79C69.05 247.26 66.18 251.79 62.49 253.9C61.4617 254.519 60.3247 254.937 59.14 255.13C57.9596 255.334 56.7456 255.095 55.73 254.46C55.3262 254.148 55.0087 253.738 54.8074 253.269C54.6062 252.8 54.5279 252.288 54.58 251.78C54.74 249.27 57.11 247.02 59.96 245.78C62.9479 244.612 66.1056 243.936 69.31 243.78" fill="#BDD4EC"/>
<path d="M69.55 244.32C66.18 243.45 62.2 239.82 60.8 235.82C60.3691 234.698 60.1619 233.502 60.19 232.3C60.1934 231.103 60.6385 229.949 61.44 229.06C61.8192 228.716 62.2802 228.475 62.7791 228.359C63.278 228.244 63.7981 228.258 64.29 228.4C66.72 229.01 68.52 231.74 69.29 234.77C69.9033 237.917 70.0013 241.142 69.58 244.32" fill="#BDD4EC"/>
<path d="M85.51 244.07C85.5932 245.748 85.3068 247.424 84.6708 248.979C84.0349 250.534 83.0651 251.931 81.83 253.07C81.124 253.719 80.3034 254.231 79.41 254.58C78.5131 254.912 77.5269 254.912 76.63 254.58C76.2626 254.402 75.9468 254.133 75.7123 253.799C75.4778 253.465 75.3325 253.076 75.29 252.67C75.01 250.67 76.49 248.53 78.52 247.07C80.6704 245.672 83.0349 244.635 85.52 244" fill="#BDD4EC"/>
<path d="M85.78 244.44C84.1078 244.231 82.5022 243.656 81.0778 242.756C79.6534 241.855 78.4454 240.651 77.54 239.23C77.024 238.422 76.6676 237.522 76.49 236.58C76.2978 235.642 76.458 234.667 76.94 233.84C77.1768 233.507 77.4952 233.24 77.8646 233.065C78.234 232.89 78.6421 232.812 79.05 232.84C81.05 232.91 82.92 234.75 83.99 237C84.9808 239.361 85.5852 241.867 85.78 244.42" fill="#BDD4EC"/>
<path d="M122.83 259.42C112.76 260.57 102.47 258.05 93.49 253.35C84.51 248.65 76.76 241.83 70 234.26C49.3511 210.873 38.0783 180.677 38.35 149.48C43.35 148.79 48.44 150.31 53.18 152.15C71.214 159.165 87.0804 170.809 99.18 185.91C111.26 201.048 119.132 219.106 122 238.26C122.79 243.61 124 254.13 122.84 259.42" fill="#E3E1FF"/>
<path d="M44.79 156C55.3 168.4 64.64 181.74 73.74 195.2C82.84 208.66 91.74 222.29 101.5 235.33C106.94 242.61 112.63 249.71 118.72 256.46C119.26 257.06 120.26 256.27 119.72 255.66C108.84 243.6 99.25 230.45 90.06 217.07C80.87 203.69 72 190 62.49 176.77C57.18 169.38 51.66 162.14 45.78 155.19C45.25 154.57 44.26 155.36 44.78 155.99L44.79 156Z" fill="#A4A4ED"/>
<path d="M105.89 239.62C100.704 238.467 95.6051 236.953 90.63 235.09C85.6553 233.222 80.8141 231.017 76.14 228.49C73.4733 227.05 70.89 225.51 68.39 223.87C67.71 223.43 66.96 224.45 67.65 224.87C72.1808 227.808 76.9087 230.431 81.8 232.72C86.6825 235.001 91.718 236.939 96.87 238.52C99.7966 239.407 102.757 240.183 105.75 240.85C105.833 240.861 105.917 240.855 105.998 240.833C106.079 240.81 106.154 240.772 106.22 240.72C106.285 240.667 106.339 240.602 106.379 240.528C106.418 240.454 106.443 240.373 106.45 240.29C106.464 240.124 106.414 239.958 106.31 239.828C106.206 239.698 106.055 239.612 105.89 239.59V239.62Z" fill="#A4A4ED"/>
<path d="M96 225.25C96.7518 220.188 96.7181 215.041 95.9 209.99C95.0711 204.875 93.8406 199.832 92.22 194.91C91.34 192.11 90.38 189.33 89.43 186.56C89.16 185.78 88 186.29 88.26 187.06C89.93 191.89 91.58 196.73 92.87 201.67C94.2152 206.567 95.0167 211.597 95.26 216.67C95.3569 219.503 95.1828 222.34 94.74 225.14C94.61 225.95 95.87 226.09 96 225.28V225.25Z" fill="#A4A4ED"/>
<path d="M79.33 201.58C72.5933 199.206 66.2035 195.944 60.33 191.88C58.69 190.74 57.0933 189.54 55.54 188.28C54.91 187.77 54.16 188.79 54.8 189.28C60.3906 193.804 66.5538 197.569 73.13 200.48C75 201.3 76.91 202.05 78.83 202.73C79.6 203.01 80.06 201.82 79.29 201.55L79.33 201.58Z" fill="#A4A4ED"/>
<path d="M68.35 184.71C68.1533 175.631 65.57 166.764 60.86 159C60.7622 158.878 60.623 158.795 60.4687 158.769C60.3144 158.742 60.1557 158.773 60.0227 158.856C59.8896 158.938 59.7914 159.067 59.7467 159.217C59.702 159.367 59.7138 159.528 59.78 159.67C63.3547 165.544 65.6862 172.089 66.63 178.9C66.8929 180.846 67.0465 182.806 67.09 184.77C67.09 184.937 67.1564 185.097 67.2745 185.215C67.3927 185.334 67.5529 185.4 67.72 185.4C67.8871 185.4 68.0473 185.334 68.1655 185.215C68.2836 185.097 68.35 184.937 68.35 184.77V184.71Z" fill="#A4A4ED"/>
<path d="M105 308.65C103.517 308.654 102.047 308.365 100.676 307.8C99.3042 307.235 98.0578 306.404 97.008 305.356C95.9581 304.308 95.1255 303.063 94.5579 301.693C93.9902 300.322 93.6987 298.853 93.7 297.37C93.7 295.887 93.9925 294.419 94.5607 293.05C95.129 291.681 95.9618 290.437 97.0115 289.39C98.0612 288.343 99.3071 287.514 100.678 286.949C102.049 286.385 103.517 286.096 105 286.1H243.83C244.022 286.1 244.212 286.062 244.389 285.989C244.566 285.915 244.727 285.808 244.862 285.672C244.998 285.537 245.105 285.376 245.179 285.199C245.252 285.022 245.29 284.832 245.29 284.64V284.59C245.29 284.221 245.144 283.868 244.883 283.607C244.622 283.346 244.269 283.2 243.9 283.2H103C99.1809 283.2 95.5182 284.717 92.8177 287.418C90.1171 290.118 88.6 293.781 88.6 297.6C88.6 301.419 90.1171 305.082 92.8177 307.782C95.5182 310.483 99.1809 312 103 312H243.6C244.049 311.997 244.479 311.817 244.796 311.499C245.112 311.18 245.29 310.749 245.29 310.3V310.22C245.29 309.804 245.125 309.404 244.83 309.11C244.536 308.815 244.136 308.65 243.72 308.65H105Z" fill="#766CFF"/>
<path d="M93.7 297.37C93.6921 298.843 93.9745 300.304 94.5311 301.668C95.0876 303.033 95.9075 304.274 96.9438 305.321C97.9801 306.369 99.2126 307.202 100.571 307.773C101.929 308.344 103.387 308.642 104.86 308.65H243.8L243.6 307.87C241.828 300.982 241.828 293.758 243.6 286.87L243.8 286.09H104.86C103.386 286.097 101.928 286.394 100.569 286.964C99.2104 287.535 97.9774 288.368 96.9408 289.416C95.9043 290.463 95.0845 291.705 94.5284 293.07C93.9723 294.435 93.6908 295.896 93.7 297.37Z" fill="#EDEDF9"/>
<path d="M97 299.61C96.9921 298.137 97.2745 296.676 97.8311 295.312C98.3876 293.947 99.2075 292.706 100.244 291.659C101.28 290.611 102.513 289.778 103.871 289.207C105.229 288.636 106.687 288.338 108.16 288.33H243.28C243.38 287.85 243.48 287.33 243.6 286.88L243.8 286.1H104.86C103.387 286.107 101.93 286.403 100.572 286.973C99.2134 287.543 97.9808 288.375 96.9444 289.422C95.908 290.469 95.088 291.709 94.5313 293.073C93.9746 294.437 93.6921 295.897 93.7 297.37C93.693 299.55 94.3185 301.685 95.5006 303.517C96.6827 305.349 98.3707 306.798 100.36 307.69C99.29 306.635 98.4415 305.377 97.8645 303.989C97.2875 302.602 96.9936 301.113 97 299.61Z" fill="#DCDCEF"/>
<path d="M196.47 294.69H135.75V295.52H196.47V294.69Z" fill="#DCDCEF"/>
<path d="M234.64 302.61H173.92V303.44H234.64V302.61Z" fill="#DCDCEF"/>
<path d="M157.9 295.21V308.15L163.79 303.35L169.57 307.98L168.9 295.16L157.9 295.21Z" fill="#FC6681"/>
<path d="M253.1 261.93H118.08C112.889 261.93 108.68 266.138 108.68 271.33V273.8C108.68 278.991 112.889 283.2 118.08 283.2H253.1C258.291 283.2 262.5 278.991 262.5 273.8V271.33C262.5 266.138 258.291 261.93 253.1 261.93Z" fill="#06005A"/>
<path opacity="0.43" d="M241.29 261.93H238.76V283.2H241.29V261.93Z" fill="white"/>
<path opacity="0.43" d="M230.09 261.93H227.56V283.2H230.09V261.93Z" fill="white"/>
<path d="M108.68 267.87V270.87L229.12 261.87H116C111.94 261.93 108.68 265.67 108.68 267.87Z" fill="#000033"/>
<path opacity="0.43" d="M129.67 261.93H127.14V283.2H129.67V261.93Z" fill="white"/>
<path opacity="0.43" d="M140.38 261.93H137.85V283.2H140.38V261.93Z" fill="white"/>
<path d="M117 247.31C117 253.53 121.66 258.58 127.41 258.58H256.91L256.73 257.8C255.068 250.899 255.068 243.701 256.73 236.8L256.91 236.02H127.36C121.61 236 117 241.08 117 247.31Z" fill="#EDEDF9"/>
<path d="M127.46 258.58C121.66 258.58 116.95 253.58 116.95 247.31C116.95 241.08 121.66 236.03 127.46 236.03H256.89C257.075 236.023 257.257 235.981 257.426 235.904C257.595 235.827 257.746 235.717 257.873 235.582C257.999 235.446 258.097 235.287 258.162 235.113C258.227 234.94 258.257 234.755 258.25 234.57C258.257 234.393 258.228 234.216 258.167 234.049C258.105 233.883 258.011 233.73 257.89 233.6C257.769 233.47 257.624 233.365 257.463 233.292C257.302 233.218 257.127 233.176 256.95 233.17H125.59C118.18 233.17 112.17 239.62 112.17 247.57C112.17 255.52 118.17 261.97 125.59 261.97H256.67C257.103 261.954 257.513 261.768 257.809 261.451C258.105 261.134 258.263 260.713 258.25 260.28V260.2C258.264 259.796 258.116 259.403 257.841 259.107C257.566 258.811 257.184 258.636 256.78 258.62L127.46 258.58Z" fill="#766CFF"/>
<path d="M120 249.54C120 243.31 124.65 238.27 130.4 238.27H256.4C256.5 237.78 256.59 237.27 256.71 236.81L256.89 236.03H127.36C121.61 236.03 116.95 241.08 116.95 247.31C116.914 249.438 117.478 251.533 118.576 253.356C119.674 255.179 121.262 256.656 123.16 257.62C121.113 255.429 119.982 252.538 120 249.54Z" fill="#DCDCEF"/>
<path d="M197.29 244.65H136.57V245.48H197.29V244.65Z" fill="#DCDCEF"/>
<path d="M235.45 252.57H174.73V253.4H235.45V252.57Z" fill="#DCDCEF"/>
<path d="M226.6 173C229.202 173 231.697 171.966 233.537 170.127C235.376 168.287 236.41 165.792 236.41 163.19C236.41 160.588 235.376 158.093 233.537 156.253C231.697 154.413 229.202 153.38 226.6 153.38H105.81C105.644 153.38 105.479 153.347 105.325 153.283C105.172 153.219 105.033 153.125 104.915 153.007C104.798 152.889 104.706 152.749 104.643 152.595C104.58 152.441 104.549 152.276 104.55 152.11C104.55 151.789 104.677 151.481 104.904 151.254C105.131 151.027 105.439 150.9 105.76 150.9H228.35C229.994 150.9 231.622 151.224 233.141 151.853C234.66 152.482 236.04 153.404 237.203 154.567C238.366 155.73 239.288 157.11 239.917 158.629C240.546 160.148 240.87 161.776 240.87 163.42C240.871 165.065 240.548 166.694 239.92 168.214C239.291 169.734 238.369 171.116 237.206 172.279C236.044 173.443 234.663 174.366 233.143 174.996C231.624 175.626 229.995 175.95 228.35 175.95H106C105.61 175.95 105.236 175.795 104.961 175.519C104.685 175.244 104.53 174.87 104.53 174.48V174.41C104.529 174.23 104.563 174.053 104.631 173.886C104.698 173.72 104.798 173.569 104.925 173.442C105.051 173.314 105.202 173.213 105.367 173.144C105.533 173.075 105.711 173.04 105.89 173.04L226.6 173Z" fill="#FC6681"/>
<path d="M236.41 163.15C236.422 164.435 236.18 165.71 235.698 166.901C235.216 168.092 234.503 169.177 233.601 170.092C232.699 171.007 231.625 171.735 230.44 172.234C229.256 172.733 227.985 172.993 226.7 173H105.84L106.01 172.32C107.567 166.312 107.564 160.006 106 154L105.83 153.32H226.7C227.983 153.326 229.253 153.586 230.436 154.084C231.619 154.582 232.692 155.308 233.594 156.221C234.496 157.134 235.209 158.216 235.692 159.405C236.175 160.594 236.419 161.867 236.41 163.15Z" fill="#EDEDF9"/>
<path d="M233.56 165.09C233.571 162.503 232.554 160.018 230.733 158.18C228.912 156.343 226.437 155.303 223.85 155.29H106.3C106.2 154.86 106.12 154.44 106.01 154.02L105.84 153.34H226.7C227.982 153.347 229.25 153.605 230.431 154.102C231.613 154.599 232.685 155.323 233.587 156.234C234.488 157.145 235.202 158.224 235.686 159.411C236.171 160.598 236.417 161.868 236.41 163.15C236.419 165.051 235.876 166.913 234.846 168.511C233.816 170.109 232.345 171.373 230.61 172.15C231.55 171.231 232.296 170.133 232.802 168.92C233.309 167.707 233.567 166.404 233.56 165.09Z" fill="#DCDCEF"/>
<path d="M199.83 160.82H147.01V161.54H199.83V160.82Z" fill="#DCDCEF"/>
<path d="M214.6 167.34H161.78V168.06H214.6V167.34Z" fill="#DCDCEF"/>
<path d="M245.26 204.74H110.24C105.049 204.74 100.84 208.949 100.84 214.14V223.68C100.84 228.871 105.049 233.08 110.24 233.08H245.26C250.451 233.08 254.66 228.871 254.66 223.68V214.14C254.66 208.949 250.451 204.74 245.26 204.74Z" fill="#FC6681"/>
<path opacity="0.43" d="M233.44 204.74H230.91V233.08H233.44V204.74Z" fill="white"/>
<path opacity="0.43" d="M222.24 204.74H219.71V233.08H222.24V204.74Z" fill="white"/>
<path d="M100.84 212V216.67L221.28 204.72H108.12C106.189 204.72 104.338 205.487 102.972 206.852C101.607 208.217 100.84 210.069 100.84 212Z" fill="#EA496C"/>
<path opacity="0.43" d="M121.82 204.74H119.29V233.08H121.82V204.74Z" fill="white"/>
<path opacity="0.43" d="M132.54 204.74H130.01V233.08H132.54V204.74Z" fill="white"/>
<path d="M106.58 201.32C101.51 201.32 97.39 196.32 97.39 190.04C97.39 183.82 101.51 178.77 106.58 178.77H219.79C220.141 178.732 220.462 178.558 220.685 178.284C220.908 178.011 221.014 177.661 220.98 177.31C221.011 176.974 220.909 176.639 220.696 176.377C220.483 176.116 220.175 175.948 219.84 175.91H104.94C98.46 175.91 93.2 182.36 93.2 190.31C93.2 198.26 98.46 204.71 104.94 204.71H219.6C220.012 204.667 220.39 204.463 220.652 204.143C220.914 203.823 221.039 203.412 221 203V202.92C221.034 202.543 220.919 202.168 220.68 201.874C220.44 201.581 220.096 201.393 219.72 201.35L106.58 201.32Z" fill="#766CFF"/>
<path d="M97.39 190C97.39 196.23 101.46 201.28 106.49 201.28H219.77L219.6 200.5C218.159 193.574 218.159 186.426 219.6 179.5L219.77 178.72H106.49C101.46 178.77 97.39 183.82 97.39 190Z" fill="#EDEDF9"/>
<path d="M100.06 192.28C100.06 186.05 104.13 181 109.16 181H219.34C219.42 180.52 219.5 180 219.6 179.55L219.77 178.77H106.49C101.49 178.77 97.39 183.77 97.39 190.04C97.39 194.65 99.62 198.61 102.82 200.36C100.994 198.067 100.018 195.211 100.06 192.28Z" fill="#DCDCEF"/>
<path d="M181.18 187.36H131.68V188.19H181.18V187.36Z" fill="#DCDCEF"/>
<path d="M212.29 195.28H162.79V196.11H212.29V195.28Z" fill="#DCDCEF"/>
<path d="M176.43 195.74V208.68L181.22 203.88L185.94 208.52L185.39 195.69L176.43 195.74Z" fill="#06005A"/>
<path d="M204.41 39.13C203.413 44.347 200.665 49.0673 196.62 52.51C196.466 52.6117 196.353 52.7638 196.3 52.94C196.298 53.0311 196.314 53.1216 196.349 53.2059C196.383 53.2903 196.435 53.3666 196.5 53.43C197.036 53.9335 197.7 54.2795 198.42 54.43C201.079 55.2539 203.846 55.6752 206.63 55.68C207.151 55.7428 207.676 55.6149 208.11 55.32C208.373 55.0372 208.562 54.6936 208.66 54.32C209.699 51.4728 210.547 48.5597 211.2 45.6C211.228 45.4648 211.228 45.3252 211.2 45.19C211.2 44.92 210.89 44.75 210.66 44.61C208.936 43.5165 207.405 42.1445 206.13 40.55" fill="#FF948C"/>
<path d="M211.23 45.26C211.23 44.99 210.92 44.82 210.69 44.68C208.966 43.5865 207.435 42.2145 206.16 40.62L204.41 39.13C204.32 39.59 204.2 40.05 204.09 40.5C204.268 40.9809 204.366 41.4876 204.38 42C204.47 44.07 206.59 46.24 207.38 48.15C208.399 50.5137 208.485 53.1756 207.62 55.6C207.795 55.5548 207.959 55.473 208.1 55.36C208.363 55.0772 208.552 54.7336 208.65 54.36C209.689 51.5128 210.537 48.5997 211.19 45.64C211.228 45.5171 211.241 45.3881 211.23 45.26Z" fill="#EF7E7B"/>
<path d="M225.36 52.9999C224.341 50.7697 224.23 48.2306 225.05 45.9199C225.595 44.7692 226.034 43.5708 226.36 42.3399C226.508 40.4587 226.03 38.5814 225 36.9999C223.965 35.4634 223.173 33.7771 222.65 31.9999C222.422 30.7737 222.52 29.5092 222.932 28.3321C223.344 27.155 224.057 26.1063 225 25.2899L227.14 26.4099C226.706 27.7168 226.535 29.0968 226.638 30.47C226.741 31.8433 227.116 33.1824 227.74 34.4099C228.555 35.6639 229.226 37.0057 229.74 38.4099C230.36 40.8799 229.07 43.4099 227.74 45.5699C226.41 47.7299 225.03 50.1599 225.41 52.6699" fill="#06005A"/>
<path d="M216.23 13.24C217.773 13.3849 219.268 13.8494 220.621 14.604C221.974 15.3585 223.155 16.3865 224.09 17.6226C225.024 18.8586 225.69 20.2756 226.047 21.7833C226.403 23.2911 226.442 24.8565 226.16 26.38C225.87 27.91 225.27 29.38 225.04 30.91C224.871 31.6723 224.88 32.4636 225.067 33.2217C225.255 33.9798 225.615 34.6843 226.12 35.28C226.53 35.7 226.88 35.99 227.26 36.44C227.64 36.89 227.87 37.24 227.54 37.73C227.21 38.22 226.24 38.56 225.62 39.01C225.299 39.2794 225.049 39.6225 224.89 40.01C223.29 43.2952 221.274 46.3605 218.89 49.13C218.774 49.2893 218.619 49.4166 218.44 49.5C218.147 49.5619 217.842 49.5157 217.58 49.37C214.463 48.1967 211.463 46.7336 208.62 45C205.78 43.2103 203.511 40.6463 202.08 37.61C200.846 34.6874 200.704 31.4185 201.68 28.4" fill="#FF948C"/>
<path d="M224.14 32.12C224.14 32.6 223.86 32.99 223.52 32.99C223.18 32.99 222.9 32.6 222.9 32.12C222.9 31.64 223.18 31.24 223.52 31.24C223.86 31.24 224.14 31.63 224.14 32.12Z" fill="#06005A"/>
<path opacity="0.51" d="M222.53 37.5199C222.54 38.0319 222.397 38.5352 222.119 38.9652C221.84 39.3953 221.44 39.7324 220.969 39.9334C220.498 40.1344 219.978 40.1901 219.475 40.0934C218.972 39.9966 218.51 39.7519 218.147 39.3905C217.784 39.0291 217.537 38.5676 217.439 38.0651C217.34 37.5626 217.394 37.042 217.593 36.5703C217.792 36.0985 218.127 35.6969 218.556 35.4171C218.985 35.1373 219.488 34.9921 220 34.9999C220.666 35.0102 221.302 35.2787 221.774 35.7488C222.246 36.2189 222.517 36.8539 222.53 37.5199Z" fill="#F96662"/>
<path d="M223.86 41.84L220.86 41.21C221.456 41.8764 222.163 42.4347 222.95 42.86C223.65 43.07 223.86 41.84 223.86 41.84Z" fill="#F96662"/>
<path d="M199 18.9C195.808 19.6023 192.479 19.3341 189.44 18.13C187.89 17.5313 186.603 16.4005 185.81 14.94C185.134 13.44 184.983 11.7564 185.38 10.16C185.898 7.95315 187.075 5.95648 188.757 4.43609C190.438 2.9157 192.542 1.94382 194.79 1.64997C196.074 1.49595 197.376 1.60636 198.616 1.97439C199.856 2.34242 201.008 2.96028 202 3.78997C202.984 4.64154 203.73 5.73497 204.163 6.96246C204.596 8.18996 204.702 9.50915 204.47 10.79" fill="#06005A"/>
<path d="M227.79 15.53C225.987 13.4184 223.772 11.6969 221.28 10.4709C218.789 9.24494 216.073 8.54026 213.3 8.39999C208.88 8.12999 205.36 8.58999 202.3 10.4C199.24 12.21 197.61 15 195.79 18C193.63 21.66 192.26 24.06 192.4 28.32C192.462 30.405 192.979 32.4512 193.915 34.3151C194.852 36.1791 196.184 37.8156 197.82 39.11C198.72 39.82 201.05 41.7 202.18 41.83C203.59 41.99 203.57 42.3 204.62 41.35C205.642 40.3535 206.428 39.1404 206.92 37.8C207.5 36.35 208.02 34.66 209.44 33.99C210.61 33.45 211.87 33.82 213.16 34.16C213.14 34.4697 213.14 34.7803 213.16 35.09C213.36 37.34 214.44 39.4 215.32 41.47C216.2 43.54 216.91 45.86 216.32 48.04C215.787 49.4841 215.118 50.8737 214.32 52.19C213.046 54.8763 212.864 57.9517 213.81 60.77L213.96 60.46C213.82 57.38 215.82 54.67 217.66 52.19C219.5 49.71 221.37 46.86 220.92 43.81C220.66 42.01 219.62 40.43 218.92 38.74C218.306 37.1472 218.023 35.4458 218.09 33.74L218.7 33.44C222.12 31.68 225.51 29.53 227.6 26.3C229.69 23.07 230.17 18.55 227.79 15.53Z" fill="#06005A"/>
<path d="M194.88 21.0499C194.88 21.0499 193.57 21.0499 195.79 18.0499C198.401 14.8809 201.171 11.847 204.09 8.95991C204.09 8.95991 205.09 8.36991 203.32 12.1499C201.55 15.9299 197.48 19.4099 194.88 21.0499Z" fill="#FC6681"/>
<path d="M204.36 9.05C204.36 9.05 205.21 8.66 206.48 10.44C207.62 12.311 208.6 14.2746 209.41 16.31C209.41 16.31 209.56 16.96 207.78 15.31C206.128 13.547 204.951 11.3929 204.36 9.05Z" fill="#FC6681"/>
<path d="M204.36 9.27995C204.36 9.27995 204.36 8.47995 206.1 7.81995C207.814 7.29238 209.57 6.91759 211.35 6.69995C211.35 6.69995 211.89 6.69995 210.11 7.81995C208.346 8.78019 206.369 9.28219 204.36 9.27995Z" fill="#FC6681"/>
<path d="M205.59 9.21C205.594 9.45408 205.525 9.69383 205.392 9.89871C205.26 10.1036 205.069 10.2644 204.845 10.3605C204.62 10.4567 204.372 10.4839 204.133 10.4388C203.893 10.3936 203.672 10.278 203.498 10.1068C203.324 9.93565 203.204 9.71654 203.155 9.47741C203.106 9.23829 203.129 8.98996 203.222 8.76404C203.314 8.53812 203.472 8.34482 203.675 8.20876C203.877 8.0727 204.116 8.00003 204.36 8C204.683 7.99996 204.993 8.1268 205.223 8.35316C205.453 8.57952 205.585 8.88726 205.59 9.21Z" fill="#FC6681"/>
<path d="M211.31 33.8699C211.81 35.0799 211.84 38.1199 210.57 38.4199C210.146 38.5009 209.709 38.4835 209.293 38.369C208.877 38.2546 208.493 38.0462 208.17 37.7599C207.523 37.1916 207.02 36.4791 206.7 35.6799C206.19 34.6959 206.021 33.5703 206.22 32.4799C206.337 31.9425 206.63 31.4593 207.051 31.1063C207.473 30.7533 208 30.5506 208.55 30.5299C208.934 30.5777 209.302 30.7112 209.628 30.9207C209.953 31.1301 210.227 31.4101 210.43 31.7399C210.829 32.4015 211.126 33.1196 211.31 33.8699Z" fill="#FF948C"/>
<path d="M211 36.7899C207.74 36.7899 206.34 33.8999 206.81 31.4199C206.558 31.7318 206.374 32.0929 206.27 32.4799C206.071 33.5703 206.24 34.6959 206.75 35.6799C207.07 36.4791 207.573 37.1917 208.22 37.7599C208.543 38.0462 208.927 38.2546 209.343 38.369C209.759 38.4835 210.196 38.5009 210.62 38.4199C211.19 38.2899 211.5 37.5899 211.62 36.7499C211.414 36.7738 211.207 36.7872 211 36.7899Z" fill="#EF7E7B"/>
<path d="M256 192.7C256.51 197.21 257.54 202.05 253.53 209.08C252.973 209.786 252.568 210.6 252.34 211.47C252.19 213.07 253.71 214.37 255.24 214.88C256.77 215.39 258.45 215.46 259.88 216.2C261.61 217.09 262.72 218.81 264.1 220.2C265.943 222.033 268.308 223.252 270.87 223.69C271.16 223.69 271.55 223.69 271.65 223.45C271.678 223.308 271.661 223.161 271.6 223.03C270.95 221.41 269.28 220.47 268.17 219.12C267.06 217.77 266.58 216.12 265.75 214.6C265.07 213.38 263.95 211.08 263.41 209.79C262.56 207.7 262.92 205.46 263.41 203.25C264.05 199.93 264.861 196.646 265.84 193.41" fill="#FF948C"/>
<path d="M201.23 121.67C213.698 117.574 226.795 115.725 239.91 116.21C249.61 116.58 260.16 118.72 266.34 126.21C270.79 131.61 271.27 134.21 271.69 141.21C272.07 147.55 271.22 158.15 270.69 164.48C269.74 175.23 269.51 186.4 267.1 196.92C267.053 197.283 266.912 197.628 266.69 197.92C266.41 198.175 266.063 198.345 265.69 198.41C262.687 199.2 259.543 199.289 256.5 198.67C256.055 198.619 255.637 198.434 255.3 198.14C255.007 197.765 254.842 197.306 254.83 196.83C253.83 189.38 253 177.77 252.36 170.28C251.85 164.28 251.94 162.28 249.96 156.57C249.522 155.001 248.752 153.544 247.7 152.3C245.42 149.9 241.7 149.71 238.4 149.88C227.22 150.47 215.92 153.32 204.97 151.01" fill="#00001E"/>
<path d="M241.6 149.63C240.834 154.141 238.466 158.225 234.93 161.13C234.171 161.634 233.552 162.322 233.13 163.13C232.54 164.63 233.65 166.29 234.98 167.21C236.31 168.13 237.92 168.64 239.1 169.74C240.52 171.07 241.1 173.03 242.1 174.74C243.375 177.006 245.316 178.825 247.66 179.95C247.93 180.08 248.31 180.17 248.48 179.95C248.545 179.824 248.566 179.68 248.54 179.54C248.36 177.8 247.01 176.44 246.31 174.84C245.61 173.24 245.61 171.49 245.22 169.84C244.82 168.104 244.51 166.348 244.29 164.58C244.03 162.33 244.75 161.31 245.81 159.32C247.463 156.737 249.253 154.243 251.17 151.85" fill="#FF948C"/>
<path d="M177.63 128.89C177.1 134.15 176.94 140.24 180.09 144.61C184.7 151.01 193.96 152.17 201.84 152.61C209.72 153.05 217.62 152.3 224.44 148.34C231.26 144.38 237.19 139.04 242.79 133.48C250.93 125.39 258.51 116.73 265.87 107.92C253.87 119.72 242.61 133.23 238.61 149.56C238.522 149.755 238.478 149.967 238.482 150.182C238.486 150.396 238.538 150.606 238.634 150.798C238.73 150.99 238.867 151.157 239.036 151.289C239.205 151.421 239.401 151.514 239.61 151.56L249.61 156.96C250.041 157.258 250.556 157.412 251.08 157.4C251.696 157.248 252.231 156.869 252.58 156.34C257.897 149.838 262.851 143.048 267.42 136C274.17 125.91 280.79 115 281.61 102.92C281.81 99.8399 281.52 96.4499 279.43 94.1799C277.11 91.6699 273.31 91.2899 269.89 91.3199C255.89 91.4299 240.89 100.25 228.42 106.51C215.95 112.77 201.42 129.51 192.52 110.69" fill="#080866"/>
<path d="M279.55 69.22L296.83 46.87C296.929 46.7404 297.065 46.6438 297.22 46.5928C297.375 46.5418 297.542 46.5388 297.699 46.5842C297.855 46.6296 297.995 46.7213 298.098 46.8472C298.202 46.9731 298.265 47.1274 298.28 47.29L299.69 64L289.1 80.63L279.55 69.22Z" fill="#FC6681"/>
<path d="M271.4 73.67L295.29 46.1L299.12 63.64L271.4 73.67Z" fill="#ECEBF2"/>
<path d="M268.74 73.67L281.14 51.11L299.69 64.04L268.74 73.67Z" fill="white"/>
<path d="M257.68 83.5899C260.81 78.5199 271.57 61.4799 274.53 56.7999C274.745 56.4575 275.07 56.198 275.451 56.0637C275.832 55.9293 276.248 55.928 276.63 56.0599L299.69 64.0599L282.44 91.0599C282.317 91.2562 282.133 91.4072 281.917 91.4901C281.7 91.5731 281.463 91.5835 281.24 91.5199L258.41 85.4299C258.225 85.379 258.054 85.2858 257.912 85.1577C257.769 85.0296 257.657 84.8701 257.587 84.6917C257.516 84.5134 257.488 84.321 257.504 84.1298C257.52 83.9387 257.58 83.7538 257.68 83.5899Z" fill="#FC6681"/>
<path d="M299.18 63.86C299.033 64.3954 298.78 64.896 298.437 65.3322C298.093 65.7684 297.666 66.1315 297.18 66.4C294.18 68.17 292.04 71.4 289.28 73.63C286.439 75.9159 283.401 77.9439 280.2 79.69C273.76 83.15 265.62 85.01 258.34 85.41H258.41L281.24 91.5C281.463 91.5636 281.7 91.5532 281.917 91.4702C282.133 91.3873 282.317 91.2363 282.44 91.04L299.69 64.04L299.18 63.86Z" fill="#F25375"/>
<path d="M199.54 49.2899C191 54.6199 185.1 63.5499 181.86 73.0999C178.62 82.6499 177.79 92.8499 177.57 102.94C177.35 113.03 177.71 123.13 176.72 133.17C176.65 133.86 176.72 134.78 177.4 134.95C177.84 135.06 178.27 134.74 178.63 134.45C188.72 126.17 201.78 122.62 213.33 116.54C214.042 116.233 214.662 115.747 215.13 115.13C215.368 114.707 215.534 114.247 215.62 113.77L216.97 108.28C218.97 100.28 220.92 92.1699 221.22 83.9199C221.662 76.2391 219.552 68.6277 215.22 62.2699C214.37 60.9599 211.22 55.3999 210.14 54.2699C207.3 51.4899 203.79 53.2699 199.56 49.2699" fill="#90AEE4"/>
<path d="M217.06 62.7599C216.752 63.5368 216.208 64.1977 215.505 64.6497C214.802 65.1017 213.975 65.3221 213.14 65.2799C206.24 64.8699 198.83 64.8599 191.91 63.8099C191.19 71.8099 192.68 80.2399 197.2 86.9899C202.27 94.5299 210.2 99.2999 218.2 103.22C219.825 96.8993 220.829 90.4354 221.2 83.9199C221.49 76.6599 220.38 69.1799 217.06 62.7599Z" fill="#6C97D3"/>
<path d="M270.46 85.1999C271.75 85.9299 273.46 85.1999 274.46 84.1999C275.41 83.1209 276.298 81.9891 277.12 80.8099C278.23 79.3899 280.55 78.3299 282.76 76.8099C282.817 76.7684 282.885 76.7455 282.955 76.7442C283.025 76.7429 283.094 76.7634 283.152 76.8029C283.21 76.8423 283.255 76.8988 283.279 76.9645C283.304 77.0302 283.308 77.102 283.29 77.1699C282.93 78.4899 280.93 80.6399 280.61 81.8599C280.577 81.9251 280.56 81.997 280.56 82.0699C280.56 82.1428 280.577 82.2147 280.61 82.2799C280.664 82.3266 280.729 82.3599 280.798 82.3772C280.868 82.3946 280.94 82.3955 281.01 82.3799C283.47 82.1299 285.33 80.0299 287.65 79.1499C287.979 78.9888 288.352 78.943 288.71 79.0199C289.46 79.2499 288.89 80.7699 288.71 81.5299C288.191 83.2346 287.203 84.7592 285.86 85.9299C281.45 89.7899 276.16 90.6499 270.36 89.8399" fill="#FF948C"/>
<path d="M192.32 58.87C195.5 56.58 199.61 56.44 203.37 57.11C210.59 58.37 217.23 62.24 223.29 66.71C228.93 70.87 234.29 75.62 240.36 78.87C248.56 83.22 257.87 84.65 266.98 84.37C268.71 84.32 270.54 84.23 272.08 85.1C273.62 85.97 274.68 88.19 273.79 89.81C273.164 90.7137 272.246 91.3742 271.19 91.68C263.97 94.68 256.71 97.68 249.19 99.38C241.67 101.08 233.71 101.56 226.24 99.45C215.95 96.54 207.24 89.06 199.56 81.07C197.166 78.7757 195.142 76.1242 193.56 73.21C192.06 70.21 188.92 63.21 192.39 58.87" fill="#90AEE4"/>
<g opacity="0.46">
<path opacity="0.46" d="M203.4 65.58C203.665 65.58 203.92 65.4746 204.107 65.2871C204.295 65.0995 204.4 64.8452 204.4 64.58C204.4 64.3147 204.295 64.0604 204.107 63.8728C203.92 63.6853 203.665 63.58 203.4 63.58C203.135 63.58 202.88 63.6853 202.693 63.8728C202.505 64.0604 202.4 64.3147 202.4 64.58C202.4 64.8452 202.505 65.0995 202.693 65.2871C202.88 65.4746 203.135 65.58 203.4 65.58Z" fill="white"/>
</g>
<g opacity="0.46">
<path opacity="0.46" d="M219.82 87.4199C220.085 87.4199 220.34 87.3146 220.527 87.127C220.715 86.9395 220.82 86.6851 220.82 86.4199C220.82 86.1547 220.715 85.9004 220.527 85.7128C220.34 85.5253 220.085 85.4199 219.82 85.4199C219.555 85.4199 219.3 85.5253 219.113 85.7128C218.925 85.9004 218.82 86.1547 218.82 86.4199C218.82 86.6851 218.925 86.9395 219.113 87.127C219.3 87.3146 219.555 87.4199 219.82 87.4199Z" fill="white"/>
</g>
<g opacity="0.46">
<path opacity="0.46" d="M222.05 71.3199C222.315 71.3199 222.57 71.2146 222.757 71.0271C222.945 70.8395 223.05 70.5852 223.05 70.3199C223.05 70.0547 222.945 69.8004 222.757 69.6128C222.57 69.4253 222.315 69.3199 222.05 69.3199C221.785 69.3199 221.53 69.4253 221.343 69.6128C221.155 69.8004 221.05 70.0547 221.05 70.3199C221.05 70.5852 221.155 70.8395 221.343 71.0271C221.53 71.2146 221.785 71.3199 222.05 71.3199Z" fill="white"/>
</g>
<g opacity="0.46">
<path opacity="0.46" d="M207.55 80.4099C207.815 80.4099 208.07 80.3045 208.257 80.117C208.445 79.9295 208.55 79.6751 208.55 79.4099C208.55 79.1447 208.445 78.8903 208.257 78.7028C208.07 78.5153 207.815 78.4099 207.55 78.4099C207.285 78.4099 207.03 78.5153 206.843 78.7028C206.655 78.8903 206.55 79.1447 206.55 79.4099C206.55 79.6751 206.655 79.9295 206.843 80.117C207.03 80.3045 207.285 80.4099 207.55 80.4099Z" fill="white"/>
</g>
<g opacity="0.46">
<path opacity="0.46" d="M239 86.1499C239.265 86.1499 239.52 86.0445 239.707 85.857C239.895 85.6695 240 85.4151 240 85.1499C240 84.8847 239.895 84.6303 239.707 84.4428C239.52 84.2553 239.265 84.1499 239 84.1499C238.735 84.1499 238.48 84.2553 238.293 84.4428C238.105 84.6303 238 84.8847 238 85.1499C238 85.4151 238.105 85.6695 238.293 85.857C238.48 86.0445 238.735 86.1499 239 86.1499Z" fill="white"/>
</g>
<g opacity="0.46">
<path opacity="0.46" d="M235.47 97.9399C235.735 97.9399 235.99 97.8346 236.177 97.647C236.365 97.4595 236.47 97.2052 236.47 96.9399C236.47 96.6747 236.365 96.4204 236.177 96.2328C235.99 96.0453 235.735 95.9399 235.47 95.9399C235.205 95.9399 234.95 96.0453 234.763 96.2328C234.575 96.4204 234.47 96.6747 234.47 96.9399C234.47 97.2052 234.575 97.4595 234.763 97.647C234.95 97.8346 235.205 97.9399 235.47 97.9399Z" fill="white"/>
</g>
<g opacity="0.46">
<path opacity="0.46" d="M258.87 90.61C259.135 90.61 259.39 90.5046 259.577 90.3171C259.765 90.1296 259.87 89.8752 259.87 89.61C259.87 89.3448 259.765 89.0904 259.577 88.9029C259.39 88.7153 259.135 88.61 258.87 88.61C258.605 88.61 258.35 88.7153 258.163 88.9029C257.975 89.0904 257.87 89.3448 257.87 89.61C257.87 89.8752 257.975 90.1296 258.163 90.3171C258.35 90.5046 258.605 90.61 258.87 90.61Z" fill="white"/>
</g>
<g opacity="0.46">
<path opacity="0.46" d="M211.05 111.33C211.315 111.33 211.57 111.225 211.757 111.037C211.945 110.85 212.05 110.595 212.05 110.33C212.05 110.065 211.945 109.81 211.757 109.623C211.57 109.435 211.315 109.33 211.05 109.33C210.785 109.33 210.53 109.435 210.343 109.623C210.155 109.81 210.05 110.065 210.05 110.33C210.05 110.595 210.155 110.85 210.343 111.037C210.53 111.225 210.785 111.33 211.05 111.33Z" fill="white"/>
</g>
<g opacity="0.46">
<path opacity="0.46" d="M198.3 95.5499C198.565 95.5499 198.82 95.4446 199.007 95.257C199.195 95.0695 199.3 94.8151 199.3 94.5499C199.3 94.2847 199.195 94.0304 199.007 93.8428C198.82 93.6553 198.565 93.5499 198.3 93.5499C198.035 93.5499 197.78 93.6553 197.593 93.8428C197.405 94.0304 197.3 94.2847 197.3 94.5499C197.3 94.8151 197.405 95.0695 197.593 95.257C197.78 95.4446 198.035 95.5499 198.3 95.5499Z" fill="white"/>
</g>
<g opacity="0.46">
<path opacity="0.46" d="M194.79 116.11C195.055 116.11 195.31 116.005 195.497 115.817C195.685 115.63 195.79 115.375 195.79 115.11C195.79 114.845 195.685 114.59 195.497 114.403C195.31 114.215 195.055 114.11 194.79 114.11C194.525 114.11 194.27 114.215 194.083 114.403C193.895 114.59 193.79 114.845 193.79 115.11C193.79 115.375 193.895 115.63 194.083 115.817C194.27 116.005 194.525 116.11 194.79 116.11Z" fill="white"/>
</g>
<g opacity="0.46">
<path opacity="0.46" d="M182.52 127.43C182.785 127.43 183.04 127.325 183.227 127.137C183.415 126.95 183.52 126.695 183.52 126.43C183.52 126.165 183.415 125.91 183.227 125.723C183.04 125.535 182.785 125.43 182.52 125.43C182.255 125.43 182 125.535 181.813 125.723C181.625 125.91 181.52 126.165 181.52 126.43C181.52 126.695 181.625 126.95 181.813 127.137C182 127.325 182.255 127.43 182.52 127.43Z" fill="white"/>
</g>
<g opacity="0.46">
<path opacity="0.46" d="M183 102.09C183.265 102.09 183.52 101.985 183.707 101.797C183.895 101.61 184 101.355 184 101.09C184 100.825 183.895 100.57 183.707 100.383C183.52 100.195 183.265 100.09 183 100.09C182.735 100.09 182.48 100.195 182.293 100.383C182.105 100.57 182 100.825 182 101.09C182 101.355 182.105 101.61 182.293 101.797C182.48 101.985 182.735 102.09 183 102.09Z" fill="white"/>
</g>
<g opacity="0.46">
<path opacity="0.46" d="M190 82.3199C190.265 82.3199 190.52 82.2146 190.707 82.0271C190.895 81.8395 191 81.5852 191 81.3199C191 81.0547 190.895 80.8004 190.707 80.6128C190.52 80.4253 190.265 80.3199 190 80.3199C189.735 80.3199 189.48 80.4253 189.293 80.6128C189.105 80.8004 189 81.0547 189 81.3199C189 81.5852 189.105 81.8395 189.293 82.0271C189.48 82.2146 189.735 82.3199 190 82.3199Z" fill="white"/>
</g>
<g opacity="0.46">
<path opacity="0.46" d="M190 67C190.265 67 190.52 66.8946 190.707 66.7071C190.895 66.5196 191 66.2652 191 66C191 65.7348 190.895 65.4804 190.707 65.2929C190.52 65.1054 190.265 65 190 65C189.735 65 189.48 65.1054 189.293 65.2929C189.105 65.4804 189 65.7348 189 66C189 66.2652 189.105 66.5196 189.293 66.7071C189.48 66.8946 189.735 67 190 67Z" fill="white"/>
</g>
<g opacity="0.46">
<path opacity="0.46" d="M214.88 99.3799C215.145 99.3799 215.4 99.2745 215.587 99.087C215.775 98.8995 215.88 98.6451 215.88 98.3799C215.88 98.1147 215.775 97.8603 215.587 97.6728C215.4 97.4852 215.145 97.3799 214.88 97.3799C214.615 97.3799 214.36 97.4852 214.173 97.6728C213.985 97.8603 213.88 98.1147 213.88 98.3799C213.88 98.6451 213.985 98.8995 214.173 99.087C214.36 99.2745 214.615 99.3799 214.88 99.3799Z" fill="white"/>
</g>
<g opacity="0.46">
<path opacity="0.46" d="M180.61 86.1499C180.875 86.1499 181.13 86.0445 181.317 85.857C181.505 85.6695 181.61 85.4151 181.61 85.1499C181.61 84.8847 181.505 84.6303 181.317 84.4428C181.13 84.2553 180.875 84.1499 180.61 84.1499C180.345 84.1499 180.09 84.2553 179.903 84.4428C179.715 84.6303 179.61 84.8847 179.61 85.1499C179.61 85.4151 179.715 85.6695 179.903 85.857C180.09 86.0445 180.345 86.1499 180.61 86.1499Z" fill="white"/>
</g>
</g>
<defs>
<clipPath id="clip0">
<rect width="370.29" height="313.37" fill="white"/>
</clipPath>
</defs>
</svg>
