<svg width="299" height="395" viewBox="0 0 299 395" fill="none" xmlns="http://www.w3.org/2000/svg">
<path d="M297.172 223.652C297.177 253.379 288.23 282.419 271.496 306.989C254.762 331.559 231.016 350.52 203.352 361.402C201.182 362.272 198.972 363.082 196.752 363.832C194.272 364.682 191.765 365.462 189.232 366.172C187.472 366.662 185.695 367.122 183.902 367.552C156.906 374.021 128.639 372.815 102.292 364.072C100.222 363.382 98.1717 362.642 96.1417 361.872C93.4117 360.822 90.7118 359.692 88.0618 358.482C87.8618 358.402 87.6718 358.312 87.4818 358.222C86.4418 357.742 85.4318 357.262 84.4018 356.752H84.3918C82.9818 356.072 81.5851 355.365 80.2018 354.632C77.0218 352.952 73.9118 351.162 70.8718 349.262C69.2918 348.282 67.7352 347.265 66.2018 346.212C42.0684 329.918 23.2801 306.864 12.1912 279.939C1.10228 253.014 -1.79417 223.415 3.86479 194.852C9.52374 166.288 23.4864 140.029 44.0033 119.366C64.5203 98.7025 90.6789 84.5535 119.202 78.6917C121.812 78.1517 124.448 77.685 127.112 77.2917C128.782 77.0317 130.472 76.8116 132.162 76.6216C133.372 76.4816 134.582 76.3516 135.812 76.2516H135.822C139.112 75.9516 142.432 75.765 145.782 75.6917C146.242 75.6817 146.702 75.6717 147.172 75.6617C147.432 75.6617 147.692 75.6517 147.952 75.6617H147.962C148.362 75.6517 148.762 75.6517 149.172 75.6517C150.852 75.6517 152.532 75.6816 154.202 75.7416C157.882 75.8616 161.522 76.115 165.122 76.5016C167.202 76.7216 169.252 76.9917 171.302 77.2917C171.532 77.3317 171.772 77.3617 172.002 77.4017C172.682 77.5117 173.372 77.6216 174.052 77.7416C175.492 77.9716 176.922 78.2417 178.352 78.5317C179.692 78.8017 181.022 79.0817 182.352 79.3817C187.267 80.5031 192.121 81.8816 196.892 83.5117C229.227 94.5662 256.757 116.441 274.832 145.442C275.342 146.252 275.842 147.072 276.332 147.902C276.712 148.522 277.072 149.142 277.432 149.772C277.562 149.982 277.682 150.192 277.792 150.402C277.872 150.522 277.932 150.642 278.002 150.762C278.662 151.912 279.302 153.082 279.922 154.252C291.283 175.617 297.208 199.453 297.172 223.652V223.652Z" fill="white"/>
<path d="M149.187 372.656C133.143 372.656 117.203 370.078 101.977 365.021C100.014 364.366 97.9895 363.642 95.7872 362.807C93.0089 361.738 90.2713 360.59 87.6464 359.391C87.4716 359.322 87.2641 359.225 87.0566 359.127C86.0612 358.668 85.088 358.206 84.0982 357.717L83.9576 357.652C82.5534 356.976 81.1323 356.256 79.7337 355.516C76.5485 353.833 73.3883 352.014 70.3417 350.11C68.7564 349.127 67.172 348.091 65.6354 347.036C41.3404 330.631 22.4268 307.421 11.2644 280.314C0.101932 253.207 -2.81296 223.409 2.88491 194.653C8.58277 165.897 22.64 139.462 43.2953 118.66C63.9507 97.8576 90.2856 83.6135 119.001 77.712C121.619 77.1705 124.299 76.6964 126.966 76.3024C128.545 76.0568 130.259 75.8292 132.05 75.628C133.268 75.4869 134.489 75.356 135.731 75.255C139.026 74.9557 142.4 74.7657 145.76 74.6915L147.419 74.6598C147.609 74.6569 147.799 74.6554 147.989 74.6622C148.345 74.652 148.753 74.652 149.172 74.652C150.864 74.652 152.568 74.6822 154.238 74.7423C157.926 74.8629 161.625 75.1202 165.229 75.5074C167.137 75.7091 169.171 75.9694 171.447 76.3024L172.408 76.4547C173.013 76.5519 173.623 76.6505 174.226 76.757C175.522 76.964 176.902 77.2174 178.551 77.5519C179.897 77.8234 181.234 78.1046 182.572 78.4064C187.522 79.5368 192.41 80.9251 197.215 82.5656C229.751 93.7252 257.457 115.74 275.68 144.913C276.193 145.727 276.697 146.554 277.193 147.394C277.57 148.007 277.935 148.636 278.3 149.276C278.417 149.464 278.54 149.678 278.655 149.895C278.711 149.983 278.76 150.07 278.809 150.158L278.866 150.258C279.494 151.354 280.128 152.505 280.805 153.783C290.643 172.325 296.454 192.736 297.856 213.679C299.259 234.622 296.222 255.625 288.944 275.313C281.667 295.001 270.313 312.93 255.626 327.926C240.939 342.922 223.25 354.647 203.718 362.332C201.6 363.181 199.362 364.006 197.072 364.779C194.592 365.629 192.044 366.422 189.502 367.134C187.741 367.625 185.936 368.092 184.135 368.525C172.688 371.268 160.958 372.655 149.187 372.656V372.656ZM84.6207 355.752H84.6259L84.8458 355.856C85.8673 356.361 86.8692 356.837 87.9008 357.314C88.0826 357.399 88.2535 357.481 88.4335 357.553C91.065 358.753 93.7646 359.886 96.5007 360.938C98.6732 361.762 100.672 362.478 102.608 363.123C128.777 371.815 156.855 373.012 183.669 366.579C185.446 366.153 187.228 365.691 188.963 365.208C191.467 364.506 193.979 363.725 196.428 362.886C198.687 362.122 200.89 361.311 202.98 360.473C230.525 349.763 254.176 330.954 270.813 306.528C287.451 282.101 296.292 253.205 296.172 223.651V223.65C296.187 199.618 290.304 175.95 279.039 154.721C278.371 153.461 277.748 152.329 277.134 151.26L277.061 151.129C277.029 151.072 276.998 151.014 276.96 150.958L276.906 150.866C276.807 150.677 276.699 150.488 276.582 150.298C276.209 149.647 275.854 149.036 275.479 148.425C274.986 147.588 274.491 146.776 273.986 145.975C256.007 117.191 228.671 95.4691 196.568 84.4581C191.83 82.8402 187.011 81.4713 182.129 80.3571C180.809 80.0587 179.487 79.7804 178.154 79.5123C176.532 79.1832 175.179 78.9347 173.894 78.7291C173.285 78.6217 172.684 78.525 172.09 78.4288L171.13 78.277C168.908 77.9523 166.9 77.6954 165.017 77.4962C161.461 77.1139 157.812 76.86 154.169 76.7413C152.52 76.6818 150.84 76.652 149.172 76.652C148.765 76.6534 148.378 76.652 147.986 76.6613C147.758 76.6554 147.601 76.6574 147.444 76.6593L145.803 76.6915C142.49 76.7643 139.162 76.9513 135.913 77.2477L135.812 77.2516C134.674 77.3473 133.476 77.4762 132.277 77.6149C130.51 77.8136 128.825 78.0372 127.266 78.2798C124.629 78.6695 121.987 79.1368 119.404 79.671C91.074 85.493 65.092 99.5462 44.7135 120.07C24.3351 140.593 10.4666 166.675 4.8458 195.045C-0.775032 223.416 2.10176 252.815 13.1157 279.558C24.1297 306.301 42.791 329.199 66.7614 345.383C68.2791 346.426 69.8371 347.443 71.3989 348.412C74.4074 350.292 77.5254 352.087 80.669 353.748C81.9781 354.441 83.3061 355.115 84.6207 355.752Z" fill="#CBCBCB"/>
<path d="M275.818 191.515C274.202 193.624 272.144 195.352 269.788 196.58C267.432 197.807 264.835 198.502 262.181 198.618C259.527 198.733 256.88 198.264 254.426 197.246C251.973 196.227 249.772 194.683 247.98 192.722L208.933 206.853L194.559 185.218L249.981 166.038C253.475 163.245 257.872 161.831 262.338 162.064C266.805 162.297 271.031 164.16 274.216 167.3C277.4 170.441 279.323 174.64 279.618 179.103C279.913 183.566 278.561 187.982 275.818 191.515V191.515Z" fill="#9F616A"/>
<path d="M153.806 193.529L234.25 166.939L247.806 196.529L172.806 219.529L153.806 193.529Z" fill="#CCCCCC"/>
<path d="M183.902 367.552C156.906 374.021 128.639 372.815 102.292 364.072L104.092 347.052L105.762 331.152L130.812 292.422L138.842 280.012L171.932 292.042L175.302 313.292L180.672 347.182L183.902 367.552Z" fill="#2F2E41"/>
<path d="M203.352 361.402C201.182 362.272 198.972 363.082 196.752 363.832C194.272 364.682 191.765 365.462 189.232 366.172C187.472 366.662 185.695 367.122 183.902 367.552C156.906 374.021 128.639 372.815 102.292 364.072C100.222 363.382 98.1719 362.642 96.1419 361.872C96.4189 367.793 96.2384 373.728 95.6019 379.622C92.7132 372.714 90.1963 365.658 88.0619 358.482C87.9119 358.002 87.7719 357.522 87.6319 357.042C86.9319 354.622 86.3119 352.312 85.7519 350.142C85.1119 347.632 84.5619 345.302 84.1019 343.172C82.2719 334.812 81.6919 329.642 81.6919 329.642L101.242 289.042L105.152 289.492L106.772 289.672L116.572 290.792L130.812 292.422L153.882 295.052L175.302 313.292L194.492 329.642C194.492 329.642 196.092 335.082 198.602 344.092C199.962 348.932 201.572 354.802 203.352 361.402Z" fill="#2F2E41"/>
<path d="M141.372 91.3325C160.476 91.3325 175.963 75.8457 175.963 56.7419C175.963 37.638 160.476 22.1512 141.372 22.1512C122.268 22.1512 106.782 37.638 106.782 56.7419C106.782 75.8457 122.268 91.3325 141.372 91.3325Z" fill="#9F616A"/>
<path d="M165.451 129.611C165.451 129.611 157.137 103.913 137.586 103.913C132.698 103.913 124.81 104.318 118.398 108.503C92.5824 125.349 76.8773 153.983 75.6741 184.785L69.6631 338.667C69.6631 338.667 102.75 350.698 114.781 346.186C126.813 341.675 138.844 311.596 138.844 311.596C138.844 311.596 135.836 352.202 147.868 350.698C159.899 349.194 205.018 346.186 206.522 340.171C208.026 334.155 183.498 204.808 183.498 204.808L165.451 129.611Z" fill="#CCCCCC"/>
<path d="M124.556 66.8831C127.66 66.6979 130.69 67.7466 133.771 68.1557C144.796 69.6195 156.266 61.6191 158.7 50.7668C158.896 49.3216 159.326 47.9182 159.975 46.6124C161.672 43.842 165.537 43.3138 168.722 43.9509C171.908 44.5879 174.928 46.0789 178.172 46.2491C183.181 46.512 187.99 43.4281 190.66 39.1814C193.33 34.9346 194.085 29.7091 193.725 24.7059L191.324 27.2263C190.348 25.1619 189.971 22.8651 190.236 20.5972C188.964 20.2583 187.625 20.2518 186.35 20.5783C185.074 20.9047 183.903 21.5532 182.95 22.4617C180.832 22.687 182.431 18.5342 180.857 17.099C180.092 16.6289 179.18 16.4583 178.297 16.62C173.793 16.6634 170.149 13.218 166.599 10.4443C160.448 5.64934 153.256 2.36865 145.603 0.867441C140.517 -0.124699 135.108 -0.284105 130.284 1.61002C126.322 3.16557 123.006 5.99873 119.938 8.94871C112.386 16.2108 105.698 24.7435 102.556 34.7387C100.002 42.9256 99.9296 51.6856 102.348 59.9136C103.614 64.1866 107.43 78.8205 113.016 79.1613C120.034 79.5895 115.82 67.4043 124.556 66.8831Z" fill="#2F2E41"/>
<path opacity="0.1" d="M139.162 175.153L103.741 227.104L92.4131 347.774L139.162 175.153Z" fill="black"/>
<path d="M289.284 143.397C290.131 142.209 290.457 140.988 290.012 140.67C289.566 140.353 288.518 141.058 287.67 142.246C286.823 143.434 286.497 144.655 286.942 144.972C287.388 145.29 288.436 144.585 289.284 143.397Z" fill="#3F3D56"/>
<path d="M242.047 199.366C241.049 198.653 240.374 197.574 240.172 196.364C239.97 195.154 240.257 193.914 240.969 192.916V192.916L281.255 136.451C281.967 135.453 283.047 134.779 284.257 134.576C285.466 134.374 286.707 134.661 287.705 135.373L242.047 199.366L242.047 199.366Z" fill="#6C63FF"/>
<path d="M243.702 205.009L241.371 203.346C240.971 203.061 240.631 202.699 240.37 202.282C240.11 201.865 239.934 201.401 239.853 200.917C239.772 200.432 239.787 199.936 239.898 199.457C240.008 198.978 240.212 198.526 240.498 198.126L286.367 133.837C286.854 133.154 287.592 132.693 288.418 132.555C289.245 132.417 290.092 132.613 290.775 133.1V133.1L293.58 135.101L243.702 205.009H243.702Z" fill="#2F2E41"/>
<path d="M284.982 140.327L281.912 144.629L282.988 145.397L286.057 141.095L284.982 140.327Z" fill="#D0CDE1"/>
<path d="M280.761 146.243L277.692 150.545L278.767 151.312L281.837 147.01L280.761 146.243Z" fill="#D0CDE1"/>
<path d="M100.454 387.135C102.006 384.979 103.066 382.509 103.56 379.899C104.054 377.289 103.969 374.602 103.312 372.028C102.656 369.454 101.442 367.055 99.7583 365C98.0742 362.946 95.96 361.286 93.5648 360.136L95.8084 318.672L70.943 311.163L68.597 369.763C66.9334 373.915 66.8505 378.533 68.364 382.742C69.8776 386.95 72.8824 390.458 76.8092 392.599C80.7359 394.74 85.3117 395.367 89.6696 394.36C94.0274 393.353 97.8645 390.782 100.454 387.135H100.454Z" fill="#9F616A"/>
<path d="M100.321 353.029H64.3486L54.4504 242.224L54.4844 242.124L88.1536 143.241C89.3391 139.759 91.2366 136.562 93.7254 133.854C96.2142 131.146 99.2396 128.986 102.609 127.511C105.979 126.037 109.618 125.28 113.296 125.289C116.974 125.298 120.61 126.073 123.972 127.565C127.334 129.056 130.349 131.231 132.824 133.952C135.299 136.673 137.181 139.879 138.349 143.366C139.517 146.854 139.946 150.547 139.609 154.209C139.271 157.872 138.175 161.424 136.389 164.639L96.7715 235.986L100.321 353.029Z" fill="#CCCCCC"/>
</svg>
