<svg width="300" height="421" viewBox="0 0 300 421" fill="none" xmlns="http://www.w3.org/2000/svg">
<path d="M298.172 271.495C298.199 300.661 289.617 329.186 273.5 353.494C257.383 377.802 234.449 396.812 207.573 408.14C180.697 419.468 151.075 422.61 122.421 417.173C93.7661 411.736 67.3543 397.961 46.496 377.576C25.6378 357.19 11.2614 331.101 5.16905 302.578C-0.923275 274.056 1.53958 244.37 12.2489 217.241C22.9582 190.113 41.4374 166.749 65.3699 150.08C89.3023 133.41 117.623 124.176 146.782 123.535C147.242 123.525 147.702 123.515 148.172 123.505C148.832 123.495 149.502 123.495 150.172 123.495C151.852 123.495 153.532 123.525 155.202 123.585C158.882 123.705 162.522 123.959 166.122 124.345C168.202 124.565 170.252 124.835 172.302 125.135C172.532 125.175 172.772 125.205 173.002 125.245C181.461 126.549 189.79 128.594 197.892 131.355C227.14 141.33 252.534 160.205 270.517 185.336C288.5 210.466 298.17 240.593 298.172 271.495Z" fill="white"/>
<path d="M150.034 420.77C67.8626 420.774 0.978579 353.964 0.901189 271.775C0.864503 232.765 16.1142 195.294 43.3806 167.395C70.647 139.497 107.759 123.393 146.76 122.535L148.15 122.505C150.505 122.471 152.902 122.502 155.238 122.586C158.922 122.706 162.621 122.963 166.229 123.351C168.139 123.553 170.173 123.813 172.447 124.146L173.173 124.26C208.296 129.713 240.308 147.557 263.418 174.562C286.528 201.567 299.211 235.951 299.172 271.495V271.494C299.249 353.728 232.411 420.692 150.177 420.77L150.034 420.77ZM150.156 124.495C149.496 124.495 148.836 124.495 148.187 124.505L146.804 124.535C67.3807 126.28 2.82624 192.332 2.90119 271.774C2.9776 352.855 68.9713 418.766 150.034 418.77H150.175C231.306 418.693 297.248 352.627 297.172 271.496V271.495C297.211 236.426 284.696 202.5 261.893 175.857C239.09 149.213 207.504 131.61 172.849 126.234L172.13 126.121C169.91 125.796 167.901 125.539 166.017 125.34C162.456 124.957 158.807 124.703 155.169 124.585C153.52 124.525 151.84 124.495 150.172 124.495H150.156Z" fill="#CBCBCB"/>
<path d="M36.9261 279.484C37.2189 279.022 36.4568 278.014 35.2238 277.233C33.9909 276.453 32.7541 276.195 32.4613 276.657C32.1685 277.119 32.9306 278.127 34.1636 278.908C35.3965 279.689 36.6333 279.947 36.9261 279.484Z" fill="#3F3D56"/>
<path d="M32.6003 270.881C32.9252 270.368 33.348 269.924 33.8445 269.574C34.341 269.224 34.9015 268.976 35.494 268.843C36.0865 268.71 36.6994 268.695 37.2977 268.799C37.896 268.902 38.468 269.123 38.9811 269.448V269.448L97.5823 306.557C98.0954 306.882 98.5394 307.305 98.8891 307.801C99.2388 308.298 99.4872 308.858 99.6202 309.451C99.7533 310.043 99.7683 310.656 99.6645 311.254C99.5607 311.853 99.34 312.425 99.0151 312.938V312.938L32.6003 270.881V270.881Z" fill="#6C63FF"/>
<path d="M27.0567 272.844L28.9003 269.932C29.3487 269.224 30.0599 268.723 30.8776 268.54C31.6953 268.356 32.5525 268.505 33.2606 268.953L99.9829 311.205C100.398 311.468 100.758 311.81 101.041 312.212C101.324 312.614 101.525 313.067 101.632 313.547C101.74 314.026 101.752 314.523 101.668 315.007C101.584 315.491 101.406 315.954 101.143 316.369L99.6105 318.788L27.0566 272.844H27.0567Z" fill="#2F2E41"/>
<path d="M36.991 274.443L36.2842 275.559L40.749 278.386L41.4559 277.27L36.991 274.443Z" fill="#D0CDE1"/>
<path d="M43.1302 278.331L42.4233 279.447L46.8882 282.274L47.5951 281.158L43.1302 278.331Z" fill="#D0CDE1"/>
<path d="M150.567 138.731C173.571 138.731 192.219 120.082 192.219 97.0787C192.219 74.075 173.571 55.4268 150.567 55.4268C127.563 55.4268 108.915 74.075 108.915 97.0787C108.915 120.082 127.563 138.731 150.567 138.731Z" fill="#FFB8B8"/>
<path d="M190.232 414.015C156.439 423.452 120.398 420.636 88.4817 406.065L91.6817 320.565L91.9217 313.915L92.0117 311.755L92.1217 308.575L92.2017 306.545C92.2017 306.545 92.3317 306.535 92.5817 306.525C93.2617 306.475 94.8317 306.365 97.0817 306.235C99.6917 306.085 103.202 305.895 107.292 305.725C108.262 305.685 109.262 305.645 110.292 305.595C131.832 304.795 165.472 304.625 169.922 311.115L170.482 314.935L171.382 321.105L173.222 333.715C173.222 333.715 194.142 375.315 190.232 414.015Z" fill="#2F2E41"/>
<path d="M200.806 198.373L192.602 274.152L176.978 308.713L171.187 321.529L87.3755 320.513L96.0106 262.099C83.8198 230.606 112.773 217.907 112.773 217.907L142.806 156.373C142.806 156.373 150.806 152.373 171.695 151.366C191.115 150.43 175.806 153.373 175.806 153.373C201.204 150.833 200.806 198.373 200.806 198.373Z" fill="#CCCCCC"/>
<path opacity="0.2" d="M175.602 278.152L159.978 312.713C154.959 303.326 151.139 292.695 151.139 286.417C151.139 269.146 168.41 278.29 168.41 278.29C168.41 278.29 154.441 201.843 154.441 178.985C154.441 163.803 167.099 231.182 175.602 278.152Z" fill="black"/>
<path d="M198.571 71.7029C195.861 65.0903 191.669 59.1881 186.319 54.451C188.513 53.7152 190.345 52.1718 191.442 50.1342C193.046 46.9608 192.196 42.9812 190.016 40.1409C188.03 37.7412 185.46 35.8919 182.553 34.7703C184.683 35.7387 187.012 36.1868 189.349 36.0776C192.182 35.783 195.014 33.5596 194.846 30.8011C194.686 28.1732 192.1 26.3962 189.78 25.0248C188.275 24.1352 186.77 23.2456 185.265 22.356C185.712 21.4918 186.104 20.6006 186.441 19.6877C187.74 16.369 188.053 12.7458 187.343 9.25338C186.632 5.76097 184.929 2.54786 182.437 0C187.366 5.01764 186.107 12.7831 181.238 19.085C181.081 19.2881 180.912 19.4861 180.749 19.6866C179.784 19.1163 178.819 18.546 177.854 17.9757C175.448 16.5533 172.946 15.0977 170.151 14.7622C167.356 14.4268 164.172 15.5332 163.031 18.0266C161.809 20.6955 163.198 24.1014 161.607 26.5794C160.214 28.7477 157.173 29.2094 154.538 29.1067C151.903 29.004 149.101 28.5877 146.756 29.7533C143.497 31.3737 142.427 35.7558 143.877 39.0239C144.521 40.4158 145.482 41.638 146.682 42.593C139.706 43.5671 132.835 45.6386 126.083 47.7453C118.122 50.2297 110.012 52.8684 103.358 57.8969C96.7038 62.9254 91.6627 70.8631 92.2968 79.1793C92.9309 87.4955 101.193 100.594 109.426 99.264L110.68 95.3397C115.659 92.973 121.253 92.2196 126.68 93.1846C132.108 94.1497 137.1 96.785 140.958 100.723C141.053 95.4871 149.022 93.7475 152.994 97.1612C156.965 100.575 157.731 106.346 158.039 111.574C158.347 116.802 158.638 122.494 162.082 126.439C165.387 130.226 171.017 131.4 175.915 130.272C180.813 129.144 185.047 126.037 188.554 122.437C201.279 109.376 205.377 88.6194 198.571 71.7029Z" fill="#2F2E41"/>
<path d="M65.72 315.509C67.8762 317.061 70.3464 318.122 72.9566 318.616C75.5669 319.109 78.2536 319.025 80.8277 318.368C83.4018 317.711 85.8006 316.498 87.8551 314.814C89.9096 313.13 91.5699 311.016 92.719 308.621L206.184 310.864L213.693 285.999L83.0922 283.653C78.9405 281.989 74.3227 281.906 70.1139 283.42C65.9051 284.933 62.3977 287.938 60.2564 291.865C58.115 295.792 57.4885 300.368 58.4955 304.725C59.5024 309.083 62.073 312.92 65.72 315.509V315.509Z" fill="#FFB8B8"/>
<path d="M176.029 149.27C176.029 149.27 149.615 151.302 149.615 174.16C149.615 197.018 173.489 278.29 173.489 278.29C173.489 278.29 156.219 269.146 156.219 286.417C156.219 303.687 185.172 353.974 188.22 320.449C188.22 320.449 231.903 341.783 229.364 301.655C226.824 261.527 199.395 176.7 199.395 176.7C199.395 176.7 196.347 147.746 176.029 149.27Z" fill="#CCCCCC"/>
</svg>
