<svg width="182" height="182" viewBox="0 0 182 182" fill="none" xmlns="http://www.w3.org/2000/svg">
<path d="M90.9922 181.209C140.818 181.209 181.209 140.818 181.209 90.9922C181.209 41.167 140.818 0.775589 90.9922 0.775589C41.1669 0.775589 0.775574 41.167 0.775574 90.9922C0.775574 140.818 41.1669 181.209 90.9922 181.209Z" fill="#FFD647" stroke="#263238" stroke-linecap="round" stroke-linejoin="round"/>
<path d="M7.38354 104.999C9.27804 116.356 13.4668 127.207 19.6941 136.891C25.9215 146.574 34.0568 154.887 43.6036 161.323" fill="#FFD647"/>
<path d="M7.38354 104.999C9.27804 116.356 13.4668 127.207 19.6941 136.891C25.9215 146.574 34.0568 154.887 43.6036 161.323" stroke="#263238" stroke-linecap="round" stroke-linejoin="round"/>
<path d="M8.25221 72.5022C6.89157 78.5715 6.2049 84.7724 6.20465 90.9923L8.25221 72.5022Z" fill="#FFD647"/>
<path d="M8.25221 72.5022C6.89157 78.5715 6.2049 84.7724 6.20465 90.9923" stroke="#263238" stroke-linecap="round" stroke-linejoin="round"/>
<path d="M13.3401 56.9283C12.1184 59.7287 11.0465 62.5921 10.1292 65.5063L13.3401 56.9283Z" fill="#FFD647"/>
<path d="M13.3401 56.9283C12.1184 59.7287 11.0465 62.5921 10.1292 65.5063" stroke="#263238" stroke-linecap="round" stroke-linejoin="round"/>
<path d="M34.6378 104.488C36.189 111.173 33.521 117.455 28.8209 118.448C24.1208 119.441 19.1415 114.896 17.6679 108.195C16.1943 101.494 18.7848 95.227 23.4693 94.2342C28.1539 93.2415 33.1642 97.7244 34.6378 104.488Z" fill="#FFD647" stroke="#263238" stroke-linecap="round" stroke-linejoin="round"/>
<path d="M156.695 130.142C161.612 120.562 159.537 109.685 152.06 105.847C144.584 102.009 134.536 106.665 129.619 116.245C124.702 125.826 126.777 136.703 134.253 140.541C141.73 144.378 151.778 139.723 156.695 130.142Z" fill="#FFD647" stroke="#263238" stroke-linecap="round" stroke-linejoin="round"/>
<path d="M32.3576 63.8156C32.3576 66.7318 30.6978 69.0896 28.6348 69.0896C26.5717 69.0896 24.9119 66.7318 24.9119 63.8156C24.9119 60.8993 26.5717 58.5415 28.6348 58.5415C30.6978 58.5415 32.3576 60.8993 32.3576 63.8156Z" fill="#FFD647" stroke="#263238" stroke-linecap="round" stroke-linejoin="round"/>
<path d="M58.7897 145.33C60.8838 148.045 61.0234 151.442 59.1155 152.9C57.2075 154.358 53.9811 153.334 51.887 150.604C49.7929 147.874 49.6533 144.492 51.5612 143.034C53.4692 141.576 56.7111 142.6 58.7897 145.33Z" fill="#FFD647" stroke="#263238" stroke-linecap="round" stroke-linejoin="round"/>
<path d="M78.6759 166.209C78.133 168.008 75.0306 168.675 71.7576 167.76C68.4846 166.845 66.2354 164.518 66.7783 162.703C67.3212 160.888 70.4236 160.237 73.7121 161.152C77.0006 162.067 79.2188 164.425 78.6759 166.209Z" fill="#FFD647" stroke="#263238" stroke-linecap="round" stroke-linejoin="round"/>
<path d="M128.748 152.016C129.632 153.691 127.879 156.343 124.839 157.926C121.799 159.508 118.634 159.477 117.75 157.786C116.866 156.095 118.619 153.474 121.659 151.876C124.699 150.278 127.864 150.278 128.748 152.016Z" fill="#FFD647" stroke="#263238" stroke-linecap="round" stroke-linejoin="round"/>
<path d="M101.292 17.063C101.292 18.9399 98.4224 20.398 94.9942 20.2895C91.5661 20.1809 88.7895 18.5832 88.8826 16.6907C88.9757 14.7983 91.7678 13.3557 95.1959 13.4643C98.624 13.5729 101.354 15.2171 101.292 17.063Z" fill="#FFD647" stroke="#263238" stroke-linecap="round" stroke-linejoin="round"/>
<path d="M99.4617 152.76C97.7864 158.965 89.0688 161.835 79.9634 159.368C70.8579 156.902 64.8394 149.922 66.4991 143.856C68.1589 137.791 76.892 134.782 85.9974 137.248C95.1029 139.715 101.121 146.633 99.4617 152.76Z" fill="#FFD647" stroke="#263238" stroke-linecap="round" stroke-linejoin="round"/>
<path d="M95.4131 147.688C95.9332 148.969 96.0203 150.386 95.6613 151.721C94.6375 155.521 90.0771 157.74 84.6945 157.46" fill="#FFD647"/>
<path d="M95.4131 147.688C95.9332 148.969 96.0203 150.386 95.6613 151.721C94.6375 155.521 90.0771 157.74 84.6945 157.46" stroke="#263238" stroke-linecap="round" stroke-linejoin="round"/>
<path d="M90.0615 141.762C91.0637 142.364 91.9951 143.077 92.8381 143.887L90.0615 141.762Z" fill="#FFD647"/>
<path d="M90.0615 141.762C91.0637 142.364 91.9951 143.077 92.8381 143.887" stroke="#263238" stroke-linecap="round" stroke-linejoin="round"/>
<path d="M66.8248 112.569C77.9704 112.569 87.0057 103.395 87.0057 92.0781C87.0057 80.7611 77.9704 71.587 66.8248 71.587C55.6793 71.587 46.644 80.7611 46.644 92.0781C46.644 103.395 55.6793 112.569 66.8248 112.569Z" fill="#FFD647" stroke="#263238" stroke-linecap="round" stroke-linejoin="round"/>
<path d="M78.4431 106.287C76.5176 107.906 74.2785 109.11 71.8661 109.824L78.4431 106.287Z" fill="#FFD647"/>
<path d="M78.4431 106.287C76.5176 107.906 74.2785 109.11 71.8661 109.824" stroke="#263238" stroke-linecap="round" stroke-linejoin="round"/>
<path d="M69.3687 73.7741C73.7421 74.4341 77.7313 76.6476 80.6057 80.0091C83.4801 83.3707 85.0473 87.6553 85.0201 92.0781C85.0254 95.8043 83.9123 99.4464 81.8247 102.533" fill="#FFD647"/>
<path d="M69.3687 73.7741C73.7421 74.4341 77.7313 76.6476 80.6057 80.0091C83.4801 83.3707 85.0473 87.6553 85.0201 92.0781C85.0254 95.8043 83.9123 99.4464 81.8247 102.533" stroke="#263238" stroke-linecap="round" stroke-linejoin="round"/>
<path d="M164.642 68.7793C164.522 70.281 163.967 71.715 163.044 72.9063C162.122 74.0976 160.873 74.9945 159.45 75.4876C158.026 75.9806 156.49 76.0484 155.029 75.6827C153.567 75.317 152.244 74.5336 151.22 73.4282C150.197 72.3228 149.517 70.9433 149.265 69.4581C149.013 67.9729 149.198 66.4464 149.799 65.065C150.4 63.6836 151.39 62.507 152.649 61.6791C153.908 60.8512 155.38 60.4078 156.886 60.403C159.023 60.4918 161.038 61.4225 162.492 62.9919C163.945 64.5613 164.718 66.6418 164.642 68.7793Z" fill="#FFD647" stroke="#263238" stroke-linecap="round" stroke-linejoin="round"/>
<path d="M143.748 39.6327C142.414 41.4165 139.436 41.463 137.093 39.7257C134.751 37.9884 133.991 35.0722 135.247 33.3504C136.504 31.6286 139.544 31.5045 141.902 33.2418C144.26 34.9791 145.066 37.8333 143.748 39.6327Z" fill="#FFD647" stroke="#263238" stroke-linecap="round" stroke-linejoin="round"/>
<path d="M70.7958 68.2364L71.1526 64.7618" stroke="#263238" stroke-linecap="round" stroke-linejoin="round"/>
<path d="M57.6108 64.7618L59.0068 68.2364" stroke="#263238" stroke-linecap="round" stroke-linejoin="round"/>
<path d="M48.9397 108.148L46.5044 111.266" stroke="#263238" stroke-linecap="round" stroke-linejoin="round"/>
<path d="M77.7452 113.345L80.165 118.557" stroke="#263238" stroke-linecap="round" stroke-linejoin="round"/>
<path d="M90.5734 93.5672L96.4834 94.6065" stroke="#263238" stroke-linecap="round" stroke-linejoin="round"/>
<path d="M86.075 76.5663L88.1535 73.7896" stroke="#263238" stroke-linecap="round" stroke-linejoin="round"/>
<path d="M44.0845 89.41H40.9511" stroke="#263238" stroke-linecap="round" stroke-linejoin="round"/>
<path d="M50.677 78.9861L47.5436 77.9468" stroke="#263238" stroke-linecap="round" stroke-linejoin="round"/>
</svg>
