<svg width="714" height="411" viewBox="0 0 714 411" fill="none" xmlns="http://www.w3.org/2000/svg">
<g clip-path="url(#clip0)">
<path d="M601.014 141.718C601.006 140.888 601.246 140.073 601.703 139.379C602.161 138.685 602.816 138.142 603.584 137.819C604.353 137.496 605.2 137.408 606.019 137.566C606.837 137.724 607.591 138.121 608.182 138.706C608.774 139.292 609.177 140.039 609.341 140.854C609.505 141.668 609.423 142.512 609.103 143.28C608.784 144.047 608.243 144.703 607.549 145.163C606.855 145.623 606.039 145.868 605.205 145.865C604.657 145.867 604.113 145.761 603.605 145.554C603.098 145.346 602.636 145.041 602.247 144.656C601.858 144.271 601.549 143.813 601.337 143.309C601.126 142.805 601.016 142.264 601.014 141.718Z" fill="#FFE794"/>
<path d="M418.77 263.83C418.77 263.001 419.016 262.192 419.478 261.503C419.94 260.814 420.597 260.278 421.365 259.961C422.134 259.644 422.979 259.561 423.795 259.722C424.611 259.884 425.36 260.283 425.948 260.868C426.536 261.454 426.936 262.2 427.099 263.013C427.261 263.825 427.178 264.667 426.859 265.432C426.541 266.197 426.002 266.852 425.311 267.312C424.619 267.772 423.806 268.017 422.975 268.017C422.422 268.019 421.874 267.912 421.363 267.702C420.852 267.492 420.388 267.184 419.997 266.795C419.606 266.406 419.297 265.943 419.086 265.434C418.875 264.925 418.768 264.38 418.77 263.83V263.83Z" fill="#D6D6D6"/>
<path d="M302.794 287.039C302.794 286.21 303.041 285.4 303.503 284.711C303.966 284.022 304.623 283.485 305.393 283.169C306.162 282.852 307.008 282.77 307.824 282.933C308.64 283.096 309.389 283.496 309.977 284.083C310.564 284.67 310.964 285.417 311.124 286.23C311.285 287.044 311.2 287.886 310.879 288.651C310.559 289.416 310.018 290.069 309.325 290.528C308.631 290.986 307.817 291.23 306.985 291.227C306.433 291.227 305.887 291.118 305.378 290.908C304.868 290.697 304.406 290.389 304.016 290C303.627 289.61 303.319 289.149 303.109 288.641C302.899 288.133 302.792 287.588 302.794 287.039V287.039Z" fill="#D6D6D6"/>
<path d="M373.43 76.4813C371.108 76.4813 369.226 78.3562 369.226 80.6691C369.226 82.9819 371.108 84.8568 373.43 84.8568C375.753 84.8568 377.635 82.9819 377.635 80.6691C377.635 78.3562 375.753 76.4813 373.43 76.4813Z" fill="#D6D6D6"/>
<path d="M698.163 43.319C698.163 42.4908 698.41 41.6811 698.872 40.9925C699.334 40.3038 699.991 39.767 700.759 39.4501C701.527 39.1331 702.373 39.0502 703.189 39.2118C704.004 39.3733 704.753 39.7722 705.342 40.3579C705.93 40.9435 706.33 41.6897 706.492 42.5021C706.655 43.3144 706.571 44.1564 706.253 44.9216C705.935 45.6869 705.396 46.3409 704.704 46.801C704.013 47.2612 703.2 47.5068 702.368 47.5068C701.816 47.5086 701.268 47.4015 700.757 47.1917C700.246 46.9819 699.782 46.6735 699.391 46.2842C699 45.895 698.69 45.4326 698.48 44.9238C698.269 44.4149 698.162 43.8695 698.163 43.319V43.319Z" fill="#D6D6D6"/>
<path d="M631.267 79.5541C631.265 78.7246 631.509 77.9131 631.97 77.2224C632.431 76.5316 633.088 75.9928 633.857 75.6741C634.626 75.3555 635.472 75.2714 636.289 75.4325C637.106 75.5937 637.857 75.9928 638.445 76.5793C639.034 77.1658 639.435 77.9132 639.597 78.7268C639.759 79.5404 639.674 80.3836 639.354 81.1494C639.034 81.9151 638.493 82.569 637.8 83.0281C637.106 83.4873 636.291 83.7309 635.458 83.7282C634.348 83.7247 633.284 83.2837 632.499 82.5017C631.714 81.7197 631.271 80.66 631.267 79.5541V79.5541Z" fill="#D6D6D6"/>
<path d="M470.662 331.867C470.662 331.039 470.909 330.229 471.371 329.541C471.833 328.852 472.489 328.315 473.258 327.998C474.026 327.681 474.872 327.598 475.687 327.76C476.503 327.922 477.252 328.32 477.84 328.906C478.428 329.492 478.829 330.238 478.991 331.05C479.153 331.863 479.07 332.705 478.752 333.47C478.433 334.235 477.894 334.889 477.203 335.349C476.512 335.81 475.699 336.055 474.867 336.055C474.314 336.057 473.767 335.95 473.256 335.74C472.745 335.53 472.28 335.222 471.89 334.833C471.499 334.443 471.189 333.981 470.978 333.472C470.768 332.963 470.66 332.418 470.662 331.867V331.867Z" fill="#D6D6D6"/>
<path d="M512.67 33.5295C512.67 32.7012 512.917 31.8916 513.379 31.2029C513.841 30.5142 514.497 29.9774 515.266 29.6605C516.034 29.3435 516.88 29.2606 517.695 29.4222C518.511 29.5838 519.26 29.9826 519.848 30.5683C520.436 31.154 520.837 31.9001 520.999 32.7125C521.161 33.5248 521.078 34.3669 520.76 35.1321C520.442 35.8973 519.903 36.5513 519.211 37.0115C518.52 37.4717 517.707 37.7173 516.875 37.7173C516.322 37.7191 515.775 37.612 515.264 37.4022C514.753 37.1923 514.288 36.8839 513.898 36.4947C513.507 36.1055 513.197 35.6431 512.986 35.1342C512.776 34.6253 512.668 34.0799 512.67 33.5295Z" fill="#D6D6D6"/>
<path d="M474.198 170.992C471.876 170.992 469.993 172.867 469.993 175.179C469.993 177.492 471.876 179.367 474.198 179.367C476.52 179.367 478.403 177.492 478.403 175.179C478.403 172.867 476.52 170.992 474.198 170.992Z" fill="#FFE794"/>
<path d="M356.625 317.781C356.63 317.368 356.758 316.966 356.992 316.625C357.226 316.285 357.556 316.021 357.941 315.866C358.326 315.712 358.748 315.674 359.154 315.758C359.56 315.842 359.932 316.044 360.223 316.337C360.514 316.631 360.712 317.004 360.791 317.41C360.87 317.815 360.827 318.235 360.667 318.616C360.507 318.997 360.237 319.322 359.892 319.551C359.547 319.78 359.142 319.902 358.727 319.902C358.449 319.902 358.173 319.847 357.916 319.74C357.659 319.633 357.426 319.477 357.231 319.279C357.035 319.082 356.881 318.848 356.777 318.591C356.673 318.334 356.621 318.059 356.625 317.781V317.781Z" fill="#D6D6D6"/>
<path d="M417.514 344.54C417.514 344.125 417.637 343.721 417.868 343.376C418.099 343.032 418.427 342.764 418.812 342.605C419.196 342.447 419.619 342.405 420.026 342.486C420.434 342.567 420.809 342.766 421.103 343.059C421.397 343.352 421.597 343.725 421.678 344.131C421.759 344.537 421.718 344.958 421.559 345.341C421.399 345.723 421.13 346.05 420.784 346.281C420.438 346.511 420.032 346.633 419.616 346.633C419.059 346.633 418.524 346.413 418.13 346.02C417.735 345.627 417.514 345.095 417.514 344.54V344.54Z" fill="#FFE794"/>
<path d="M545.586 157.191C545.586 156.777 545.709 156.372 545.94 156.028C546.171 155.683 546.499 155.415 546.883 155.257C547.268 155.098 547.69 155.057 548.098 155.137C548.506 155.218 548.881 155.418 549.175 155.71C549.469 156.003 549.669 156.376 549.75 156.783C549.831 157.189 549.79 157.61 549.63 157.992C549.471 158.375 549.202 158.702 548.856 158.932C548.51 159.162 548.104 159.285 547.688 159.285C547.13 159.285 546.596 159.064 546.201 158.672C545.807 158.279 545.586 157.746 545.586 157.191Z" fill="#D6D6D6"/>
<path d="M381.827 200.252C381.827 199.838 381.95 199.433 382.181 199.088C382.412 198.744 382.74 198.476 383.125 198.317C383.509 198.159 383.931 198.117 384.339 198.198C384.747 198.279 385.122 198.478 385.416 198.771C385.71 199.064 385.91 199.437 385.991 199.843C386.072 200.249 386.031 200.67 385.872 201.053C385.712 201.436 385.443 201.763 385.097 201.993C384.751 202.223 384.345 202.346 383.929 202.346C383.372 202.346 382.837 202.125 382.442 201.732C382.048 201.34 381.827 200.807 381.827 200.252Z" fill="#D6D6D6"/>
<path d="M380.571 31.2315C380.571 30.8174 380.694 30.4126 380.925 30.0682C381.156 29.7239 381.484 29.4555 381.869 29.297C382.253 29.1386 382.676 29.0971 383.083 29.1779C383.491 29.2587 383.866 29.4581 384.16 29.7509C384.454 30.0438 384.654 30.4169 384.735 30.823C384.816 31.2292 384.775 31.6502 384.616 32.0328C384.456 32.4154 384.187 32.7425 383.841 32.9725C383.495 33.2026 383.089 33.3254 382.673 33.3254C382.116 33.3254 381.581 33.1048 381.187 32.7121C380.792 32.3194 380.571 31.7869 380.571 31.2315V31.2315Z" fill="#FFE794"/>
<path d="M328.201 262.076C328.201 261.662 328.324 261.257 328.555 260.912C328.786 260.568 329.114 260.3 329.499 260.141C329.883 259.983 330.305 259.941 330.713 260.022C331.121 260.103 331.496 260.302 331.79 260.595C332.084 260.888 332.284 261.261 332.365 261.667C332.446 262.073 332.405 262.494 332.245 262.877C332.086 263.26 331.817 263.587 331.471 263.817C331.125 264.047 330.719 264.17 330.303 264.17C330.027 264.171 329.752 264.119 329.496 264.014C329.241 263.909 329.008 263.755 328.812 263.56C328.617 263.366 328.462 263.134 328.357 262.879C328.252 262.624 328.199 262.351 328.201 262.076Z" fill="#FFE794"/>
<path d="M155.445 378.178C155.442 377.349 155.686 376.538 156.147 375.847C156.607 375.157 157.263 374.618 158.031 374.299C158.799 373.98 159.645 373.895 160.462 374.055C161.278 374.215 162.029 374.613 162.618 375.198C163.208 375.783 163.609 376.529 163.773 377.342C163.936 378.155 163.854 378.997 163.536 379.763C163.218 380.529 162.679 381.184 161.987 381.645C161.295 382.106 160.482 382.352 159.65 382.352C158.537 382.352 157.469 381.912 156.681 381.13C155.893 380.348 155.448 379.286 155.445 378.178Z" fill="#D6D6D6"/>
<path d="M209.289 408.906C209.289 408.492 209.413 408.087 209.644 407.743C209.875 407.398 210.203 407.13 210.587 406.972C210.971 406.813 211.394 406.772 211.802 406.852C212.21 406.933 212.584 407.133 212.878 407.426C213.172 407.718 213.373 408.091 213.454 408.498C213.535 408.904 213.493 409.325 213.334 409.707C213.175 410.09 212.905 410.417 212.56 410.647C212.214 410.877 211.808 411 211.392 411C210.834 411 210.299 410.779 209.905 410.387C209.511 409.994 209.289 409.461 209.289 408.906Z" fill="#D6D6D6"/>
<path d="M180.865 353.214C180.854 352.796 180.969 352.384 181.196 352.032C181.422 351.68 181.749 351.403 182.134 351.238C182.52 351.072 182.946 351.025 183.359 351.103C183.771 351.181 184.151 351.38 184.449 351.675C184.747 351.969 184.949 352.346 185.03 352.756C185.111 353.167 185.067 353.592 184.903 353.977C184.739 354.362 184.464 354.689 184.111 354.917C183.759 355.144 183.347 355.262 182.927 355.254C182.386 355.243 181.869 355.026 181.485 354.646C181.101 354.266 180.879 353.753 180.865 353.214Z" fill="#FFE794"/>
<path d="M359.123 338.788C359.93 338.988 360.66 339.422 361.22 340.035C361.78 340.648 362.145 341.413 362.268 342.232C362.391 343.052 362.267 343.889 361.913 344.639C361.558 345.388 360.987 346.016 360.274 346.443C359.561 346.869 358.736 347.075 357.905 347.035C357.074 346.995 356.274 346.71 355.605 346.217C354.937 345.723 354.431 345.043 354.15 344.263C353.87 343.483 353.828 342.638 354.031 341.834C354.302 340.758 354.99 339.833 355.944 339.262C356.899 338.691 358.042 338.521 359.123 338.788V338.788Z" fill="#D6D6D6"/>
<path d="M316.173 383.399C316.577 383.497 316.943 383.714 317.224 384.02C317.505 384.326 317.688 384.708 317.751 385.118C317.814 385.528 317.753 385.947 317.576 386.322C317.399 386.698 317.114 387.012 316.757 387.226C316.4 387.44 315.988 387.544 315.572 387.524C315.156 387.504 314.755 387.362 314.421 387.115C314.086 386.868 313.833 386.528 313.693 386.137C313.553 385.747 313.532 385.324 313.634 384.922C313.699 384.655 313.817 384.404 313.98 384.183C314.143 383.962 314.349 383.775 314.585 383.634C314.821 383.492 315.083 383.399 315.355 383.358C315.628 383.318 315.906 383.332 316.173 383.399V383.399Z" fill="#D6D6D6"/>
<path d="M377.308 369.381C377.712 369.479 378.078 369.695 378.359 370.001C378.64 370.307 378.823 370.69 378.886 371.1C378.948 371.51 378.887 371.929 378.71 372.304C378.533 372.68 378.249 372.994 377.892 373.208C377.535 373.422 377.123 373.526 376.707 373.506C376.291 373.486 375.89 373.344 375.556 373.097C375.221 372.85 374.968 372.51 374.828 372.119C374.687 371.729 374.667 371.306 374.768 370.903C374.834 370.637 374.952 370.386 375.115 370.165C375.278 369.944 375.484 369.757 375.72 369.616C375.956 369.474 376.218 369.38 376.49 369.34C376.763 369.3 377.041 369.314 377.308 369.381V369.381Z" fill="#FFE794"/>
<path d="M313.92 101.785C313.92 101.371 314.044 100.966 314.275 100.621C314.506 100.277 314.834 100.009 315.218 99.8502C315.602 99.6917 316.025 99.6502 316.433 99.731C316.841 99.8118 317.215 100.011 317.509 100.304C317.803 100.597 318.004 100.97 318.085 101.376C318.166 101.782 318.124 102.203 317.965 102.586C317.806 102.969 317.537 103.296 317.191 103.526C316.845 103.756 316.439 103.879 316.023 103.879C315.465 103.879 314.93 103.658 314.536 103.265C314.142 102.873 313.92 102.34 313.92 101.785V101.785Z" fill="#FFE794"/>
<path d="M469.16 64.7746C467.999 64.7746 467.058 65.712 467.058 66.8685C467.058 68.0249 467.999 68.9624 469.16 68.9624C470.321 68.9624 471.263 68.0249 471.263 66.8685C471.263 65.712 470.321 64.7746 469.16 64.7746Z" fill="#FFE794"/>
<path d="M557.682 40.5181C557.682 40.1039 557.805 39.6991 558.036 39.3548C558.267 39.0105 558.595 38.7421 558.979 38.5836C559.364 38.4251 559.786 38.3836 560.194 38.4644C560.602 38.5452 560.977 38.7447 561.271 39.0375C561.565 39.3303 561.765 39.7034 561.846 40.1096C561.927 40.5158 561.886 40.9368 561.726 41.3194C561.567 41.702 561.298 42.029 560.952 42.2591C560.606 42.4892 560.2 42.6119 559.784 42.6119C559.508 42.6119 559.235 42.5578 558.979 42.4526C558.724 42.3473 558.493 42.1931 558.297 41.9987C558.102 41.8042 557.947 41.5734 557.842 41.3194C557.736 41.0653 557.682 40.793 557.682 40.5181V40.5181Z" fill="#FFE794"/>
<path d="M601.587 2.09398C601.585 1.6787 601.706 1.27197 601.936 0.925552C602.166 0.579137 602.494 0.308661 602.879 0.148496C603.264 -0.011668 603.687 -0.0542698 604.096 0.0260896C604.506 0.106449 604.881 0.306173 605.176 0.599825C605.471 0.893478 605.672 1.26778 605.752 1.67522C605.833 2.08266 605.79 2.5048 605.629 2.88796C605.469 3.27112 605.197 3.59801 604.849 3.82705C604.501 4.05609 604.093 4.17696 603.676 4.17427C603.122 4.17427 602.591 3.95511 602.199 3.56498C601.807 3.17485 601.587 2.64571 601.587 2.09398Z" fill="#FFE794"/>
<path d="M597.232 75.652C597.229 75.2367 597.351 74.83 597.581 74.4836C597.811 74.1371 598.139 73.8666 598.524 73.7065C598.908 73.5463 599.332 73.5037 599.741 73.5841C600.151 73.6644 600.526 73.8641 600.821 74.1578C601.116 74.4514 601.317 74.8258 601.397 75.2332C601.478 75.6407 601.435 76.0628 601.274 76.446C601.114 76.8291 600.842 77.156 600.494 77.385C600.146 77.6141 599.738 77.7349 599.321 77.7323C598.768 77.7287 598.239 77.5084 597.848 77.119C597.457 76.7297 597.236 76.2026 597.232 75.652V75.652Z" fill="#D6D6D6"/>
<path d="M552.726 112.866C552.726 112.452 552.849 112.047 553.08 111.703C553.311 111.358 553.639 111.09 554.024 110.931C554.408 110.773 554.831 110.731 555.238 110.812C555.646 110.893 556.021 111.092 556.315 111.385C556.609 111.678 556.809 112.051 556.89 112.457C556.971 112.864 556.93 113.285 556.771 113.667C556.611 114.05 556.342 114.377 555.996 114.607C555.651 114.837 555.244 114.96 554.828 114.96C554.552 114.96 554.279 114.906 554.024 114.8C553.769 114.695 553.537 114.541 553.342 114.347C553.146 114.152 552.991 113.921 552.886 113.667C552.78 113.413 552.726 113.141 552.726 112.866Z" fill="#D6D6D6"/>
<path d="M448.163 304.389C447.002 304.389 446.061 305.326 446.061 306.482C446.061 307.639 447.002 308.576 448.163 308.576C449.324 308.576 450.266 307.639 450.266 306.482C450.266 305.326 449.324 304.389 448.163 304.389Z" fill="#D6D6D6"/>
<path d="M445.651 112.023C444.49 112.023 443.549 112.96 443.549 114.117C443.549 115.273 444.49 116.211 445.651 116.211C446.812 116.211 447.753 115.273 447.753 114.117C447.753 112.96 446.812 112.023 445.651 112.023Z" fill="#D6D6D6"/>
<path d="M705.604 123.553C705.604 122.724 705.851 121.914 706.313 121.225C706.776 120.536 707.434 119.999 708.203 119.683C708.972 119.366 709.818 119.284 710.634 119.447C711.45 119.609 712.199 120.01 712.787 120.597C713.374 121.184 713.774 121.931 713.935 122.744C714.095 123.558 714.01 124.4 713.69 125.165C713.369 125.93 712.828 126.583 712.135 127.042C711.442 127.5 710.627 127.743 709.795 127.741C709.244 127.741 708.697 127.632 708.188 127.422C707.679 127.211 707.216 126.902 706.827 126.513C706.437 126.124 706.129 125.662 705.919 125.154C705.709 124.646 705.602 124.102 705.604 123.553V123.553Z" fill="#D6D6D6"/>
<path d="M662.094 154.798C660.933 154.798 659.992 155.736 659.992 156.892C659.992 158.048 660.933 158.986 662.094 158.986C663.255 158.986 664.197 158.048 664.197 156.892C664.197 155.736 663.255 154.798 662.094 154.798Z" fill="#FFE794"/>
<path d="M636.482 204.14C636.525 203.616 636.764 203.127 637.152 202.77C637.541 202.413 638.05 202.215 638.578 202.215C639.106 202.215 639.615 202.413 640.004 202.77C640.392 203.127 640.631 203.616 640.674 204.14C640.697 204.429 640.66 204.719 640.565 204.992C640.471 205.265 640.32 205.516 640.123 205.729C639.926 205.941 639.687 206.111 639.422 206.227C639.156 206.343 638.868 206.403 638.578 206.403C638.288 206.403 638 206.343 637.734 206.227C637.468 206.111 637.23 205.941 637.033 205.729C636.836 205.516 636.685 205.265 636.591 204.992C636.496 204.719 636.459 204.429 636.482 204.14V204.14Z" fill="#D6D6D6"/>
<path d="M348.01 148.013C346.849 148.013 345.908 148.951 345.908 150.107C345.908 151.264 346.849 152.201 348.01 152.201C349.171 152.201 350.112 151.264 350.112 150.107C350.112 148.951 349.171 148.013 348.01 148.013Z" fill="#D6D6D6"/>
<path d="M167.008 58.0714C166.206 58.2897 165.356 58.2662 164.567 58.0037C163.779 57.7412 163.085 57.2515 162.576 56.5966C162.066 55.9418 161.763 55.1511 161.705 54.3247C161.647 53.4983 161.836 52.6733 162.249 51.954C162.662 51.2347 163.279 50.6535 164.024 50.2839C164.768 49.9142 165.606 49.7728 166.431 49.8775C167.256 49.9822 168.032 50.3282 168.659 50.8719C169.287 51.4156 169.739 52.1325 169.957 52.9318C170.246 54.0027 170.098 55.1439 169.546 56.1066C168.993 57.0694 168.081 57.7756 167.008 58.0714Z" fill="#D6D6D6"/>
<path d="M279.598 14.6302C279.197 14.7394 278.773 14.7276 278.378 14.5963C277.984 14.4651 277.637 14.2202 277.382 13.8928C277.128 13.5653 276.976 13.17 276.947 12.7568C276.918 12.3436 277.013 11.9311 277.219 11.5714C277.425 11.2118 277.734 10.9212 278.106 10.7364C278.479 10.5516 278.897 10.4808 279.31 10.5332C279.723 10.5855 280.11 10.7586 280.424 11.0304C280.738 11.3022 280.964 11.6607 281.073 12.0604C281.147 12.3255 281.168 12.6028 281.134 12.876C281.1 13.1492 281.012 13.413 280.875 13.652C280.738 13.891 280.554 14.1006 280.335 14.2685C280.116 14.4364 279.866 14.5593 279.598 14.6302V14.6302Z" fill="#D6D6D6"/>
<path d="M116.126 60.1109C115.725 60.2201 115.3 60.2083 114.906 60.0771C114.511 59.9458 114.165 59.701 113.91 59.3735C113.655 59.0461 113.504 58.6508 113.475 58.2376C113.445 57.8243 113.54 57.4118 113.746 57.0522C113.953 56.6926 114.262 56.4019 114.634 56.2171C115.006 56.0323 115.425 55.9616 115.838 56.0139C116.25 56.0663 116.638 56.2393 116.952 56.5112C117.266 56.783 117.491 57.1414 117.601 57.5411C117.675 57.8063 117.696 58.0835 117.662 58.3567C117.628 58.6299 117.539 58.8937 117.402 59.1327C117.265 59.3718 117.082 59.5813 116.863 59.7492C116.644 59.9171 116.393 60.04 116.126 60.1109Z" fill="#FFE794"/>
<path d="M201.958 105.687C201.557 105.796 201.132 105.784 200.738 105.653C200.343 105.522 199.996 105.277 199.742 104.949C199.487 104.622 199.335 104.227 199.306 103.813C199.277 103.4 199.372 102.988 199.578 102.628C199.785 102.268 200.093 101.978 200.466 101.793C200.838 101.608 201.257 101.538 201.669 101.59C202.082 101.642 202.47 101.815 202.784 102.087C203.097 102.359 203.323 102.717 203.432 103.117C203.507 103.382 203.528 103.659 203.494 103.933C203.459 104.206 203.371 104.47 203.234 104.709C203.097 104.948 202.914 105.157 202.695 105.325C202.475 105.493 202.225 105.616 201.958 105.687V105.687Z" fill="#FFE794"/>
<path d="M240.403 62.2863C239.863 62.4278 239.29 62.3515 238.806 62.074C238.323 61.7964 237.97 61.3401 237.822 60.8042C237.715 60.4044 237.73 59.9819 237.864 59.5902C237.998 59.1984 238.245 58.855 238.575 58.6032C238.905 58.3514 239.302 58.2026 239.716 58.1755C240.131 58.1485 240.544 58.2444 240.904 58.4511C241.264 58.6578 241.555 58.9662 241.739 59.3371C241.923 59.7081 241.992 60.1251 241.939 60.5354C241.885 60.9458 241.711 61.3311 241.437 61.6427C241.164 61.9543 240.804 62.1783 240.403 62.2863V62.2863Z" fill="#D6D6D6"/>
<path d="M142.093 77.3514C141.263 77.3216 140.462 77.0482 139.788 76.5655C139.115 76.0829 138.6 75.4126 138.308 74.639C138.016 73.8654 137.961 73.0232 138.148 72.2183C138.336 71.4134 138.759 70.6818 139.363 70.1157C139.968 69.5496 140.727 69.1742 141.545 69.0368C142.363 68.8995 143.204 69.0062 143.961 69.3437C144.719 69.6812 145.359 70.2343 145.801 70.9334C146.244 71.6325 146.469 72.4463 146.448 73.2724C146.433 73.8259 146.309 74.3712 146.082 74.8767C145.855 75.3821 145.53 75.8377 145.125 76.217C144.72 76.5964 144.243 76.8919 143.723 77.0867C143.202 77.2814 142.648 77.3714 142.093 77.3514Z" fill="#FFE794"/>
<path d="M257.414 263.517C256.584 263.487 255.783 263.214 255.109 262.731C254.436 262.248 253.921 261.578 253.629 260.804C253.337 260.031 253.282 259.189 253.469 258.384C253.657 257.579 254.08 256.847 254.684 256.281C255.289 255.715 256.048 255.34 256.866 255.202C257.684 255.065 258.525 255.172 259.282 255.509C260.04 255.847 260.68 256.4 261.122 257.099C261.565 257.798 261.79 258.612 261.769 259.438C261.756 259.992 261.633 260.538 261.407 261.044C261.18 261.551 260.855 262.007 260.45 262.387C260.044 262.766 259.567 263.062 259.046 263.256C258.524 263.45 257.97 263.539 257.414 263.517Z" fill="#D6D6D6"/>
<path d="M276.117 379.85C275.29 379.814 274.492 379.536 273.823 379.049C273.155 378.562 272.646 377.889 272.362 377.114C272.077 376.34 272.029 375.499 272.224 374.697C272.419 373.896 272.848 373.17 273.457 372.611C274.066 372.052 274.827 371.685 275.645 371.556C276.463 371.428 277.301 371.544 278.053 371.889C278.805 372.235 279.437 372.794 279.87 373.497C280.303 374.2 280.517 375.015 280.486 375.839C280.465 376.388 280.335 376.928 280.104 377.428C279.872 377.927 279.544 378.376 279.138 378.749C278.732 379.121 278.257 379.411 277.738 379.6C277.22 379.789 276.669 379.874 276.117 379.85Z" fill="#D6D6D6"/>
<path d="M69.457 297.92C67.5401 299.226 67.0489 301.832 68.36 303.741C69.671 305.65 72.2878 306.139 74.2046 304.833C76.1215 303.528 76.6126 300.922 75.3016 299.013C73.9905 297.104 71.3738 296.614 69.457 297.92Z" fill="#D6D6D6"/>
<path d="M80.9032 44.7874C80.0747 44.755 79.2743 44.4793 78.6027 43.9951C77.9311 43.5109 77.4182 42.8398 77.1285 42.0661C76.8388 41.2924 76.7852 40.4506 76.9745 39.6467C77.1639 38.8428 77.5876 38.1125 78.1925 37.5477C78.7974 36.9829 79.5564 36.6089 80.3741 36.4725C81.1919 36.3362 82.0319 36.4437 82.7885 36.7815C83.545 37.1193 84.1845 37.6723 84.6264 38.371C85.0682 39.0697 85.2929 39.8829 85.272 40.7084C85.2579 41.2631 85.1333 41.8096 84.9054 42.3159C84.6775 42.8223 84.3508 43.2785 83.9443 43.658C83.5378 44.0375 83.0597 44.3328 82.5376 44.5267C82.0155 44.7206 81.46 44.8092 80.9032 44.7874Z" fill="#D6D6D6"/>
<path d="M327.723 214.569C326.894 214.537 326.094 214.261 325.422 213.777C324.751 213.293 324.238 212.621 323.948 211.848C323.658 211.074 323.605 210.232 323.794 209.428C323.983 208.624 324.407 207.894 325.012 207.329C325.617 206.765 326.376 206.39 327.194 206.254C328.011 206.118 328.851 206.225 329.608 206.563C330.365 206.901 331.004 207.454 331.446 208.153C331.888 208.851 332.112 209.665 332.091 210.49C332.077 211.045 331.953 211.591 331.725 212.098C331.497 212.604 331.17 213.06 330.764 213.44C330.357 213.819 329.879 214.114 329.357 214.308C328.835 214.502 328.279 214.591 327.723 214.569V214.569Z" fill="#D6D6D6"/>
<path d="M30.0212 160.984C29.1959 160.952 28.3987 160.678 27.7295 160.196C27.0603 159.714 26.5491 159.045 26.26 158.275C25.9708 157.504 25.9167 156.666 26.1043 155.865C26.2919 155.064 26.713 154.336 27.3146 153.773C27.9162 153.209 28.6716 152.835 29.4859 152.698C30.3002 152.561 31.1371 152.666 31.8915 153C32.6459 153.335 33.2842 153.884 33.7263 154.579C34.1684 155.274 34.3946 156.083 34.3764 156.905C34.3605 157.458 34.2351 158.003 34.0074 158.507C33.7797 159.012 33.4542 159.467 33.0496 159.846C32.6449 160.225 32.1691 160.521 31.6494 160.716C31.1297 160.911 30.5764 161.003 30.0212 160.984V160.984Z" fill="#D6D6D6"/>
<path d="M170.49 209.035C169.664 209.003 168.867 208.728 168.198 208.246C167.529 207.764 167.017 207.096 166.728 206.326C166.439 205.555 166.385 204.717 166.573 203.916C166.76 203.115 167.181 202.387 167.783 201.823C168.385 201.26 169.14 200.886 169.954 200.749C170.768 200.611 171.605 200.716 172.36 201.051C173.114 201.386 173.752 201.935 174.195 202.63C174.637 203.324 174.863 204.134 174.845 204.956C174.83 205.51 174.706 206.055 174.479 206.56C174.252 207.066 173.927 207.521 173.522 207.901C173.117 208.28 172.64 208.576 172.12 208.77C171.599 208.965 171.045 209.055 170.49 209.035V209.035Z" fill="#FFE794"/>
<path d="M309.087 327.489C308.671 327.475 308.268 327.338 307.929 327.096C307.591 326.853 307.333 326.516 307.188 326.127C307.042 325.738 307.016 325.315 307.113 324.911C307.209 324.507 307.425 324.141 307.731 323.859C308.037 323.577 308.42 323.392 308.832 323.328C309.244 323.264 309.665 323.323 310.043 323.497C310.421 323.672 310.739 323.955 310.955 324.31C311.171 324.665 311.277 325.076 311.258 325.491C311.249 325.764 311.186 326.034 311.072 326.283C310.958 326.532 310.795 326.756 310.593 326.942C310.391 327.128 310.154 327.272 309.895 327.366C309.637 327.46 309.362 327.502 309.087 327.489V327.489Z" fill="#D6D6D6"/>
<path d="M338.344 267.963C337.928 267.949 337.525 267.813 337.187 267.571C336.849 267.329 336.591 266.993 336.445 266.604C336.299 266.216 336.272 265.793 336.368 265.39C336.463 264.986 336.677 264.62 336.981 264.338C337.286 264.055 337.668 263.869 338.079 263.803C338.49 263.737 338.912 263.794 339.29 263.967C339.668 264.14 339.987 264.42 340.205 264.774C340.423 265.127 340.531 265.537 340.515 265.951C340.49 266.503 340.249 267.023 339.843 267.399C339.437 267.775 338.899 267.978 338.344 267.963V267.963Z" fill="#FFE794"/>
<path d="M155.431 133.111C155.014 133.097 154.611 132.961 154.273 132.718C153.935 132.475 153.677 132.138 153.531 131.749C153.386 131.36 153.36 130.937 153.456 130.533C153.553 130.129 153.768 129.763 154.074 129.481C154.38 129.199 154.764 129.014 155.175 128.95C155.587 128.886 156.009 128.945 156.387 129.12C156.765 129.294 157.082 129.577 157.299 129.932C157.515 130.287 157.621 130.698 157.602 131.113C157.577 131.663 157.335 132.182 156.929 132.556C156.522 132.93 155.984 133.13 155.431 133.111Z" fill="#D6D6D6"/>
<path d="M192.183 297.781C191.766 297.767 191.363 297.63 191.025 297.387C190.687 297.145 190.428 296.807 190.283 296.418C190.138 296.029 190.112 295.606 190.208 295.202C190.305 294.798 190.52 294.432 190.826 294.15C191.132 293.869 191.516 293.684 191.927 293.619C192.339 293.555 192.761 293.614 193.139 293.789C193.517 293.964 193.834 294.246 194.051 294.601C194.267 294.956 194.372 295.367 194.354 295.782C194.329 296.332 194.087 296.851 193.681 297.225C193.274 297.6 192.736 297.799 192.183 297.781Z" fill="#D6D6D6"/>
<path d="M22.5397 292.356C22.1231 292.342 21.7201 292.205 21.3818 291.962C21.0435 291.72 20.7852 291.382 20.6398 290.993C20.4943 290.604 20.4684 290.181 20.5651 289.777C20.6618 289.373 20.8768 289.007 21.1829 288.725C21.489 288.443 21.8723 288.259 22.2841 288.194C22.6959 288.13 23.1176 288.189 23.4957 288.364C23.8738 288.539 24.1911 288.821 24.4074 289.176C24.6237 289.531 24.7292 289.942 24.7105 290.357C24.6856 290.907 24.4438 291.426 24.0374 291.8C23.6311 292.174 23.0929 292.374 22.5397 292.356Z" fill="#FFE794"/>
<path d="M252.076 353.581C251.66 353.565 251.259 353.426 250.923 353.183C250.587 352.939 250.33 352.602 250.186 352.214C250.043 351.825 250.018 351.403 250.115 351.001C250.212 350.598 250.426 350.233 250.731 349.952C251.037 349.671 251.418 349.486 251.829 349.421C252.24 349.356 252.66 349.414 253.038 349.587C253.415 349.76 253.733 350.041 253.951 350.393C254.168 350.746 254.276 351.155 254.26 351.569C254.251 351.845 254.187 352.116 254.073 352.367C253.958 352.617 253.794 352.843 253.591 353.03C253.387 353.218 253.149 353.363 252.889 353.457C252.629 353.552 252.352 353.594 252.076 353.581V353.581Z" fill="#FFE794"/>
<path d="M90.6918 361.467C90.2732 361.461 89.8658 361.331 89.522 361.094C89.1781 360.856 88.9134 360.521 88.7617 360.132C88.6099 359.744 88.5781 359.319 88.6704 358.912C88.7626 358.506 88.9746 358.136 89.2793 357.85C89.584 357.564 89.9675 357.375 90.3806 357.307C90.7937 357.24 91.2176 357.297 91.5981 357.471C91.9786 357.644 92.2983 357.928 92.5163 358.284C92.7343 358.639 92.8406 359.052 92.8216 359.469C92.8002 360.013 92.5651 360.528 92.1669 360.901C91.7686 361.275 91.2389 361.478 90.6918 361.467Z" fill="#FFE794"/>
<path d="M61.6944 207.689C61.2785 207.672 60.8769 207.533 60.5404 207.289C60.204 207.045 59.9479 206.707 59.8046 206.318C59.6612 205.929 59.6371 205.506 59.7353 205.103C59.8334 204.7 60.0495 204.335 60.356 204.055C60.6625 203.774 61.0457 203.591 61.4571 203.527C61.8685 203.464 62.2894 203.524 62.6667 203.699C63.044 203.874 63.3606 204.157 63.5764 204.511C63.7922 204.866 63.8974 205.276 63.8788 205.69C63.8683 205.965 63.8033 206.234 63.6876 206.484C63.5719 206.733 63.4078 206.957 63.2047 207.143C63.0017 207.329 62.7637 207.473 62.5044 207.566C62.2452 207.66 61.9699 207.702 61.6944 207.689V207.689Z" fill="#FFE794"/>
<path d="M2.02037 71.2737C1.60431 71.2599 1.20174 71.1234 0.863644 70.8815C0.525545 70.6397 0.267155 70.3033 0.121216 69.915C-0.0247233 69.5267 -0.0516271 69.104 0.0438899 68.7005C0.139407 68.2969 0.353039 67.9307 0.657748 67.6483C0.962457 67.3658 1.3445 67.1797 1.75548 67.1137C2.16645 67.0477 2.58786 67.1047 2.96628 67.2775C3.3447 67.4503 3.66307 67.731 3.88111 68.0842C4.09915 68.4374 4.20707 68.8471 4.19108 69.2614C4.16623 69.8132 3.92486 70.3332 3.51889 70.7095C3.11293 71.0859 2.57479 71.2885 2.02037 71.2737V71.2737Z" fill="#FFE794"/>
<path d="M75.647 78.5071C75.2292 78.4957 74.8242 78.3606 74.4838 78.1189C74.1435 77.8772 73.8832 77.54 73.7362 77.1503C73.5892 76.7606 73.5622 76.3361 73.6586 75.931C73.7551 75.5259 73.9705 75.1587 74.2775 74.8761C74.5845 74.5936 74.9691 74.4086 75.3822 74.3448C75.7953 74.281 76.218 74.3413 76.5965 74.518C76.975 74.6946 77.2921 74.9796 77.5072 75.3366C77.7223 75.6935 77.8256 76.1062 77.8041 76.522C77.7724 77.0666 77.5299 77.5777 77.1276 77.9479C76.7253 78.3181 76.1946 78.5186 75.647 78.5071V78.5071Z" fill="#D6D6D6"/>
<path d="M111.239 124.26C110.822 124.246 110.419 124.109 110.081 123.867C109.742 123.624 109.484 123.287 109.339 122.898C109.193 122.509 109.167 122.085 109.264 121.682C109.361 121.278 109.576 120.912 109.882 120.63C110.188 120.348 110.571 120.163 110.983 120.099C111.395 120.034 111.816 120.093 112.194 120.268C112.572 120.443 112.89 120.726 113.106 121.081C113.322 121.436 113.428 121.847 113.409 122.261C113.384 122.812 113.143 123.331 112.736 123.705C112.33 124.079 111.792 124.278 111.239 124.26V124.26Z" fill="#D6D6D6"/>
<path d="M301.278 238.037C300.862 238.02 300.461 237.881 300.124 237.637C299.788 237.393 299.532 237.055 299.388 236.666C299.245 236.276 299.221 235.854 299.319 235.451C299.417 235.048 299.633 234.683 299.94 234.403C300.246 234.122 300.63 233.939 301.041 233.875C301.452 233.812 301.873 233.872 302.251 234.047C302.628 234.222 302.944 234.505 303.16 234.859C303.376 235.214 303.481 235.624 303.463 236.038C303.438 236.591 303.194 237.112 302.785 237.486C302.375 237.861 301.834 238.059 301.278 238.037V238.037Z" fill="#D6D6D6"/>
<path d="M108.18 232.884C107.652 232.826 107.165 232.57 106.817 232.169C106.47 231.768 106.289 231.25 106.31 230.721C106.33 230.191 106.552 229.689 106.929 229.316C107.307 228.943 107.813 228.726 108.344 228.71C108.633 228.7 108.92 228.751 109.188 228.857C109.456 228.963 109.699 229.123 109.903 229.327C110.106 229.531 110.265 229.775 110.37 230.043C110.474 230.311 110.522 230.597 110.511 230.884C110.5 231.171 110.429 231.453 110.304 231.712C110.179 231.971 110.001 232.201 109.783 232.389C109.564 232.576 109.309 232.717 109.033 232.802C108.758 232.887 108.467 232.915 108.18 232.884V232.884Z" fill="#D6D6D6"/>
<path d="M140.441 331.541C140.025 331.527 139.622 331.391 139.284 331.149C138.946 330.907 138.687 330.571 138.541 330.182C138.396 329.794 138.369 329.371 138.464 328.968C138.56 328.564 138.773 328.198 139.078 327.916C139.383 327.633 139.765 327.447 140.176 327.381C140.587 327.315 141.008 327.372 141.387 327.545C141.765 327.718 142.083 327.998 142.301 328.352C142.52 328.705 142.627 329.115 142.611 329.529C142.587 330.081 142.345 330.601 141.939 330.977C141.533 331.353 140.995 331.556 140.441 331.541Z" fill="#D6D6D6"/>
</g>
<defs>
<clipPath id="clip0">
<rect width="714" height="411" fill="white" transform="translate(714 411) rotate(-180)"/>
</clipPath>
</defs>
</svg>
