<svg width="268" height="229" viewBox="0 0 268 229" fill="none" xmlns="http://www.w3.org/2000/svg">
<g clip-path="url(#clip0)">
<path d="M175.411 175.689C175.411 175.689 118.604 187.95 114.407 188.449C110.21 188.949 102.716 190.72 95.5852 192.65C88.4548 194.58 34.5593 206.136 31.3474 206.046C28.1355 205.955 20.4698 203.321 15.652 202.14C10.8342 200.96 -0.471688 189.403 -0.000610639 195.556C0.470466 201.709 9.27104 210.223 10.8127 212.993C12.3545 215.763 11.5408 221.576 18.4785 221.439C25.4161 221.303 29.8485 218.374 36.722 220.486C36.722 220.486 78.7121 224.686 85.8425 223.029C92.9729 221.371 115.199 217.602 125.156 219.282C135.113 220.963 208.108 229.045 222.84 221.28C237.572 213.515 175.411 175.689 175.411 175.689Z" fill="#EDBE00"/>
<g style="mix-blend-mode:multiply" opacity="0.27">
<g style="mix-blend-mode:multiply" opacity="0.27">
<path d="M36.7439 220.486C36.3585 220.35 35.9945 220.259 35.6305 220.168C36.02 220.18 36.4014 220.289 36.7439 220.486Z" fill="#EDBE00"/>
</g>
<g style="mix-blend-mode:multiply" opacity="0.27">
<path d="M46.4225 221.371C60.9223 220.504 75.327 218.339 89.4832 214.9C102.481 211.699 130.167 205.137 149.203 205.478C181.857 206.068 201.535 187.45 201.535 187.45C201.535 187.45 211.985 213.243 216.674 223.188C193.934 227.456 134.107 220.781 125.178 219.282C115.221 217.602 93.0591 221.371 85.8645 223.029C80.9182 224.164 59.27 222.506 46.4225 221.371Z" fill="#EDBE00"/>
</g>
</g>
<g style="mix-blend-mode:multiply" opacity="0.27">
<path d="M175.412 175.689L161.001 178.141C161.001 178.141 173.977 215.559 193.399 225.095L211.15 223.937L175.412 175.689Z" fill="#EDBE00"/>
</g>
<path d="M216.438 156.504C216.438 156.504 172.971 129.417 162.329 129.985C151.687 130.552 140.788 141.519 134.707 153.983C128.625 166.448 109.761 208.066 105.671 212.153C101.581 216.24 83.3591 219.918 82.8024 224.118C82.2457 228.319 96.4636 224.527 99.1402 224.618C107.427 224.89 113.872 227.91 115.928 222.688C119.354 214.06 126.998 208.293 134 203.139C143.293 196.328 161.001 183.114 162.885 161.612C164.77 140.111 179.073 147.422 179.073 147.422L216.438 156.504Z" fill="#FFD647"/>
<path d="M207.488 79.0352C201.642 76.7647 195.283 80.7153 190.636 85.8466C186.371 90.6125 182.495 95.7548 179.052 101.218C177.082 104.351 175.177 107.552 173.314 110.754C172.628 111.912 167.639 118.768 168.046 119.836C165.63 114.668 162.465 109.934 158.667 105.804C152.418 97.9753 146.625 89.7484 141.323 81.1694C139.212 77.7897 137.46 74.1728 136.099 70.3847C135.114 66.434 131.495 56.2169 125.756 56.7618C120.018 57.3067 120.296 63.5732 122.566 68.4775C124.836 73.3817 127.041 73.8812 128.326 78.8989C132.166 95.0964 136.965 111.021 142.694 126.579C149.246 143.517 162.907 156.663 181.215 149.851C196.461 144.198 205.068 128.713 211.728 114.5C214.268 109.603 215.971 104.269 216.76 98.7429C217.143 95.9728 216.985 93.1488 216.297 90.4461C215.608 87.7434 214.403 85.2195 212.756 83.0312C211.365 81.227 209.547 79.8478 207.488 79.0352Z" fill="#D46F40"/>
<path d="M142.694 126.67C140.874 121.97 139.161 117.179 137.533 112.366C144.451 110.953 150.702 107.066 155.241 101.354C156.376 102.83 157.511 104.26 158.667 105.691C162.158 109.936 166.033 113.773 168.11 119.041C167.725 118.065 172.628 111.866 173.314 110.708C175.177 107.507 177.082 104.306 179.052 101.172C182.475 95.712 186.329 90.5698 190.572 85.8012C195.219 80.7153 201.664 76.1743 207.51 78.354C209.555 79.1616 211.369 80.5144 212.777 82.2819C216.246 86.4823 217.274 93.1121 216.696 98.6747C215.907 104.2 214.203 109.535 211.664 114.432C205.069 128.645 196.461 144.13 181.215 149.851C162.907 156.663 149.246 143.517 142.694 126.67Z" fill="#99152A"/>
<g opacity="0.4">
<path opacity="0.4" d="M140.766 120.812C147.576 137.545 161.451 150.328 179.63 143.267C194.79 137.364 203.184 121.72 209.608 107.393C212.075 102.436 213.699 97.0556 214.404 91.5C214.597 89.3105 214.511 87.1034 214.147 84.9384C216.426 89.0435 217.345 93.8384 216.76 98.5612C215.971 104.087 214.267 109.421 211.728 114.318C205.068 128.645 196.46 144.13 181.215 149.851C162.907 156.663 149.246 143.585 142.672 126.738C141.245 122.969 139.881 119.185 138.582 115.385C139.289 117.111 140.017 118.973 140.766 120.812Z" fill="#99152A"/>
</g>
<path d="M170.573 124.694C169.978 122.638 169.113 120.682 168.003 118.882L168.731 117.361C169.982 119.573 170.621 122.115 170.573 124.694Z" fill="#99152A"/>
<path d="M146.333 161.204C148.989 158.456 173.699 196.737 175.819 199.643C181.265 207.664 188.148 214.469 196.075 219.668C204.359 224.32 213.67 226.523 223.033 226.048H223.911C249.264 226.843 264.595 200.415 265.281 192.218C265.966 184.022 251.191 172.17 251.191 172.17L205.968 150.215L178.474 142.041L170.037 135.842L146.333 161.204Z" fill="#FFD647"/>
<path d="M115.028 66.2524L148.882 77.9681C149.358 78.1498 149.879 78.1469 150.353 77.9599C150.828 77.7729 151.224 77.4138 151.473 76.9463L152.436 75.1981C154.064 72.293 154.963 68.9945 155.048 65.6167C155.051 65.117 154.906 64.629 154.633 64.2216C154.361 63.8142 153.974 63.508 153.528 63.3462L119.568 51.5624L115.028 66.2524Z" fill="#72BDB9"/>
<path opacity="0.24" d="M146.976 74.6759C147.454 74.8558 147.978 74.8495 148.452 74.6582C148.927 74.4669 149.322 74.103 149.567 73.6315L150.552 71.8832C152.03 69.2353 152.902 66.2571 153.1 63.1873L153.528 63.3235C153.974 63.4853 154.361 63.7916 154.633 64.199C154.906 64.6064 155.051 65.0944 155.048 65.594C154.963 68.9719 154.064 72.2703 152.436 75.1754L151.473 76.9237C151.224 77.3911 150.828 77.7502 150.353 77.9373C149.879 78.1243 149.358 78.1272 148.882 77.9454L115.028 66.2525L115.778 63.8458L146.976 74.6759Z" fill="#008982"/>
<path d="M120.189 52.5161C119.677 56.7258 118.451 60.8026 116.57 64.5496C115.995 65.6836 115.083 66.5851 113.976 67.1145C112.869 67.644 111.629 67.7719 110.446 67.4785L64.4949 56.1261L73.5524 28.8804L116.677 46.3404C117.826 46.8103 118.795 47.6723 119.431 48.7905C120.067 49.9086 120.333 51.2194 120.189 52.5161Z" fill="#279593"/>
<g style="mix-blend-mode:multiply" opacity="0.38">
<path d="M107.984 62.665C109.169 62.9599 110.413 62.8329 111.524 62.3035C112.635 61.7742 113.55 60.8719 114.129 59.7361C116.02 55.9837 117.253 51.8989 117.769 47.6799C117.791 47.4079 117.791 47.1345 117.769 46.8625C118.624 47.4709 119.302 48.3204 119.725 49.3154C120.149 50.3103 120.302 51.411 120.167 52.4933C119.655 56.703 118.429 60.7798 116.549 64.5268C115.973 65.6608 115.062 66.5623 113.955 67.0917C112.848 67.6211 111.607 67.7491 110.425 67.4557L64.4733 56.1033L65.758 52.1981L107.984 62.665Z" fill="#279593"/>
</g>
<path d="M83.8944 37.5536C83.172 43.3732 81.4752 49.0092 78.8838 54.1962C78.0876 55.788 76.8113 57.0511 75.2588 57.7836C73.7063 58.5162 71.967 58.676 70.3188 58.2376L8.17944 42.6167L19.4211 4.79065L79.0123 28.9258C80.6214 29.5739 81.978 30.7774 82.8636 32.3424C83.7492 33.9075 84.1123 35.7431 83.8944 37.5536Z" fill="#72BDB9"/>
<path opacity="0.24" d="M68.8627 52.0392C70.7133 52.5248 72.6638 52.3418 74.4052 51.5193C76.1467 50.6968 77.5796 49.2818 78.477 47.4983C80.6901 43.0503 82.3321 38.3084 83.359 33.3986C83.8809 34.717 84.0656 36.158 83.8944 37.5763C83.172 43.3959 81.4752 49.0319 78.8838 54.2189C78.0876 55.8107 76.8113 57.0738 75.2588 57.8063C73.7063 58.5389 71.967 58.6987 70.3188 58.2603L8.17944 42.6167L9.78539 37.213L68.8627 52.0392Z" fill="#008982"/>
<path d="M9.46443 46.522C10.121 46.7397 10.8116 46.8178 11.4967 46.7518C12.1818 46.6857 12.8478 46.4769 13.4566 46.1373C14.0654 45.7977 14.6049 45.3339 15.0442 44.7726C15.4836 44.2113 15.814 43.5636 16.0167 42.8665L26.4446 7.19736C26.6499 6.5012 26.7236 5.76889 26.6613 5.04246C26.5991 4.31604 26.4021 3.60981 26.0818 2.96429C25.7615 2.31877 25.3241 1.74667 24.7948 1.28083C24.2655 0.814996 23.6546 0.464586 22.9972 0.249713C22.3406 0.0320028 21.65 -0.0460864 20.9649 0.0199271C20.2798 0.0859407 19.6138 0.294757 19.005 0.634393C18.3962 0.974029 17.8567 1.4378 17.4174 1.99909C16.978 2.56037 16.6476 3.20813 16.4449 3.90518L6.017 39.597C5.60888 41.0001 5.74273 42.5175 6.38915 43.816C7.03556 45.1145 8.14166 46.0877 9.46443 46.522Z" fill="#72BDB9"/>
<path opacity="0.24" d="M14.5393 42.3898L24.9672 6.81142C25.3801 5.51999 25.3312 4.11275 24.8298 2.85703C24.3285 1.6013 23.4096 0.584577 22.2478 0C22.5014 0.0413454 22.7519 0.102049 22.9972 0.181638C23.6546 0.396511 24.2655 0.746921 24.7949 1.21276C25.3242 1.6786 25.7616 2.25069 26.0819 2.89621C26.4022 3.54173 26.5991 4.24797 26.6614 4.97439C26.7236 5.70081 26.65 6.43312 26.4447 7.12929L16.0167 42.8666C15.8141 43.5636 15.4836 44.2114 15.0443 44.7727C14.605 45.3339 14.0654 45.7977 13.4566 46.1373C12.8479 46.477 12.1818 46.6858 11.4967 46.7518C10.8117 46.8178 10.121 46.7397 9.46448 46.522C9.21385 46.4473 8.97016 46.3485 8.73645 46.2269C9.9766 46.4287 11.2439 46.1527 12.3085 45.4487C13.3732 44.7447 14.1646 43.6594 14.5393 42.3898Z" fill="#008982"/>
<path d="M86.3141 63.3235L86.1 70.9296L68.7772 70.3846L69.5695 42.0264" stroke="#292929" stroke-width="4.04" stroke-miterlimit="10" stroke-linecap="round"/>
<path d="M70.8378 168.639L77.8582 168.856L80.5552 70.7674L73.5348 70.5504L70.8378 168.639Z" fill="#292929"/>
<path d="M63.3018 171.897L85.2832 172.577L85.3793 169.082L63.3979 168.402L63.3018 171.897Z" fill="#292929"/>
<path d="M65.7794 171.285L57.8782 223.051" stroke="#292929" stroke-width="4.04" stroke-miterlimit="10" stroke-linecap="square"/>
<path d="M74.0234 171.534L72.8671 223.505" stroke="#292929" stroke-width="4.04" stroke-miterlimit="10" stroke-linecap="square"/>
<path d="M82.931 171.807L87.963 223.982" stroke="#292929" stroke-width="4.04" stroke-miterlimit="10" stroke-linecap="square"/>
<path d="M200.936 60.4172C201.753 64.8279 203.823 68.8683 206.867 71.9966C211.471 76.0154 224.361 84.8475 233.119 94.2473C241.877 103.647 258.279 126.034 264.103 148.557C269.927 171.08 269.799 197.531 259.478 199.279C255.065 199.916 250.572 199.182 246.544 197.167C242.515 195.153 239.124 191.943 236.781 187.927C232.669 181.116 224.661 167.674 220.164 166.743C215.668 165.813 196.61 156.572 196.332 141.768C196.242 133.49 195.749 125.222 194.855 116.997L189.502 92.4309L194.062 91.2048C194.062 91.2048 189.373 81.2602 184.748 77.9226C180.123 74.585 188.431 64.4133 188.431 64.4133L192.221 56.7618L196.032 51.6305L199.758 56.7618L200.936 60.4172Z" fill="#EA9977"/>
<path d="M191.151 79.4443C201.602 73.6832 204.78 58.217 198.25 44.8995C191.721 31.5821 177.955 25.4565 167.505 31.2176C157.054 36.9787 153.876 52.445 160.406 65.7624C166.935 79.0799 180.701 85.2055 191.151 79.4443Z" fill="#EA9977"/>
<path d="M164.577 61.1439L159.566 63.8911C159.566 63.8911 163.656 72.973 162.971 75.6749C162.286 78.3767 169.116 75.4478 169.116 75.4478L164.577 61.1439Z" fill="#EA9977"/>
<g style="mix-blend-mode:multiply" opacity="0.36">
<path d="M181.236 37.2357C185.005 39.9375 195.904 40.1873 198.366 45.0234C201.082 50.4374 202.201 56.5914 201.578 62.6877C202.505 66.3044 204.375 69.5703 206.974 72.1101C208.966 73.8584 208.43 73.2908 212.542 76.5149C203.677 82.8949 195.99 86.5731 191.814 86.4368C190.615 84.5247 189.292 82.7038 187.853 80.9877C184.247 82.0205 180.438 81.9496 176.868 80.7833C192.906 73.9038 188.902 51.3807 181.236 37.2357Z" fill="#EA9977"/>
</g>
<path opacity="0.49" d="M159.224 175.326L159.352 175.19C160.624 173.534 161.439 171.539 161.708 169.423C162.054 167.519 162.269 165.592 162.35 163.656C164.641 168.401 162.778 171.602 162.843 174.622C224.489 232.269 250.078 193.399 250.078 193.399L259.628 189.426C260.697 187.761 261.662 186.024 262.518 184.226C264.239 186.472 265.21 189.258 265.28 192.15C264.617 200.347 249.264 226.775 223.911 225.98H223.033C213.67 226.455 204.359 224.252 196.075 219.6C188.148 214.4 181.265 207.596 175.819 199.575C175.026 198.485 170.958 192.286 166.097 185.18C165.262 183.931 164.384 182.682 163.506 181.411C162.093 179.367 160.594 177.301 159.224 175.326Z" fill="#EDBE00"/>
<path d="M105.671 212.153C107.53 209.74 109.138 207.122 110.467 204.343C114.135 207.709 118.22 210.528 122.608 212.721C119.771 215.558 117.499 218.971 115.928 222.756C113.786 227.978 107.363 225.027 99.1402 224.686C96.4636 224.686 82.2457 228.387 82.8024 224.187C83.3591 219.986 101.581 216.263 105.671 212.153Z" fill="#EA9977"/>
<path d="M191.878 87.7538L191.707 86.4369C195.173 85.5494 198.409 83.8512 201.176 81.4666C203.944 79.082 206.174 76.0714 207.702 72.6552C212.863 76.9236 224.832 85.3471 233.205 94.2701C241.984 103.67 258.364 126.057 264.189 148.58C270.013 171.103 269.799 197.531 259.478 199.279C255.065 199.916 250.572 199.182 246.544 197.168C242.515 195.153 239.124 191.943 236.78 187.927C232.669 181.116 219.95 169.082 216.01 166.63C198.409 155.55 192.221 143.744 191.985 128.917C191.75 114.091 194.855 116.998 194.855 116.998L189.501 92.431L194.062 91.2049C193.26 90.1093 192.53 88.9562 191.878 87.7538Z" fill="#C61E36"/>
<path d="M216.01 166.562C198.409 155.482 192.221 143.676 191.985 128.849C191.75 114.023 194.854 116.997 194.854 116.997L194.212 114.091C198.495 112.32 201.963 110.958 201.963 110.958L209.843 104.964C209.843 104.964 216.481 122.855 210.914 133.004C205.047 143.766 208.965 146.627 216.631 146.877C224.297 147.127 223.44 156.935 224.575 164.337C225.71 171.739 231.706 181.365 231.706 181.365C226.961 175.878 221.703 170.918 216.01 166.562Z" fill="#99152A"/>
<path d="M204.405 85.2108C198.816 82.3955 192.114 85.5287 186.975 90.0924C182.254 94.3449 177.891 99.0245 173.935 104.078C171.665 106.985 169.459 109.936 167.275 112.911C166.483 113.978 160.851 120.267 161.13 121.289C159.258 115.878 156.583 110.82 153.207 106.304C147.748 97.8566 142.785 89.0607 138.347 79.9661C136.599 76.3533 135.234 72.5458 134.278 68.6137C133.679 64.5722 131.088 54.0145 125.328 53.9918C119.568 53.9691 119.225 60.1221 121.045 65.3442C122.866 70.5663 124.985 71.202 125.756 76.3333C127.97 92.8763 131.159 109.256 135.306 125.376C140.167 142.858 152.436 157.367 171.344 152.621C187.039 148.693 197.146 134.253 205.176 120.835C208.199 116.25 210.425 111.129 211.749 105.713C212.4 103.003 212.519 100.18 212.099 97.4186C211.679 94.6574 210.729 92.0171 209.308 89.661C208.071 87.746 206.38 86.211 204.405 85.2108Z" fill="#EA9977"/>
<path d="M135.242 125.376C133.893 120.494 132.672 115.544 131.516 110.572C138.559 109.914 145.174 106.707 150.252 101.49C151.209 103.08 152.194 104.646 153.207 106.19C156.269 110.731 159.631 115.045 161.28 120.517C161.001 119.495 166.483 113.864 167.275 112.797C169.416 109.823 171.558 106.871 173.934 103.965C177.891 98.9111 182.254 94.2314 186.975 89.9789C192.114 85.4379 198.966 81.6235 204.554 84.4389C206.514 85.4786 208.182 87.0442 209.394 88.9799C210.799 91.4705 211.724 94.2316 212.118 97.1036C212.511 99.9756 212.364 102.902 211.685 105.713C210.361 111.129 208.134 116.25 205.111 120.835C197.081 134.23 186.975 148.671 171.279 152.621C152.393 157.367 140.103 142.858 135.242 125.376Z" fill="#C61E36"/>
<g opacity="0.4">
<path opacity="0.4" d="M133.915 119.336C139.032 136.751 151.559 151.123 170.316 145.991C185.99 141.814 195.883 127.147 203.698 113.683C206.673 109.039 208.848 103.874 210.122 98.425C210.536 96.2748 210.672 94.0752 210.529 91.886C212.393 96.2411 212.831 101.132 211.771 105.781C210.447 111.197 208.22 116.318 205.197 120.903C197.167 134.299 187.061 148.739 171.365 152.689C152.479 157.389 140.188 142.881 135.328 125.444C134.257 121.538 133.187 117.588 132.394 113.637C132.758 115.499 133.358 117.429 133.915 119.336Z" fill="#99152A"/>
</g>
<path d="M163.185 126.533C162.784 124.419 162.114 122.372 161.194 120.449L162.072 119.041C163.104 121.376 163.49 123.975 163.185 126.533Z" fill="#99152A"/>
<path opacity="0.4" d="M258.386 155.754C254.253 131.892 239.114 107.144 230.913 96.5632C223.59 87.2543 212.948 78.1043 207.488 72.9049L207.702 72.6552C212.863 76.9236 224.832 85.3471 233.205 94.2701C241.984 103.67 258.364 126.057 264.189 148.58C270.013 171.103 269.799 197.531 259.478 199.279C258.75 199.279 258.043 199.461 257.337 199.507C261.019 189.426 261.234 171.807 258.386 155.754Z" fill="#99152A"/>
<path d="M15.6329 202.208C20.4508 203.389 28.1165 206.023 31.3284 206.114C32.6804 206.005 34.0248 205.808 35.3539 205.523C35.6324 210.566 36.2478 215.581 37.1954 220.531H36.7458C29.8723 218.42 25.4399 221.371 18.5022 221.485C11.5645 221.598 12.3568 215.695 10.8365 212.993C9.31623 210.291 0.494238 201.641 0.130224 195.556C-0.23379 189.471 10.8365 201.028 15.6329 202.208Z" fill="#D46F40"/>
<path d="M150.531 31.2871C151.072 31.1572 151.624 31.0812 152.179 31.0601C152.987 31.0296 153.778 30.8103 154.496 30.4178C155.214 30.0253 155.842 29.4693 156.333 28.7896L156.655 28.3809C157.483 27.3392 157.998 26.0579 158.132 24.7027C158.185 24.0619 158.307 23.4296 158.496 22.8183C158.982 21.2625 159.873 19.8845 161.067 18.8438C162.26 17.803 163.708 17.1422 165.241 16.9377C165.952 16.8484 166.671 16.8484 167.382 16.9377C168.194 17.0665 169.022 17.016 169.814 16.7894C170.606 16.5628 171.346 16.165 171.986 15.6209C174.253 13.6964 177.092 12.6904 179.994 12.7828C182.196 12.8624 184.339 13.5597 186.204 14.8035C187.223 15.4965 188.422 15.8302 189.63 15.7571H190.401C191.606 15.7944 192.788 16.1152 193.862 16.6963C194.936 17.2775 195.875 18.1044 196.61 19.1174C197.268 20 198.16 20.6533 199.172 20.9933C200.183 21.3332 201.267 21.3441 202.285 21.0246C203.264 20.7193 204.289 20.6191 205.304 20.7294C206.834 20.9168 208.285 21.554 209.492 22.569C210.699 23.584 211.614 24.9364 212.135 26.4737C212.3 26.9925 212.429 27.5238 212.52 28.063C212.663 29.0563 213.002 30.0064 213.515 30.8515C214.028 31.6965 214.703 32.4174 215.496 32.9673C217.297 34.1719 218.772 35.8511 219.778 37.8408C220.784 39.8305 221.286 42.0628 221.235 44.3196C221.197 46.0537 220.826 47.7613 220.143 49.3374C219.626 50.5059 219.377 51.7869 219.414 53.0767C219.451 54.3666 219.774 55.629 220.357 56.7618C221.674 59.26 222.171 62.1509 221.77 64.981C221.328 68.2955 219.704 71.3041 217.233 73.3872C214.762 75.4702 211.631 76.4691 208.486 76.1781C205.341 75.8871 202.421 74.3284 200.327 71.8229C198.233 69.3175 197.125 66.0561 197.231 62.7105C197.281 60.2838 197.979 57.9219 199.244 55.8991C199.635 55.3153 199.845 54.617 199.845 53.901C199.845 53.1851 199.635 52.4868 199.244 51.903C198.906 51.4295 198.459 51.0571 197.944 50.8223C197.43 50.5875 196.867 50.4983 196.311 50.5634C195.812 50.5978 195.311 50.5978 194.812 50.5634C192.195 50.4865 189.669 49.5272 187.601 47.8246C185.534 46.122 184.032 43.7649 183.313 41.0956C183.139 40.4207 182.754 39.8285 182.221 39.416C181.688 39.0035 181.039 38.7952 180.38 38.8251H179.395C177.318 38.8417 175.271 38.3029 173.442 37.2585C173.133 37.0787 172.793 36.9654 172.443 36.9251C172.092 36.8849 171.738 36.9185 171.399 37.024C171.061 37.1295 170.746 37.3048 170.472 37.5398C170.198 37.7749 169.97 38.0651 169.802 38.3937C169.151 39.5623 168.25 40.5517 167.171 41.2816C166.092 42.0114 164.866 42.4611 163.592 42.5941V42.9801C163.518 46.0511 162.297 48.9653 160.197 51.0815C158.097 53.1977 155.29 54.3426 152.393 54.2643C149.497 54.186 146.749 52.891 144.753 50.6641C142.757 48.4372 141.678 45.4608 141.751 42.3897C141.828 39.7633 142.736 37.2405 144.328 35.2269C145.92 33.2132 148.105 31.8257 150.531 31.2871Z" fill="#292929"/>
<g style="mix-blend-mode:multiply" opacity="0.38">
<path d="M207.231 48.5427C206.824 44.8419 204.919 39.8922 212.434 36.8498C213.189 36.4996 213.854 35.962 214.372 35.2823C214.89 34.6027 215.246 33.8009 215.411 32.9446H215.518C217.318 34.1493 218.793 35.8284 219.799 37.8181C220.805 39.8078 221.307 42.0401 221.256 44.297C221.219 46.031 220.847 47.7386 220.164 49.3147C219.648 50.4832 219.398 51.7642 219.435 53.054C219.472 54.3439 219.796 55.6063 220.378 56.7391C221.695 59.2373 222.192 62.1282 221.792 64.9583C221.35 68.2728 219.726 71.2814 217.254 73.3645C214.783 75.4475 211.652 76.4464 208.507 76.1554C205.362 75.8644 202.442 74.3057 200.348 71.8002C198.255 69.2948 197.147 66.0334 197.253 62.6878C197.269 61.7837 197.384 60.8847 197.595 60.0086C207.402 60.5081 207.702 52.0393 207.231 48.5427Z" fill="#292929"/>
</g>
<g style="mix-blend-mode:multiply" opacity="0.38">
<path d="M159.502 41.368V40.8685C160.951 40.7667 162.357 40.3021 163.604 39.5127C164.851 38.7234 165.904 37.6318 166.676 36.3275C166.882 35.9503 167.159 35.6211 167.489 35.3597C167.818 35.0984 168.194 34.9101 168.594 34.8063C168.994 34.7024 169.409 34.6851 169.815 34.7553C170.221 34.8256 170.61 34.9819 170.958 35.215C172.893 36.5151 175.098 37.2945 177.382 37.4855H178.495C179.021 37.4803 179.54 37.6121 180.007 37.8694C180.474 38.1268 180.874 38.5017 181.172 38.9613C180.875 38.9033 180.57 38.9033 180.273 38.9613H179.288C177.236 38.9172 175.227 38.332 173.442 37.2584C173.133 37.0786 172.793 36.9654 172.443 36.9251C172.092 36.8849 171.738 36.9185 171.399 37.024C171.061 37.1294 170.746 37.3047 170.472 37.5398C170.198 37.7749 169.97 38.065 169.802 38.3937C169.151 39.5623 168.25 40.5517 167.171 41.2816C166.092 42.0114 164.866 42.4611 163.592 42.5941V42.98C163.551 44.5009 163.227 45.9981 162.639 47.3862C162.052 48.7743 161.212 50.0259 160.168 51.0697C159.124 52.1134 157.896 52.9288 156.555 53.4691C155.213 54.0095 153.785 54.2643 152.351 54.2189C151.15 54.1717 149.964 53.9187 148.839 53.4696C151.66 53.0674 154.264 51.6425 156.207 49.4367C158.151 47.231 159.315 44.3802 159.502 41.368Z" fill="#292929"/>
</g>
</g>
<defs>
<clipPath id="clip0">
<rect width="268" height="229" fill="white"/>
</clipPath>
</defs>
</svg>
