<svg version="1.2" baseProfile="tiny-ps" xmlns="http://www.w3.org/2000/svg" viewBox="0 0 1500 1000" width="1500" height="1000">
	<title>4853430-ai</title>
	<defs>
		<linearGradient id="grd1" gradientUnits="userSpaceOnUse"  x1="51.304" y1="-301.783" x2="1056.677" y2="-301.783">
			<stop offset="0" stop-color="#c5d5dd"  />
			<stop offset="1" stop-color="#d3dbd9"  />
		</linearGradient>
		<linearGradient id="grd2" gradientUnits="userSpaceOnUse"  x1="950.59" y1="-558.761" x2="1955.962" y2="-558.761">
			<stop offset="0" stop-color="#c5d5dd"  />
			<stop offset="1" stop-color="#d3dbd9"  />
		</linearGradient>
		<linearGradient id="grd3" gradientUnits="userSpaceOnUse"  x1="205.48" y1="-3.907" x2="1177.34" y2="-3.907">
			<stop offset="0" stop-color="#c5d5dd"  />
			<stop offset="1" stop-color="#d3dbd9"  />
		</linearGradient>
	</defs>
	<style>
		tspan { white-space:pre }
		.shp0 { opacity: 0.2;mix-blend-mode: multiply;fill: url(#grd1) } 
		.shp1 { opacity: 0.2;mix-blend-mode: multiply;fill: url(#grd2) } 
		.shp2 { fill: #f8e6cb } 
		.shp3 { mix-blend-mode: soft-light;fill: url(#grd3) } 
		.shp4 { fill: none;stroke: #d8d8d8;stroke-width: 2 } 
	</style>
	<g id="OBJECTS">
		<g id="&lt;Clip Group&gt;">
			<path id="&lt;Path&gt;" class="shp0" d="M135.04 -90.59C150.11 -47.35 145.96 0.12 138 45.21C130.04 90.3 118.39 135.22 119.01 181.01C120.01 255.78 155.85 329.47 214.37 376.03C272.89 422.59 353 440.94 425.84 424C471.9 413.29 515.21 389.33 562.46 387.38C610.97 385.38 657.07 406.82 704.83 415.59C818.23 436.41 939.77 379.34 1003.23 283.08C1066.68 186.82 1072.71 57.7 1026.27 -47.83C979.83 -153.35 884.62 -234.3 775.59 -271.78C666.57 -309.26 545.23 -304.91 435.85 -268.45C382.22 -250.57 331.16 -225.27 276.77 -209.86C222.38 -194.45 162.31 -189.62 110.61 -212.5L35.52 -172.85C81.3 -171.63 119.97 -133.83 135.04 -90.59Z" />
			<path id="&lt;Path&gt;" class="shp1" d="M1034.32 -347.57C1049.39 -304.33 1045.25 -256.86 1037.29 -211.77C1029.32 -166.68 1017.68 -121.76 1018.29 -75.97C1019.29 -1.2 1055.13 72.5 1113.65 119.06C1172.18 165.62 1252.29 183.96 1325.13 167.02C1371.19 156.31 1414.49 132.35 1461.74 130.4C1510.26 128.4 1556.36 149.84 1604.12 158.61C1717.52 179.43 1839.06 122.36 1902.51 26.1C1965.96 -70.16 1971.99 -199.28 1925.55 -304.81C1879.11 -410.33 1783.91 -491.28 1674.88 -528.76C1565.85 -566.24 1444.51 -561.89 1335.14 -525.43C1281.51 -507.55 1230.44 -482.25 1176.05 -466.84C1121.66 -451.42 1061.59 -446.6 1009.9 -469.48L934.81 -429.83C980.58 -428.6 1019.25 -390.8 1034.32 -347.57Z" />
			<path id="&lt;Path&gt;" class="shp2" d="M0 508.39L0 -0.01L731.64 -0.01C729.18 21.43 724.68 42.63 717.92 63.27C695.1 133.13 645.6 194.31 582.84 231.75C549.68 251.55 512.8 264.73 474.2 269.03C423.94 274.65 367.28 267.87 328.54 300.37C305.24 319.93 293.92 349.79 279.4 376.53C238.04 452.61 160.14 510.85 73.76 516.97C48.98 518.73 23.86 515.63 0 508.39Z" />
			<path id="&lt;Path&gt;" class="shp3" d="M205.48 -0.01L1177.34 -0.01C1174.42 27.39 1167.52 54.47 1157.5 80.11C1134.06 139.95 1087.18 196.99 1023.56 206.07C996.12 209.99 969.16 204.67 943.06 194.99C905.66 181.13 863.76 192.43 838.1 222.97C819.98 244.51 796.68 261.75 770.5 272.11C722.02 291.33 664.7 286.63 620 259.81C606.74 251.85 594.58 242.11 582.84 231.75C549.44 202.31 519.42 167.87 477.36 155.07C433.62 141.79 385.82 155.13 341 146.17C275.3 133.03 227.02 73.09 207.94 8.87C207.06 5.93 206.24 2.97 205.48 -0.01Z" />
			<path id="&lt;Path&gt;" class="shp2" d="M182.08 572.81C182.08 566.35 187.32 561.11 193.78 561.11C200.24 561.11 205.48 566.35 205.48 572.81C205.48 579.27 200.24 584.51 193.78 584.51C187.32 584.51 182.08 579.27 182.08 572.81Z" />
			<g id="_a_&lt;Group&gt;">
			</g>
			<g id="&lt;Group&gt;">
				<path id="&lt;Path&gt;" class="shp4" d="M887.98 -145.07C901.73 -94.87 911.77 -40.17 892.54 8.2C867.35 71.57 797.45 107.05 729.74 115.18C662.03 123.32 593.86 109.88 525.86 104.71C457.86 99.54 385.03 104.01 328.99 142.86C251.26 196.74 225.75 301.74 155.61 365.2C97.13 418.1 8.85 435.55 -65.37 408.86" />
				<path id="&lt;Path&gt;" class="shp4" d="M836.48 -145.07C849.49 -97.58 858.99 -45.84 840.79 -0.08C816.96 59.86 750.84 93.43 686.79 101.13C622.74 108.82 558.25 96.1 493.92 91.21C429.6 86.32 360.7 90.56 307.68 127.31C234.15 178.28 210.02 277.61 143.67 337.63C88.35 387.68 4.84 404.18 -65.37 378.94" />
				<path id="&lt;Path&gt;" class="shp4" d="M784.98 -145.07C797.25 -100.3 806.2 -51.5 789.05 -8.36C766.58 48.16 704.23 79.81 643.83 87.07C583.44 94.32 522.63 82.33 461.98 77.72C401.33 73.11 336.37 77.1 286.38 111.75C217.05 159.81 194.29 253.47 131.73 310.06C79.57 357.26 0.83 372.82 -65.37 349.01" />
				<path id="&lt;Path&gt;" class="shp4" d="M733.48 -145.07C745 -103.01 753.41 -57.17 737.3 -16.64C716.19 36.46 657.62 66.19 600.88 73.01C544.15 79.82 487.02 68.56 430.04 64.23C373.06 59.89 312.04 63.64 265.08 96.2C199.94 141.35 178.57 229.33 119.8 282.5C70.79 326.83 -3.18 341.45 -65.37 319.09" />
				<path id="&lt;Path&gt;" class="shp4" d="M681.98 -145.07C692.76 -105.72 700.63 -62.84 685.55 -24.92C665.8 24.76 611.01 52.57 557.93 58.95C504.85 65.32 451.41 54.79 398.1 50.73C344.8 46.68 287.71 50.19 243.77 80.64C182.84 122.88 162.84 205.2 107.86 254.93C62.01 296.41 -7.19 310.08 -65.37 289.16" />
			</g>
			<g id="&lt;Group&gt;">
				<path id="&lt;Path&gt;" class="shp4" d="M1514.86 600.73C1524.9 565.77 1507.02 527.97 1481.09 502.45C1455.17 476.93 1421.98 460.41 1391.49 440.57C1361 420.73 1331.52 395.42 1319.98 360.92C1299.45 299.54 1341.36 237.06 1361.34 175.5C1391.57 82.35 1368.01 -26.24 1301.9 -98.48" />
				<path id="&lt;Path&gt;" class="shp4" d="M1538.58 593.51C1548.63 558.55 1530.75 520.75 1504.82 495.23C1478.9 469.71 1445.71 453.19 1415.22 433.35C1384.72 413.52 1355.24 388.2 1343.7 353.7C1323.18 292.32 1365.09 229.85 1385.07 168.28C1415.3 75.14 1391.74 -33.45 1325.62 -105.7" />
				<path id="&lt;Path&gt;" class="shp4" d="M1562.31 586.3C1572.35 551.33 1554.47 513.53 1528.55 488.01C1502.62 462.49 1469.44 445.97 1438.94 426.13C1408.45 406.3 1378.97 380.99 1367.43 346.49C1346.9 285.1 1388.81 222.63 1408.79 161.06C1439.03 67.92 1415.47 -40.67 1349.35 -112.92" />
				<path id="&lt;Path&gt;" class="shp4" d="M1586.04 579.08C1596.08 544.11 1578.2 506.32 1552.28 480.8C1526.35 455.28 1493.17 438.75 1462.67 418.92C1432.18 399.08 1402.7 373.77 1391.16 339.27C1370.63 277.89 1412.54 215.41 1432.52 153.85C1462.75 60.7 1439.19 -47.89 1373.08 -120.13" />
			</g>
		</g>
	</g>
</svg>